<?xml version="1.0" encoding="UTF-8" standalone="no"?>
<!DOCTYPE svg PUBLIC "-//W3C//DTD SVG 1.1//EN"
 "http://www.w3.org/Graphics/SVG/1.1/DTD/svg11.dtd">
<!-- Generated by graphviz version 3.0.0 (20220226.1711)
 -->
<!-- Pages: 1 -->
<svg width="2945pt" height="740pt"
 viewBox="0.00 0.00 2945.38 740.00" xmlns="http://www.w3.org/2000/svg" xmlns:xlink="http://www.w3.org/1999/xlink">
<g id="graph0" class="graph" transform="scale(1 1) rotate(0) translate(4 736)">
<polygon fill="white" stroke="transparent" points="-4,4 -4,-736 2941.38,-736 2941.38,4 -4,4"/>
<!-- 965855064996704672 -->
<g id="node1" class="node">
<title>965855064996704672</title>
<ellipse fill="none" stroke="black" cx="89.69" cy="-540" rx="89.88" ry="18"/>
<text text-anchor="middle" x="89.69" y="-536.3" font-family="Times New Roman,serif" font-size="14.00">965855064996704672</text>
</g>
<!-- 464726114514519485 -->
<g id="node2" class="node">
<title>464726114514519485</title>
<ellipse fill="none" stroke="black" cx="89.69" cy="-453" rx="89.88" ry="18"/>
<text text-anchor="middle" x="89.69" y="-449.3" font-family="Times New Roman,serif" font-size="14.00">464726114514519485</text>
</g>
<!-- 965855064996704672&#45;&gt;464726114514519485 -->
<g id="edge1" class="edge">
<title>965855064996704672&#45;&gt;464726114514519485</title>
<path fill="none" stroke="#000000" stroke-opacity="0.101961" d="M89.69,-521.8C89.69,-510.16 89.69,-494.55 89.69,-481.24"/>
<polygon fill="#000000" fill-opacity="0.101961" stroke="#000000" stroke-opacity="0.101961" points="93.19,-481.18 89.69,-471.18 86.19,-481.18 93.19,-481.18"/>
<text text-anchor="middle" x="93.19" y="-492.8" font-family="Times New Roman,serif" font-size="14.00">3</text>
</g>
<!-- 952199118435081243 -->
<g id="node4" class="node">
<title>952199118435081243</title>
<ellipse fill="none" stroke="black" cx="89.69" cy="-366" rx="89.88" ry="18"/>
<text text-anchor="middle" x="89.69" y="-362.3" font-family="Times New Roman,serif" font-size="14.00">952199118435081243</text>
</g>
<!-- 464726114514519485&#45;&gt;952199118435081243 -->
<g id="edge2" class="edge">
<title>464726114514519485&#45;&gt;952199118435081243</title>
<path fill="none" stroke="#000000" stroke-opacity="0.521569" d="M89.69,-434.8C89.69,-423.16 89.69,-407.55 89.69,-394.24"/>
<polygon fill="#000000" fill-opacity="0.521569" stroke="#000000" stroke-opacity="0.521569" points="93.19,-394.18 89.69,-384.18 86.19,-394.18 93.19,-394.18"/>
<text text-anchor="middle" x="96.69" y="-405.8" font-family="Times New Roman,serif" font-size="14.00">76</text>
</g>
<!-- 114312889500362496 -->
<g id="node3" class="node">
<title>114312889500362496</title>
<ellipse fill="none" stroke="black" cx="89.69" cy="-627" rx="89.88" ry="18"/>
<text text-anchor="middle" x="89.69" y="-623.3" font-family="Times New Roman,serif" font-size="14.00">114312889500362496</text>
</g>
<!-- 114312889500362496&#45;&gt;965855064996704672 -->
<g id="edge3" class="edge">
<title>114312889500362496&#45;&gt;965855064996704672</title>
<path fill="none" stroke="#000000" stroke-opacity="0.666667" d="M89.69,-608.8C89.69,-597.16 89.69,-581.55 89.69,-568.24"/>
<polygon fill="#000000" fill-opacity="0.666667" stroke="#000000" stroke-opacity="0.666667" points="93.19,-568.18 89.69,-558.18 86.19,-568.18 93.19,-568.18"/>
<text text-anchor="middle" x="100.19" y="-579.8" font-family="Times New Roman,serif" font-size="14.00">125</text>
</g>
<!-- 572785726118576436 -->
<g id="node5" class="node">
<title>572785726118576436</title>
<ellipse fill="none" stroke="black" cx="89.69" cy="-714" rx="89.88" ry="18"/>
<text text-anchor="middle" x="89.69" y="-710.3" font-family="Times New Roman,serif" font-size="14.00">572785726118576436</text>
</g>
<!-- 572785726118576436&#45;&gt;114312889500362496 -->
<g id="edge4" class="edge">
<title>572785726118576436&#45;&gt;114312889500362496</title>
<path fill="none" stroke="#000000" stroke-opacity="0.101961" d="M89.69,-695.8C89.69,-684.16 89.69,-668.55 89.69,-655.24"/>
<polygon fill="#000000" fill-opacity="0.101961" stroke="#000000" stroke-opacity="0.101961" points="93.19,-655.18 89.69,-645.18 86.19,-655.18 93.19,-655.18"/>
<text text-anchor="middle" x="93.19" y="-666.8" font-family="Times New Roman,serif" font-size="14.00">3</text>
</g>
<!-- 275857651972788943 -->
<g id="node6" class="node">
<title>275857651972788943</title>
<ellipse fill="none" stroke="black" cx="286.69" cy="-714" rx="89.88" ry="18"/>
<text text-anchor="middle" x="286.69" y="-710.3" font-family="Times New Roman,serif" font-size="14.00">275857651972788943</text>
</g>
<!-- 857744545190450421 -->
<g id="node7" class="node">
<title>857744545190450421</title>
<ellipse fill="none" stroke="black" cx="286.69" cy="-627" rx="89.88" ry="18"/>
<text text-anchor="middle" x="286.69" y="-623.3" font-family="Times New Roman,serif" font-size="14.00">857744545190450421</text>
</g>
<!-- 275857651972788943&#45;&gt;857744545190450421 -->
<g id="edge5" class="edge">
<title>275857651972788943&#45;&gt;857744545190450421</title>
<path fill="none" stroke="#000000" stroke-opacity="0.572549" d="M286.69,-695.8C286.69,-684.16 286.69,-668.55 286.69,-655.24"/>
<polygon fill="#000000" fill-opacity="0.572549" stroke="#000000" stroke-opacity="0.572549" points="290.19,-655.18 286.69,-645.18 283.19,-655.18 290.19,-655.18"/>
<text text-anchor="middle" x="293.69" y="-666.8" font-family="Times New Roman,serif" font-size="14.00">92</text>
</g>
<!-- 017464834943435282 -->
<g id="node8" class="node">
<title>017464834943435282</title>
<ellipse fill="none" stroke="black" cx="483.69" cy="-714" rx="89.88" ry="18"/>
<text text-anchor="middle" x="483.69" y="-710.3" font-family="Times New Roman,serif" font-size="14.00">017464834943435282</text>
</g>
<!-- 435282177830457651 -->
<g id="node9" class="node">
<title>435282177830457651</title>
<ellipse fill="none" stroke="black" cx="483.69" cy="-627" rx="89.88" ry="18"/>
<text text-anchor="middle" x="483.69" y="-623.3" font-family="Times New Roman,serif" font-size="14.00">435282177830457651</text>
</g>
<!-- 017464834943435282&#45;&gt;435282177830457651 -->
<g id="edge6" class="edge">
<title>017464834943435282&#45;&gt;435282177830457651</title>
<path fill="none" stroke="#000000" stroke-opacity="0.427451" d="M483.69,-695.8C483.69,-684.16 483.69,-668.55 483.69,-655.24"/>
<polygon fill="#000000" fill-opacity="0.427451" stroke="#000000" stroke-opacity="0.427451" points="487.19,-655.18 483.69,-645.18 480.19,-655.18 487.19,-655.18"/>
<text text-anchor="middle" x="490.69" y="-666.8" font-family="Times New Roman,serif" font-size="14.00">51</text>
</g>
<!-- 843508192159561513 -->
<g id="node10" class="node">
<title>843508192159561513</title>
<ellipse fill="none" stroke="black" cx="680.69" cy="-714" rx="89.88" ry="18"/>
<text text-anchor="middle" x="680.69" y="-710.3" font-family="Times New Roman,serif" font-size="14.00">843508192159561513</text>
</g>
<!-- 304648435345158604 -->
<g id="node11" class="node">
<title>304648435345158604</title>
<ellipse fill="none" stroke="black" cx="680.69" cy="-627" rx="89.88" ry="18"/>
<text text-anchor="middle" x="680.69" y="-623.3" font-family="Times New Roman,serif" font-size="14.00">304648435345158604</text>
</g>
<!-- 843508192159561513&#45;&gt;304648435345158604 -->
<g id="edge7" class="edge">
<title>843508192159561513&#45;&gt;304648435345158604</title>
<path fill="none" stroke="#000000" stroke-opacity="0.133333" d="M680.69,-695.8C680.69,-684.16 680.69,-668.55 680.69,-655.24"/>
<polygon fill="#000000" fill-opacity="0.133333" stroke="#000000" stroke-opacity="0.133333" points="684.19,-655.18 680.69,-645.18 677.19,-655.18 684.19,-655.18"/>
<text text-anchor="middle" x="684.19" y="-666.8" font-family="Times New Roman,serif" font-size="14.00">5</text>
</g>
<!-- 015255175191180189 -->
<g id="node12" class="node">
<title>015255175191180189</title>
<ellipse fill="none" stroke="black" cx="877.69" cy="-714" rx="89.88" ry="18"/>
<text text-anchor="middle" x="877.69" y="-710.3" font-family="Times New Roman,serif" font-size="14.00">015255175191180189</text>
</g>
<!-- 857659434421595604 -->
<g id="node13" class="node">
<title>857659434421595604</title>
<ellipse fill="none" stroke="black" cx="877.69" cy="-627" rx="89.88" ry="18"/>
<text text-anchor="middle" x="877.69" y="-623.3" font-family="Times New Roman,serif" font-size="14.00">857659434421595604</text>
</g>
<!-- 015255175191180189&#45;&gt;857659434421595604 -->
<g id="edge8" class="edge">
<title>015255175191180189&#45;&gt;857659434421595604</title>
<path fill="none" stroke="#000000" stroke-opacity="0.117647" d="M877.69,-695.8C877.69,-684.16 877.69,-668.55 877.69,-655.24"/>
<polygon fill="#000000" fill-opacity="0.117647" stroke="#000000" stroke-opacity="0.117647" points="881.19,-655.18 877.69,-645.18 874.19,-655.18 881.19,-655.18"/>
<text text-anchor="middle" x="881.19" y="-666.8" font-family="Times New Roman,serif" font-size="14.00">4</text>
</g>
<!-- 451904504215956151 -->
<g id="node14" class="node">
<title>451904504215956151</title>
<ellipse fill="none" stroke="black" cx="877.69" cy="-540" rx="89.88" ry="18"/>
<text text-anchor="middle" x="877.69" y="-536.3" font-family="Times New Roman,serif" font-size="14.00">451904504215956151</text>
</g>
<!-- 857659434421595604&#45;&gt;451904504215956151 -->
<g id="edge9" class="edge">
<title>857659434421595604&#45;&gt;451904504215956151</title>
<path fill="none" stroke="#000000" stroke-opacity="0.690196" d="M877.69,-608.8C877.69,-597.16 877.69,-581.55 877.69,-568.24"/>
<polygon fill="#000000" fill-opacity="0.690196" stroke="#000000" stroke-opacity="0.690196" points="881.19,-568.18 877.69,-558.18 874.19,-568.18 881.19,-568.18"/>
<text text-anchor="middle" x="888.19" y="-579.8" font-family="Times New Roman,serif" font-size="14.00">133</text>
</g>
<!-- 042159561513534780 -->
<g id="node15" class="node">
<title>042159561513534780</title>
<ellipse fill="none" stroke="black" cx="877.69" cy="-453" rx="89.88" ry="18"/>
<text text-anchor="middle" x="877.69" y="-449.3" font-family="Times New Roman,serif" font-size="14.00">042159561513534780</text>
</g>
<!-- 451904504215956151&#45;&gt;042159561513534780 -->
<g id="edge10" class="edge">
<title>451904504215956151&#45;&gt;042159561513534780</title>
<path fill="none" stroke="#000000" d="M877.69,-521.8C877.69,-510.16 877.69,-494.55 877.69,-481.24"/>
<polygon fill="#000000" stroke="#000000" points="881.19,-481.18 877.69,-471.18 874.19,-481.18 881.19,-481.18"/>
<text text-anchor="middle" x="888.19" y="-492.8" font-family="Times New Roman,serif" font-size="14.00">279</text>
</g>
<!-- 978585765197292197 -->
<g id="node16" class="node">
<title>978585765197292197</title>
<ellipse fill="none" stroke="black" cx="1074.69" cy="-627" rx="89.88" ry="18"/>
<text text-anchor="middle" x="1074.69" y="-623.3" font-family="Times New Roman,serif" font-size="14.00">978585765197292197</text>
</g>
<!-- 628477090889524348 -->
<g id="node17" class="node">
<title>628477090889524348</title>
<ellipse fill="none" stroke="black" cx="1074.69" cy="-540" rx="89.88" ry="18"/>
<text text-anchor="middle" x="1074.69" y="-536.3" font-family="Times New Roman,serif" font-size="14.00">628477090889524348</text>
</g>
<!-- 978585765197292197&#45;&gt;628477090889524348 -->
<g id="edge11" class="edge">
<title>978585765197292197&#45;&gt;628477090889524348</title>
<path fill="none" stroke="#000000" stroke-opacity="0.341176" d="M1074.69,-608.8C1074.69,-597.16 1074.69,-581.55 1074.69,-568.24"/>
<polygon fill="#000000" fill-opacity="0.341176" stroke="#000000" stroke-opacity="0.341176" points="1078.19,-568.18 1074.69,-558.18 1071.19,-568.18 1078.19,-568.18"/>
<text text-anchor="middle" x="1081.69" y="-579.8" font-family="Times New Roman,serif" font-size="14.00">33</text>
</g>
<!-- 867563561145191991 -->
<g id="node18" class="node">
<title>867563561145191991</title>
<ellipse fill="none" stroke="black" cx="1074.69" cy="-453" rx="89.88" ry="18"/>
<text text-anchor="middle" x="1074.69" y="-449.3" font-family="Times New Roman,serif" font-size="14.00">867563561145191991</text>
</g>
<!-- 628477090889524348&#45;&gt;867563561145191991 -->
<g id="edge12" class="edge">
<title>628477090889524348&#45;&gt;867563561145191991</title>
<path fill="none" stroke="#000000" stroke-opacity="0.486275" d="M1074.69,-521.8C1074.69,-510.16 1074.69,-494.55 1074.69,-481.24"/>
<polygon fill="#000000" fill-opacity="0.486275" stroke="#000000" stroke-opacity="0.486275" points="1078.19,-481.18 1074.69,-471.18 1071.19,-481.18 1078.19,-481.18"/>
<text text-anchor="middle" x="1081.69" y="-492.8" font-family="Times New Roman,serif" font-size="14.00">67</text>
</g>
<!-- 952196180031145727 -->
<g id="node19" class="node">
<title>952196180031145727</title>
<ellipse fill="none" stroke="black" cx="1074.69" cy="-366" rx="89.88" ry="18"/>
<text text-anchor="middle" x="1074.69" y="-362.3" font-family="Times New Roman,serif" font-size="14.00">952196180031145727</text>
</g>
<!-- 867563561145191991&#45;&gt;952196180031145727 -->
<g id="edge13" class="edge">
<title>867563561145191991&#45;&gt;952196180031145727</title>
<path fill="none" stroke="#000000" stroke-opacity="0.627451" d="M1074.69,-434.8C1074.69,-423.16 1074.69,-407.55 1074.69,-394.24"/>
<polygon fill="#000000" fill-opacity="0.627451" stroke="#000000" stroke-opacity="0.627451" points="1078.19,-394.18 1074.69,-384.18 1071.19,-394.18 1078.19,-394.18"/>
<text text-anchor="middle" x="1085.19" y="-405.8" font-family="Times New Roman,serif" font-size="14.00">110</text>
</g>
<!-- 819537243485625108 -->
<g id="node20" class="node">
<title>819537243485625108</title>
<ellipse fill="none" stroke="black" cx="1074.69" cy="-714" rx="89.88" ry="18"/>
<text text-anchor="middle" x="1074.69" y="-710.3" font-family="Times New Roman,serif" font-size="14.00">819537243485625108</text>
</g>
<!-- 819537243485625108&#45;&gt;978585765197292197 -->
<g id="edge14" class="edge">
<title>819537243485625108&#45;&gt;978585765197292197</title>
<path fill="none" stroke="#000000" stroke-opacity="0.349020" d="M1074.69,-695.8C1074.69,-684.16 1074.69,-668.55 1074.69,-655.24"/>
<polygon fill="#000000" fill-opacity="0.349020" stroke="#000000" stroke-opacity="0.349020" points="1078.19,-655.18 1074.69,-645.18 1071.19,-655.18 1078.19,-655.18"/>
<text text-anchor="middle" x="1081.69" y="-666.8" font-family="Times New Roman,serif" font-size="14.00">34</text>
</g>
<!-- 945765128895065128 -->
<g id="node21" class="node">
<title>945765128895065128</title>
<ellipse fill="none" stroke="black" cx="1271.69" cy="-714" rx="89.88" ry="18"/>
<text text-anchor="middle" x="1271.69" y="-710.3" font-family="Times New Roman,serif" font-size="14.00">945765128895065128</text>
</g>
<!-- 945765599670467261 -->
<g id="node22" class="node">
<title>945765599670467261</title>
<ellipse fill="none" stroke="black" cx="1271.69" cy="-627" rx="89.88" ry="18"/>
<text text-anchor="middle" x="1271.69" y="-623.3" font-family="Times New Roman,serif" font-size="14.00">945765599670467261</text>
</g>
<!-- 945765128895065128&#45;&gt;945765599670467261 -->
<g id="edge15" class="edge">
<title>945765128895065128&#45;&gt;945765599670467261</title>
<path fill="none" stroke="#000000" stroke-opacity="0.117647" d="M1271.69,-695.8C1271.69,-684.16 1271.69,-668.55 1271.69,-655.24"/>
<polygon fill="#000000" fill-opacity="0.117647" stroke="#000000" stroke-opacity="0.117647" points="1275.19,-655.18 1271.69,-645.18 1268.19,-655.18 1275.19,-655.18"/>
<text text-anchor="middle" x="1275.19" y="-666.8" font-family="Times New Roman,serif" font-size="14.00">4</text>
</g>
<!-- 895219727816705121 -->
<g id="node23" class="node">
<title>895219727816705121</title>
<ellipse fill="none" stroke="black" cx="1271.69" cy="-540" rx="89.88" ry="18"/>
<text text-anchor="middle" x="1271.69" y="-536.3" font-family="Times New Roman,serif" font-size="14.00">895219727816705121</text>
</g>
<!-- 945765599670467261&#45;&gt;895219727816705121 -->
<g id="edge16" class="edge">
<title>945765599670467261&#45;&gt;895219727816705121</title>
<path fill="none" stroke="#000000" stroke-opacity="0.101961" d="M1271.69,-608.8C1271.69,-597.16 1271.69,-581.55 1271.69,-568.24"/>
<polygon fill="#000000" fill-opacity="0.101961" stroke="#000000" stroke-opacity="0.101961" points="1275.19,-568.18 1271.69,-558.18 1268.19,-568.18 1275.19,-568.18"/>
<text text-anchor="middle" x="1275.19" y="-579.8" font-family="Times New Roman,serif" font-size="14.00">3</text>
</g>
<!-- 781670512164800658 -->
<g id="node24" class="node">
<title>781670512164800658</title>
<ellipse fill="none" stroke="black" cx="1271.69" cy="-453" rx="89.88" ry="18"/>
<text text-anchor="middle" x="1271.69" y="-449.3" font-family="Times New Roman,serif" font-size="14.00">781670512164800658</text>
</g>
<!-- 895219727816705121&#45;&gt;781670512164800658 -->
<g id="edge17" class="edge">
<title>895219727816705121&#45;&gt;781670512164800658</title>
<path fill="none" stroke="#000000" stroke-opacity="0.678431" d="M1271.69,-521.8C1271.69,-510.16 1271.69,-494.55 1271.69,-481.24"/>
<polygon fill="#000000" fill-opacity="0.678431" stroke="#000000" stroke-opacity="0.678431" points="1275.19,-481.18 1271.69,-471.18 1268.19,-481.18 1275.19,-481.18"/>
<text text-anchor="middle" x="1282.19" y="-492.8" font-family="Times New Roman,serif" font-size="14.00">129</text>
</g>
<!-- 460036467118001401 -->
<g id="node25" class="node">
<title>460036467118001401</title>
<ellipse fill="none" stroke="black" cx="1271.69" cy="-366" rx="89.88" ry="18"/>
<text text-anchor="middle" x="1271.69" y="-362.3" font-family="Times New Roman,serif" font-size="14.00">460036467118001401</text>
</g>
<!-- 781670512164800658&#45;&gt;460036467118001401 -->
<g id="edge18" class="edge">
<title>781670512164800658&#45;&gt;460036467118001401</title>
<path fill="none" stroke="#000000" stroke-opacity="0.101961" d="M1271.69,-434.8C1271.69,-423.16 1271.69,-407.55 1271.69,-394.24"/>
<polygon fill="#000000" fill-opacity="0.101961" stroke="#000000" stroke-opacity="0.101961" points="1275.19,-394.18 1271.69,-384.18 1268.19,-394.18 1275.19,-394.18"/>
<text text-anchor="middle" x="1275.19" y="-405.8" font-family="Times New Roman,serif" font-size="14.00">3</text>
</g>
<!-- 756356114519199118 -->
<g id="node26" class="node">
<title>756356114519199118</title>
<ellipse fill="none" stroke="black" cx="1271.69" cy="-279" rx="89.88" ry="18"/>
<text text-anchor="middle" x="1271.69" y="-275.3" font-family="Times New Roman,serif" font-size="14.00">756356114519199118</text>
</g>
<!-- 460036467118001401&#45;&gt;756356114519199118 -->
<g id="edge19" class="edge">
<title>460036467118001401&#45;&gt;756356114519199118</title>
<path fill="none" stroke="#000000" stroke-opacity="0.301961" d="M1271.69,-347.8C1271.69,-336.16 1271.69,-320.55 1271.69,-307.24"/>
<polygon fill="#000000" fill-opacity="0.301961" stroke="#000000" stroke-opacity="0.301961" points="1275.19,-307.18 1271.69,-297.18 1268.19,-307.18 1275.19,-307.18"/>
<text text-anchor="middle" x="1278.69" y="-318.8" font-family="Times New Roman,serif" font-size="14.00">26</text>
</g>
<!-- 467252197752364672 -->
<g id="node27" class="node">
<title>467252197752364672</title>
<ellipse fill="none" stroke="black" cx="1271.69" cy="-192" rx="89.88" ry="18"/>
<text text-anchor="middle" x="1271.69" y="-188.3" font-family="Times New Roman,serif" font-size="14.00">467252197752364672</text>
</g>
<!-- 756356114519199118&#45;&gt;467252197752364672 -->
<g id="edge20" class="edge">
<title>756356114519199118&#45;&gt;467252197752364672</title>
<path fill="none" stroke="#000000" stroke-opacity="0.117647" d="M1271.69,-260.8C1271.69,-249.16 1271.69,-233.55 1271.69,-220.24"/>
<polygon fill="#000000" fill-opacity="0.117647" stroke="#000000" stroke-opacity="0.117647" points="1275.19,-220.18 1271.69,-210.18 1268.19,-220.18 1275.19,-220.18"/>
<text text-anchor="middle" x="1275.19" y="-231.8" font-family="Times New Roman,serif" font-size="14.00">4</text>
</g>
<!-- 211911800357576546 -->
<g id="node28" class="node">
<title>211911800357576546</title>
<ellipse fill="none" stroke="black" cx="1468.69" cy="-540" rx="89.88" ry="18"/>
<text text-anchor="middle" x="1468.69" y="-536.3" font-family="Times New Roman,serif" font-size="14.00">211911800357576546</text>
</g>
<!-- 546003646711800140 -->
<g id="node29" class="node">
<title>546003646711800140</title>
<ellipse fill="none" stroke="black" cx="1468.69" cy="-453" rx="89.88" ry="18"/>
<text text-anchor="middle" x="1468.69" y="-449.3" font-family="Times New Roman,serif" font-size="14.00">546003646711800140</text>
</g>
<!-- 211911800357576546&#45;&gt;546003646711800140 -->
<g id="edge21" class="edge">
<title>211911800357576546&#45;&gt;546003646711800140</title>
<path fill="none" stroke="#000000" stroke-opacity="0.690196" d="M1468.69,-521.8C1468.69,-510.16 1468.69,-494.55 1468.69,-481.24"/>
<polygon fill="#000000" fill-opacity="0.690196" stroke="#000000" stroke-opacity="0.690196" points="1472.19,-481.18 1468.69,-471.18 1465.19,-481.18 1472.19,-481.18"/>
<text text-anchor="middle" x="1479.19" y="-492.8" font-family="Times New Roman,serif" font-size="14.00">134</text>
</g>
<!-- 180189445229534527 -->
<g id="node30" class="node">
<title>180189445229534527</title>
<ellipse fill="none" stroke="black" cx="1468.69" cy="-366" rx="89.88" ry="18"/>
<text text-anchor="middle" x="1468.69" y="-362.3" font-family="Times New Roman,serif" font-size="14.00">180189445229534527</text>
</g>
<!-- 546003646711800140&#45;&gt;180189445229534527 -->
<g id="edge22" class="edge">
<title>546003646711800140&#45;&gt;180189445229534527</title>
<path fill="none" stroke="#000000" stroke-opacity="0.925490" d="M1468.69,-434.8C1468.69,-423.16 1468.69,-407.55 1468.69,-394.24"/>
<polygon fill="#000000" fill-opacity="0.925490" stroke="#000000" stroke-opacity="0.925490" points="1472.19,-394.18 1468.69,-384.18 1465.19,-394.18 1472.19,-394.18"/>
<text text-anchor="middle" x="1479.19" y="-405.8" font-family="Times New Roman,serif" font-size="14.00">239</text>
</g>
<!-- 585765197278894388 -->
<g id="node31" class="node">
<title>585765197278894388</title>
<ellipse fill="none" stroke="black" cx="1468.69" cy="-279" rx="89.88" ry="18"/>
<text text-anchor="middle" x="1468.69" y="-275.3" font-family="Times New Roman,serif" font-size="14.00">585765197278894388</text>
</g>
<!-- 180189445229534527&#45;&gt;585765197278894388 -->
<g id="edge23" class="edge">
<title>180189445229534527&#45;&gt;585765197278894388</title>
<path fill="none" stroke="#000000" stroke-opacity="0.737255" d="M1468.69,-347.8C1468.69,-336.16 1468.69,-320.55 1468.69,-307.24"/>
<polygon fill="#000000" fill-opacity="0.737255" stroke="#000000" stroke-opacity="0.737255" points="1472.19,-307.18 1468.69,-297.18 1465.19,-307.18 1472.19,-307.18"/>
<text text-anchor="middle" x="1479.19" y="-318.8" font-family="Times New Roman,serif" font-size="14.00">153</text>
</g>
<!-- 651288952364672119 -->
<g id="node34" class="node">
<title>651288952364672119</title>
<ellipse fill="none" stroke="black" cx="1468.69" cy="-192" rx="89.88" ry="18"/>
<text text-anchor="middle" x="1468.69" y="-188.3" font-family="Times New Roman,serif" font-size="14.00">651288952364672119</text>
</g>
<!-- 585765197278894388&#45;&gt;651288952364672119 -->
<g id="edge24" class="edge">
<title>585765197278894388&#45;&gt;651288952364672119</title>
<path fill="none" stroke="#000000" stroke-opacity="0.117647" d="M1468.69,-260.8C1468.69,-249.16 1468.69,-233.55 1468.69,-220.24"/>
<polygon fill="#000000" fill-opacity="0.117647" stroke="#000000" stroke-opacity="0.117647" points="1472.19,-220.18 1468.69,-210.18 1465.19,-220.18 1472.19,-220.18"/>
<text text-anchor="middle" x="1472.19" y="-231.8" font-family="Times New Roman,serif" font-size="14.00">4</text>
</g>
<!-- 519118651281911800 -->
<g id="node32" class="node">
<title>519118651281911800</title>
<ellipse fill="none" stroke="black" cx="1468.69" cy="-627" rx="89.88" ry="18"/>
<text text-anchor="middle" x="1468.69" y="-623.3" font-family="Times New Roman,serif" font-size="14.00">519118651281911800</text>
</g>
<!-- 519118651281911800&#45;&gt;211911800357576546 -->
<g id="edge25" class="edge">
<title>519118651281911800&#45;&gt;211911800357576546</title>
<path fill="none" stroke="#000000" stroke-opacity="0.101961" d="M1468.69,-608.8C1468.69,-597.16 1468.69,-581.55 1468.69,-568.24"/>
<polygon fill="#000000" fill-opacity="0.101961" stroke="#000000" stroke-opacity="0.101961" points="1472.19,-568.18 1468.69,-558.18 1465.19,-568.18 1472.19,-568.18"/>
<text text-anchor="middle" x="1472.19" y="-579.8" font-family="Times New Roman,serif" font-size="14.00">3</text>
</g>
<!-- 534527446190830457 -->
<g id="node33" class="node">
<title>534527446190830457</title>
<ellipse fill="none" stroke="black" cx="1468.69" cy="-714" rx="89.88" ry="18"/>
<text text-anchor="middle" x="1468.69" y="-710.3" font-family="Times New Roman,serif" font-size="14.00">534527446190830457</text>
</g>
<!-- 534527446190830457&#45;&gt;519118651281911800 -->
<g id="edge26" class="edge">
<title>534527446190830457&#45;&gt;519118651281911800</title>
<path fill="none" stroke="#000000" stroke-opacity="0.117647" d="M1468.69,-695.8C1468.69,-684.16 1468.69,-668.55 1468.69,-655.24"/>
<polygon fill="#000000" fill-opacity="0.117647" stroke="#000000" stroke-opacity="0.117647" points="1472.19,-655.18 1468.69,-645.18 1465.19,-655.18 1472.19,-655.18"/>
<text text-anchor="middle" x="1472.19" y="-666.8" font-family="Times New Roman,serif" font-size="14.00">4</text>
</g>
<!-- 180036468895219912 -->
<g id="node35" class="node">
<title>180036468895219912</title>
<ellipse fill="none" stroke="black" cx="1468.69" cy="-105" rx="89.88" ry="18"/>
<text text-anchor="middle" x="1468.69" y="-101.3" font-family="Times New Roman,serif" font-size="14.00">180036468895219912</text>
</g>
<!-- 651288952364672119&#45;&gt;180036468895219912 -->
<g id="edge27" class="edge">
<title>651288952364672119&#45;&gt;180036468895219912</title>
<path fill="none" stroke="#000000" stroke-opacity="0.176471" d="M1468.69,-173.8C1468.69,-162.16 1468.69,-146.55 1468.69,-133.24"/>
<polygon fill="#000000" fill-opacity="0.176471" stroke="#000000" stroke-opacity="0.176471" points="1472.19,-133.18 1468.69,-123.18 1465.19,-133.18 1472.19,-133.18"/>
<text text-anchor="middle" x="1472.19" y="-144.8" font-family="Times New Roman,serif" font-size="14.00">9</text>
</g>
<!-- 508434856114572785 -->
<g id="node36" class="node">
<title>508434856114572785</title>
<ellipse fill="none" stroke="black" cx="1665.69" cy="-627" rx="89.88" ry="18"/>
<text text-anchor="middle" x="1665.69" y="-623.3" font-family="Times New Roman,serif" font-size="14.00">508434856114572785</text>
</g>
<!-- 180036468895219911 -->
<g id="node37" class="node">
<title>180036468895219911</title>
<ellipse fill="none" stroke="black" cx="1665.69" cy="-540" rx="89.88" ry="18"/>
<text text-anchor="middle" x="1665.69" y="-536.3" font-family="Times New Roman,serif" font-size="14.00">180036468895219911</text>
</g>
<!-- 508434856114572785&#45;&gt;180036468895219911 -->
<g id="edge28" class="edge">
<title>508434856114572785&#45;&gt;180036468895219911</title>
<path fill="none" stroke="#000000" stroke-opacity="0.454902" d="M1665.69,-608.8C1665.69,-597.16 1665.69,-581.55 1665.69,-568.24"/>
<polygon fill="#000000" fill-opacity="0.454902" stroke="#000000" stroke-opacity="0.454902" points="1669.19,-568.18 1665.69,-558.18 1662.19,-568.18 1669.19,-568.18"/>
<text text-anchor="middle" x="1672.69" y="-579.8" font-family="Times New Roman,serif" font-size="14.00">58</text>
</g>
<!-- 236467211911800357 -->
<g id="node39" class="node">
<title>236467211911800357</title>
<ellipse fill="none" stroke="black" cx="1665.69" cy="-453" rx="89.88" ry="18"/>
<text text-anchor="middle" x="1665.69" y="-449.3" font-family="Times New Roman,serif" font-size="14.00">236467211911800357</text>
</g>
<!-- 180036468895219911&#45;&gt;236467211911800357 -->
<g id="edge29" class="edge">
<title>180036468895219911&#45;&gt;236467211911800357</title>
<path fill="none" stroke="#000000" stroke-opacity="0.631373" d="M1665.69,-521.8C1665.69,-510.16 1665.69,-494.55 1665.69,-481.24"/>
<polygon fill="#000000" fill-opacity="0.631373" stroke="#000000" stroke-opacity="0.631373" points="1669.19,-481.18 1665.69,-471.18 1662.19,-481.18 1669.19,-481.18"/>
<text text-anchor="middle" x="1676.19" y="-492.8" font-family="Times New Roman,serif" font-size="14.00">112</text>
</g>
<!-- 404215857651216151 -->
<g id="node38" class="node">
<title>404215857651216151</title>
<ellipse fill="none" stroke="black" cx="1665.69" cy="-714" rx="89.88" ry="18"/>
<text text-anchor="middle" x="1665.69" y="-710.3" font-family="Times New Roman,serif" font-size="14.00">404215857651216151</text>
</g>
<!-- 404215857651216151&#45;&gt;508434856114572785 -->
<g id="edge30" class="edge">
<title>404215857651216151&#45;&gt;508434856114572785</title>
<path fill="none" stroke="#000000" stroke-opacity="0.717647" d="M1665.69,-695.8C1665.69,-684.16 1665.69,-668.55 1665.69,-655.24"/>
<polygon fill="#000000" fill-opacity="0.717647" stroke="#000000" stroke-opacity="0.717647" points="1669.19,-655.18 1665.69,-645.18 1662.19,-655.18 1669.19,-655.18"/>
<text text-anchor="middle" x="1676.19" y="-666.8" font-family="Times New Roman,serif" font-size="14.00">144</text>
</g>
<!-- 783020311806571918 -->
<g id="node40" class="node">
<title>783020311806571918</title>
<ellipse fill="none" stroke="black" cx="1665.69" cy="-366" rx="89.88" ry="18"/>
<text text-anchor="middle" x="1665.69" y="-362.3" font-family="Times New Roman,serif" font-size="14.00">783020311806571918</text>
</g>
<!-- 236467211911800357&#45;&gt;783020311806571918 -->
<g id="edge31" class="edge">
<title>236467211911800357&#45;&gt;783020311806571918</title>
<path fill="none" stroke="#000000" stroke-opacity="0.145098" d="M1665.69,-434.8C1665.69,-423.16 1665.69,-407.55 1665.69,-394.24"/>
<polygon fill="#000000" fill-opacity="0.145098" stroke="#000000" stroke-opacity="0.145098" points="1669.19,-394.18 1665.69,-384.18 1662.19,-394.18 1669.19,-394.18"/>
<text text-anchor="middle" x="1669.19" y="-405.8" font-family="Times New Roman,serif" font-size="14.00">6</text>
</g>
<!-- 576521972789431519 -->
<g id="node43" class="node">
<title>576521972789431519</title>
<ellipse fill="none" stroke="black" cx="1665.69" cy="-279" rx="89.88" ry="18"/>
<text text-anchor="middle" x="1665.69" y="-275.3" font-family="Times New Roman,serif" font-size="14.00">576521972789431519</text>
</g>
<!-- 783020311806571918&#45;&gt;576521972789431519 -->
<g id="edge32" class="edge">
<title>783020311806571918&#45;&gt;576521972789431519</title>
<path fill="none" stroke="#000000" stroke-opacity="0.133333" d="M1665.69,-347.8C1665.69,-336.16 1665.69,-320.55 1665.69,-307.24"/>
<polygon fill="#000000" fill-opacity="0.133333" stroke="#000000" stroke-opacity="0.133333" points="1669.19,-307.18 1665.69,-297.18 1662.19,-307.18 1669.19,-307.18"/>
<text text-anchor="middle" x="1669.19" y="-318.8" font-family="Times New Roman,serif" font-size="14.00">5</text>
</g>
<!-- 727894315191185191 -->
<g id="node41" class="node">
<title>727894315191185191</title>
<ellipse fill="none" stroke="black" cx="1665.69" cy="-192" rx="89.88" ry="18"/>
<text text-anchor="middle" x="1665.69" y="-188.3" font-family="Times New Roman,serif" font-size="14.00">727894315191185191</text>
</g>
<!-- 383435081243485611 -->
<g id="node42" class="node">
<title>383435081243485611</title>
<ellipse fill="none" stroke="black" cx="1665.69" cy="-105" rx="89.88" ry="18"/>
<text text-anchor="middle" x="1665.69" y="-101.3" font-family="Times New Roman,serif" font-size="14.00">383435081243485611</text>
</g>
<!-- 727894315191185191&#45;&gt;383435081243485611 -->
<g id="edge33" class="edge">
<title>727894315191185191&#45;&gt;383435081243485611</title>
<path fill="none" stroke="#000000" stroke-opacity="0.615686" d="M1665.69,-173.8C1665.69,-162.16 1665.69,-146.55 1665.69,-133.24"/>
<polygon fill="#000000" fill-opacity="0.615686" stroke="#000000" stroke-opacity="0.615686" points="1669.19,-133.18 1665.69,-123.18 1662.19,-133.18 1669.19,-133.18"/>
<text text-anchor="middle" x="1676.19" y="-144.8" font-family="Times New Roman,serif" font-size="14.00">106</text>
</g>
<!-- 519729219727816705 -->
<g id="node44" class="node">
<title>519729219727816705</title>
<ellipse fill="none" stroke="black" cx="1665.69" cy="-18" rx="89.88" ry="18"/>
<text text-anchor="middle" x="1665.69" y="-14.3" font-family="Times New Roman,serif" font-size="14.00">519729219727816705</text>
</g>
<!-- 383435081243485611&#45;&gt;519729219727816705 -->
<g id="edge34" class="edge">
<title>383435081243485611&#45;&gt;519729219727816705</title>
<path fill="none" stroke="#000000" stroke-opacity="0.101961" d="M1665.69,-86.8C1665.69,-75.16 1665.69,-59.55 1665.69,-46.24"/>
<polygon fill="#000000" fill-opacity="0.101961" stroke="#000000" stroke-opacity="0.101961" points="1669.19,-46.18 1665.69,-36.18 1662.19,-46.18 1669.19,-46.18"/>
<text text-anchor="middle" x="1669.19" y="-57.8" font-family="Times New Roman,serif" font-size="14.00">3</text>
</g>
<!-- 576521972789431519&#45;&gt;727894315191185191 -->
<g id="edge35" class="edge">
<title>576521972789431519&#45;&gt;727894315191185191</title>
<path fill="none" stroke="#000000" stroke-opacity="0.431373" d="M1665.69,-260.8C1665.69,-249.16 1665.69,-233.55 1665.69,-220.24"/>
<polygon fill="#000000" fill-opacity="0.431373" stroke="#000000" stroke-opacity="0.431373" points="1669.19,-220.18 1665.69,-210.18 1662.19,-220.18 1669.19,-220.18"/>
<text text-anchor="middle" x="1672.69" y="-231.8" font-family="Times New Roman,serif" font-size="14.00">52</text>
</g>
<!-- 843534515867511216 -->
<g id="node45" class="node">
<title>843534515867511216</title>
<ellipse fill="none" stroke="black" cx="1862.69" cy="-714" rx="89.88" ry="18"/>
<text text-anchor="middle" x="1862.69" y="-710.3" font-family="Times New Roman,serif" font-size="14.00">843534515867511216</text>
</g>
<!-- 781670574770909612 -->
<g id="node46" class="node">
<title>781670574770909612</title>
<ellipse fill="none" stroke="black" cx="2059.69" cy="-714" rx="89.88" ry="18"/>
<text text-anchor="middle" x="2059.69" y="-710.3" font-family="Times New Roman,serif" font-size="14.00">781670574770909612</text>
</g>
<!-- 219605796366125275 -->
<g id="node47" class="node">
<title>219605796366125275</title>
<ellipse fill="none" stroke="black" cx="2256.69" cy="-714" rx="89.88" ry="18"/>
<text text-anchor="middle" x="2256.69" y="-710.3" font-family="Times New Roman,serif" font-size="14.00">219605796366125275</text>
</g>
<!-- 094343508434856118 -->
<g id="node48" class="node">
<title>094343508434856118</title>
<ellipse fill="none" stroke="black" cx="2453.69" cy="-714" rx="89.88" ry="18"/>
<text text-anchor="middle" x="2453.69" y="-710.3" font-family="Times New Roman,serif" font-size="14.00">094343508434856118</text>
</g>
<!-- 679757714458316013 -->
<g id="node49" class="node">
<title>679757714458316013</title>
<ellipse fill="none" stroke="black" cx="2650.69" cy="-714" rx="89.88" ry="18"/>
<text text-anchor="middle" x="2650.69" y="-710.3" font-family="Times New Roman,serif" font-size="14.00">679757714458316013</text>
</g>
<!-- 974648349472783040 -->
<g id="node50" class="node">
<title>974648349472783040</title>
<ellipse fill="none" stroke="black" cx="2847.69" cy="-714" rx="89.88" ry="18"/>
<text text-anchor="middle" x="2847.69" y="-710.3" font-family="Times New Roman,serif" font-size="14.00">974648349472783040</text>
</g>
</g>
</svg>
