<?xml version="1.0" encoding="UTF-8" standalone="no"?>
<!DOCTYPE svg PUBLIC "-//W3C//DTD SVG 1.1//EN"
 "http://www.w3.org/Graphics/SVG/1.1/DTD/svg11.dtd">
<!-- Generated by graphviz version 3.0.0 (20220226.1711)
 -->
<!-- Pages: 1 -->
<svg width="581pt" height="3959pt"
 viewBox="0.00 0.00 581.38 3959.00" xmlns="http://www.w3.org/2000/svg" xmlns:xlink="http://www.w3.org/1999/xlink">
<g id="graph0" class="graph" transform="scale(1 1) rotate(0) translate(4 3955)">
<polygon fill="white" stroke="transparent" points="-4,4 -4,-3955 577.38,-3955 577.38,4 -4,4"/>
<!-- 756356114519199118 -->
<g id="node1" class="node">
<title>756356114519199118</title>
<ellipse fill="none" stroke="black" cx="89.69" cy="-3846" rx="89.88" ry="18"/>
<text text-anchor="middle" x="89.69" y="-3842.3" font-family="Times New Roman,serif" font-size="14.00">756356114519199118</text>
</g>
<!-- 236467211911800357 -->
<g id="node2" class="node">
<title>236467211911800357</title>
<ellipse fill="none" stroke="black" cx="89.69" cy="-3759" rx="89.88" ry="18"/>
<text text-anchor="middle" x="89.69" y="-3755.3" font-family="Times New Roman,serif" font-size="14.00">236467211911800357</text>
</g>
<!-- 756356114519199118&#45;&gt;236467211911800357 -->
<g id="edge1" class="edge">
<title>756356114519199118&#45;&gt;236467211911800357</title>
<path fill="none" stroke="#000000" stroke-opacity="0.078431" d="M89.69,-3827.8C89.69,-3816.16 89.69,-3800.55 89.69,-3787.24"/>
<polygon fill="#000000" fill-opacity="0.078431" stroke="#000000" stroke-opacity="0.078431" points="93.19,-3787.18 89.69,-3777.18 86.19,-3787.18 93.19,-3787.18"/>
<text text-anchor="middle" x="93.19" y="-3798.8" font-family="Times New Roman,serif" font-size="14.00">1</text>
</g>
<!-- 534527446190830457 -->
<g id="node3" class="node">
<title>534527446190830457</title>
<ellipse fill="none" stroke="black" cx="89.69" cy="-3933" rx="89.88" ry="18"/>
<text text-anchor="middle" x="89.69" y="-3929.3" font-family="Times New Roman,serif" font-size="14.00">534527446190830457</text>
</g>
<!-- 534527446190830457&#45;&gt;756356114519199118 -->
<g id="edge2" class="edge">
<title>534527446190830457&#45;&gt;756356114519199118</title>
<path fill="none" stroke="#000000" stroke-opacity="0.290196" d="M89.69,-3914.8C89.69,-3903.16 89.69,-3887.55 89.69,-3874.24"/>
<polygon fill="#000000" fill-opacity="0.290196" stroke="#000000" stroke-opacity="0.290196" points="93.19,-3874.18 89.69,-3864.18 86.19,-3874.18 93.19,-3874.18"/>
<text text-anchor="middle" x="96.69" y="-3885.8" font-family="Times New Roman,serif" font-size="14.00">13</text>
</g>
<!-- 945765128895065128 -->
<g id="node4" class="node">
<title>945765128895065128</title>
<ellipse fill="none" stroke="black" cx="286.69" cy="-3759" rx="89.88" ry="18"/>
<text text-anchor="middle" x="286.69" y="-3755.3" font-family="Times New Roman,serif" font-size="14.00">945765128895065128</text>
</g>
<!-- 727894315191185191 -->
<g id="node5" class="node">
<title>727894315191185191</title>
<ellipse fill="none" stroke="black" cx="286.69" cy="-3672" rx="89.88" ry="18"/>
<text text-anchor="middle" x="286.69" y="-3668.3" font-family="Times New Roman,serif" font-size="14.00">727894315191185191</text>
</g>
<!-- 945765128895065128&#45;&gt;727894315191185191 -->
<g id="edge3" class="edge">
<title>945765128895065128&#45;&gt;727894315191185191</title>
<path fill="none" stroke="#000000" stroke-opacity="0.078431" d="M286.69,-3740.8C286.69,-3729.16 286.69,-3713.55 286.69,-3700.24"/>
<polygon fill="#000000" fill-opacity="0.078431" stroke="#000000" stroke-opacity="0.078431" points="290.19,-3700.18 286.69,-3690.18 283.19,-3700.18 290.19,-3700.18"/>
<text text-anchor="middle" x="290.19" y="-3711.8" font-family="Times New Roman,serif" font-size="14.00">1</text>
</g>
<!-- 952196180031145727 -->
<g id="node10" class="node">
<title>952196180031145727</title>
<ellipse fill="none" stroke="black" cx="286.69" cy="-3585" rx="89.88" ry="18"/>
<text text-anchor="middle" x="286.69" y="-3581.3" font-family="Times New Roman,serif" font-size="14.00">952196180031145727</text>
</g>
<!-- 727894315191185191&#45;&gt;952196180031145727 -->
<g id="edge4" class="edge">
<title>727894315191185191&#45;&gt;952196180031145727</title>
<path fill="none" stroke="#000000" stroke-opacity="0.211765" d="M286.69,-3653.8C286.69,-3642.16 286.69,-3626.55 286.69,-3613.24"/>
<polygon fill="#000000" fill-opacity="0.211765" stroke="#000000" stroke-opacity="0.211765" points="290.19,-3613.18 286.69,-3603.18 283.19,-3613.18 290.19,-3613.18"/>
<text text-anchor="middle" x="290.19" y="-3624.8" font-family="Times New Roman,serif" font-size="14.00">7</text>
</g>
<!-- 383435081243485611 -->
<g id="node6" class="node">
<title>383435081243485611</title>
<ellipse fill="none" stroke="black" cx="286.69" cy="-3846" rx="89.88" ry="18"/>
<text text-anchor="middle" x="286.69" y="-3842.3" font-family="Times New Roman,serif" font-size="14.00">383435081243485611</text>
</g>
<!-- 383435081243485611&#45;&gt;945765128895065128 -->
<g id="edge5" class="edge">
<title>383435081243485611&#45;&gt;945765128895065128</title>
<path fill="none" stroke="#000000" stroke-opacity="0.078431" d="M286.69,-3827.8C286.69,-3816.16 286.69,-3800.55 286.69,-3787.24"/>
<polygon fill="#000000" fill-opacity="0.078431" stroke="#000000" stroke-opacity="0.078431" points="290.19,-3787.18 286.69,-3777.18 283.19,-3787.18 290.19,-3787.18"/>
<text text-anchor="middle" x="290.19" y="-3798.8" font-family="Times New Roman,serif" font-size="14.00">1</text>
</g>
<!-- 781670574770909612 -->
<g id="node7" class="node">
<title>781670574770909612</title>
<ellipse fill="none" stroke="black" cx="286.69" cy="-3933" rx="89.88" ry="18"/>
<text text-anchor="middle" x="286.69" y="-3929.3" font-family="Times New Roman,serif" font-size="14.00">781670574770909612</text>
</g>
<!-- 781670574770909612&#45;&gt;383435081243485611 -->
<g id="edge6" class="edge">
<title>781670574770909612&#45;&gt;383435081243485611</title>
<path fill="none" stroke="#000000" stroke-opacity="0.078431" d="M286.69,-3914.8C286.69,-3903.16 286.69,-3887.55 286.69,-3874.24"/>
<polygon fill="#000000" fill-opacity="0.078431" stroke="#000000" stroke-opacity="0.078431" points="290.19,-3874.18 286.69,-3864.18 283.19,-3874.18 290.19,-3874.18"/>
<text text-anchor="middle" x="290.19" y="-3885.8" font-family="Times New Roman,serif" font-size="14.00">1</text>
</g>
<!-- 304648435345158604 -->
<g id="node8" class="node">
<title>304648435345158604</title>
<ellipse fill="none" stroke="black" cx="286.69" cy="-3498" rx="89.88" ry="18"/>
<text text-anchor="middle" x="286.69" y="-3494.3" font-family="Times New Roman,serif" font-size="14.00">304648435345158604</text>
</g>
<!-- 180189445229534527 -->
<g id="node9" class="node">
<title>180189445229534527</title>
<ellipse fill="none" stroke="black" cx="286.69" cy="-3411" rx="89.88" ry="18"/>
<text text-anchor="middle" x="286.69" y="-3407.3" font-family="Times New Roman,serif" font-size="14.00">180189445229534527</text>
</g>
<!-- 304648435345158604&#45;&gt;180189445229534527 -->
<g id="edge7" class="edge">
<title>304648435345158604&#45;&gt;180189445229534527</title>
<path fill="none" stroke="#000000" stroke-opacity="0.078431" d="M286.69,-3479.8C286.69,-3468.16 286.69,-3452.55 286.69,-3439.24"/>
<polygon fill="#000000" fill-opacity="0.078431" stroke="#000000" stroke-opacity="0.078431" points="290.19,-3439.18 286.69,-3429.18 283.19,-3439.18 290.19,-3439.18"/>
<text text-anchor="middle" x="290.19" y="-3450.8" font-family="Times New Roman,serif" font-size="14.00">1</text>
</g>
<!-- 585765197278894388 -->
<g id="node11" class="node">
<title>585765197278894388</title>
<ellipse fill="none" stroke="black" cx="286.69" cy="-3324" rx="89.88" ry="18"/>
<text text-anchor="middle" x="286.69" y="-3320.3" font-family="Times New Roman,serif" font-size="14.00">585765197278894388</text>
</g>
<!-- 180189445229534527&#45;&gt;585765197278894388 -->
<g id="edge8" class="edge">
<title>180189445229534527&#45;&gt;585765197278894388</title>
<path fill="none" stroke="#000000" d="M286.69,-3392.8C286.69,-3381.16 286.69,-3365.55 286.69,-3352.24"/>
<polygon fill="#000000" stroke="#000000" points="290.19,-3352.18 286.69,-3342.18 283.19,-3352.18 290.19,-3352.18"/>
<text text-anchor="middle" x="297.19" y="-3363.8" font-family="Times New Roman,serif" font-size="14.00">153</text>
</g>
<!-- 952196180031145727&#45;&gt;304648435345158604 -->
<g id="edge9" class="edge">
<title>952196180031145727&#45;&gt;304648435345158604</title>
<path fill="none" stroke="#000000" stroke-opacity="0.078431" d="M286.69,-3566.8C286.69,-3555.16 286.69,-3539.55 286.69,-3526.24"/>
<polygon fill="#000000" fill-opacity="0.078431" stroke="#000000" stroke-opacity="0.078431" points="290.19,-3526.18 286.69,-3516.18 283.19,-3526.18 290.19,-3526.18"/>
<text text-anchor="middle" x="290.19" y="-3537.8" font-family="Times New Roman,serif" font-size="14.00">1</text>
</g>
<!-- 211911800357576546 -->
<g id="node12" class="node">
<title>211911800357576546</title>
<ellipse fill="none" stroke="black" cx="286.69" cy="-3237" rx="89.88" ry="18"/>
<text text-anchor="middle" x="286.69" y="-3233.3" font-family="Times New Roman,serif" font-size="14.00">211911800357576546</text>
</g>
<!-- 585765197278894388&#45;&gt;211911800357576546 -->
<g id="edge10" class="edge">
<title>585765197278894388&#45;&gt;211911800357576546</title>
<path fill="none" stroke="#000000" stroke-opacity="0.078431" d="M286.69,-3305.8C286.69,-3294.16 286.69,-3278.55 286.69,-3265.24"/>
<polygon fill="#000000" fill-opacity="0.078431" stroke="#000000" stroke-opacity="0.078431" points="290.19,-3265.18 286.69,-3255.18 283.19,-3265.18 290.19,-3265.18"/>
<text text-anchor="middle" x="290.19" y="-3276.8" font-family="Times New Roman,serif" font-size="14.00">1</text>
</g>
<!-- 965855064996704672 -->
<g id="node13" class="node">
<title>965855064996704672</title>
<ellipse fill="none" stroke="black" cx="286.69" cy="-3150" rx="89.88" ry="18"/>
<text text-anchor="middle" x="286.69" y="-3146.3" font-family="Times New Roman,serif" font-size="14.00">965855064996704672</text>
</g>
<!-- 211911800357576546&#45;&gt;965855064996704672 -->
<g id="edge11" class="edge">
<title>211911800357576546&#45;&gt;965855064996704672</title>
<path fill="none" stroke="#000000" stroke-opacity="0.078431" d="M286.69,-3218.8C286.69,-3207.16 286.69,-3191.55 286.69,-3178.24"/>
<polygon fill="#000000" fill-opacity="0.078431" stroke="#000000" stroke-opacity="0.078431" points="290.19,-3178.18 286.69,-3168.18 283.19,-3178.18 290.19,-3178.18"/>
<text text-anchor="middle" x="290.19" y="-3189.8" font-family="Times New Roman,serif" font-size="14.00">1</text>
</g>
<!-- 435282177830457651 -->
<g id="node14" class="node">
<title>435282177830457651</title>
<ellipse fill="none" stroke="black" cx="286.69" cy="-3063" rx="89.88" ry="18"/>
<text text-anchor="middle" x="286.69" y="-3059.3" font-family="Times New Roman,serif" font-size="14.00">435282177830457651</text>
</g>
<!-- 965855064996704672&#45;&gt;435282177830457651 -->
<g id="edge12" class="edge">
<title>965855064996704672&#45;&gt;435282177830457651</title>
<path fill="none" stroke="#000000" stroke-opacity="0.078431" d="M286.69,-3131.8C286.69,-3120.16 286.69,-3104.55 286.69,-3091.24"/>
<polygon fill="#000000" fill-opacity="0.078431" stroke="#000000" stroke-opacity="0.078431" points="290.19,-3091.18 286.69,-3081.18 283.19,-3091.18 290.19,-3091.18"/>
<text text-anchor="middle" x="290.19" y="-3102.8" font-family="Times New Roman,serif" font-size="14.00">1</text>
</g>
<!-- 180036468895219912 -->
<g id="node15" class="node">
<title>180036468895219912</title>
<ellipse fill="none" stroke="black" cx="286.69" cy="-2976" rx="89.88" ry="18"/>
<text text-anchor="middle" x="286.69" y="-2972.3" font-family="Times New Roman,serif" font-size="14.00">180036468895219912</text>
</g>
<!-- 435282177830457651&#45;&gt;180036468895219912 -->
<g id="edge13" class="edge">
<title>435282177830457651&#45;&gt;180036468895219912</title>
<path fill="none" stroke="#000000" stroke-opacity="0.078431" d="M286.69,-3044.8C286.69,-3033.16 286.69,-3017.55 286.69,-3004.24"/>
<polygon fill="#000000" fill-opacity="0.078431" stroke="#000000" stroke-opacity="0.078431" points="290.19,-3004.18 286.69,-2994.18 283.19,-3004.18 290.19,-3004.18"/>
<text text-anchor="middle" x="290.19" y="-3015.8" font-family="Times New Roman,serif" font-size="14.00">1</text>
</g>
<!-- 180036468895219911 -->
<g id="node16" class="node">
<title>180036468895219911</title>
<ellipse fill="none" stroke="black" cx="286.69" cy="-2889" rx="89.88" ry="18"/>
<text text-anchor="middle" x="286.69" y="-2885.3" font-family="Times New Roman,serif" font-size="14.00">180036468895219911</text>
</g>
<!-- 180036468895219912&#45;&gt;180036468895219911 -->
<g id="edge14" class="edge">
<title>180036468895219912&#45;&gt;180036468895219911</title>
<path fill="none" stroke="#000000" stroke-opacity="0.078431" d="M286.69,-2957.8C286.69,-2946.16 286.69,-2930.55 286.69,-2917.24"/>
<polygon fill="#000000" fill-opacity="0.078431" stroke="#000000" stroke-opacity="0.078431" points="290.19,-2917.18 286.69,-2907.18 283.19,-2917.18 290.19,-2917.18"/>
<text text-anchor="middle" x="290.19" y="-2928.8" font-family="Times New Roman,serif" font-size="14.00">1</text>
</g>
<!-- 783020311806571918 -->
<g id="node17" class="node">
<title>783020311806571918</title>
<ellipse fill="none" stroke="black" cx="286.69" cy="-2802" rx="89.88" ry="18"/>
<text text-anchor="middle" x="286.69" y="-2798.3" font-family="Times New Roman,serif" font-size="14.00">783020311806571918</text>
</g>
<!-- 180036468895219911&#45;&gt;783020311806571918 -->
<g id="edge15" class="edge">
<title>180036468895219911&#45;&gt;783020311806571918</title>
<path fill="none" stroke="#000000" stroke-opacity="0.078431" d="M286.69,-2870.8C286.69,-2859.16 286.69,-2843.55 286.69,-2830.24"/>
<polygon fill="#000000" fill-opacity="0.078431" stroke="#000000" stroke-opacity="0.078431" points="290.19,-2830.18 286.69,-2820.18 283.19,-2830.18 290.19,-2830.18"/>
<text text-anchor="middle" x="290.19" y="-2841.8" font-family="Times New Roman,serif" font-size="14.00">1</text>
</g>
<!-- 275857651972788943 -->
<g id="node18" class="node">
<title>275857651972788943</title>
<ellipse fill="none" stroke="black" cx="286.69" cy="-2715" rx="89.88" ry="18"/>
<text text-anchor="middle" x="286.69" y="-2711.3" font-family="Times New Roman,serif" font-size="14.00">275857651972788943</text>
</g>
<!-- 783020311806571918&#45;&gt;275857651972788943 -->
<g id="edge16" class="edge">
<title>783020311806571918&#45;&gt;275857651972788943</title>
<path fill="none" stroke="#000000" stroke-opacity="0.078431" d="M286.69,-2783.8C286.69,-2772.16 286.69,-2756.55 286.69,-2743.24"/>
<polygon fill="#000000" fill-opacity="0.078431" stroke="#000000" stroke-opacity="0.078431" points="290.19,-2743.18 286.69,-2733.18 283.19,-2743.18 290.19,-2743.18"/>
<text text-anchor="middle" x="290.19" y="-2754.8" font-family="Times New Roman,serif" font-size="14.00">1</text>
</g>
<!-- 519118651281911800 -->
<g id="node21" class="node">
<title>519118651281911800</title>
<ellipse fill="none" stroke="black" cx="286.69" cy="-2628" rx="89.88" ry="18"/>
<text text-anchor="middle" x="286.69" y="-2624.3" font-family="Times New Roman,serif" font-size="14.00">519118651281911800</text>
</g>
<!-- 275857651972788943&#45;&gt;519118651281911800 -->
<g id="edge17" class="edge">
<title>275857651972788943&#45;&gt;519118651281911800</title>
<path fill="none" stroke="#000000" stroke-opacity="0.435294" d="M286.69,-2696.8C286.69,-2685.16 286.69,-2669.55 286.69,-2656.24"/>
<polygon fill="#000000" fill-opacity="0.435294" stroke="#000000" stroke-opacity="0.435294" points="290.19,-2656.18 286.69,-2646.18 283.19,-2656.18 290.19,-2656.18"/>
<text text-anchor="middle" x="293.69" y="-2667.8" font-family="Times New Roman,serif" font-size="14.00">29</text>
</g>
<!-- 952199118435081243 -->
<g id="node19" class="node">
<title>952199118435081243</title>
<ellipse fill="none" stroke="black" cx="286.69" cy="-2541" rx="89.88" ry="18"/>
<text text-anchor="middle" x="286.69" y="-2537.3" font-family="Times New Roman,serif" font-size="14.00">952199118435081243</text>
</g>
<!-- 451904504215956151 -->
<g id="node20" class="node">
<title>451904504215956151</title>
<ellipse fill="none" stroke="black" cx="286.69" cy="-2454" rx="89.88" ry="18"/>
<text text-anchor="middle" x="286.69" y="-2450.3" font-family="Times New Roman,serif" font-size="14.00">451904504215956151</text>
</g>
<!-- 952199118435081243&#45;&gt;451904504215956151 -->
<g id="edge18" class="edge">
<title>952199118435081243&#45;&gt;451904504215956151</title>
<path fill="none" stroke="#000000" stroke-opacity="0.078431" d="M286.69,-2522.8C286.69,-2511.16 286.69,-2495.55 286.69,-2482.24"/>
<polygon fill="#000000" fill-opacity="0.078431" stroke="#000000" stroke-opacity="0.078431" points="290.19,-2482.18 286.69,-2472.18 283.19,-2482.18 290.19,-2482.18"/>
<text text-anchor="middle" x="290.19" y="-2493.8" font-family="Times New Roman,serif" font-size="14.00">1</text>
</g>
<!-- 628477090889524348 -->
<g id="node25" class="node">
<title>628477090889524348</title>
<ellipse fill="none" stroke="black" cx="286.69" cy="-2367" rx="89.88" ry="18"/>
<text text-anchor="middle" x="286.69" y="-2363.3" font-family="Times New Roman,serif" font-size="14.00">628477090889524348</text>
</g>
<!-- 451904504215956151&#45;&gt;628477090889524348 -->
<g id="edge19" class="edge">
<title>451904504215956151&#45;&gt;628477090889524348</title>
<path fill="none" stroke="#000000" stroke-opacity="0.670588" d="M286.69,-2435.8C286.69,-2424.16 286.69,-2408.55 286.69,-2395.24"/>
<polygon fill="#000000" fill-opacity="0.670588" stroke="#000000" stroke-opacity="0.670588" points="290.19,-2395.18 286.69,-2385.18 283.19,-2395.18 290.19,-2395.18"/>
<text text-anchor="middle" x="293.69" y="-2406.8" font-family="Times New Roman,serif" font-size="14.00">69</text>
</g>
<!-- 519118651281911800&#45;&gt;952199118435081243 -->
<g id="edge20" class="edge">
<title>519118651281911800&#45;&gt;952199118435081243</title>
<path fill="none" stroke="#000000" stroke-opacity="0.454902" d="M286.69,-2609.8C286.69,-2598.16 286.69,-2582.55 286.69,-2569.24"/>
<polygon fill="#000000" fill-opacity="0.454902" stroke="#000000" stroke-opacity="0.454902" points="290.19,-2569.18 286.69,-2559.18 283.19,-2569.18 290.19,-2569.18"/>
<text text-anchor="middle" x="293.69" y="-2580.8" font-family="Times New Roman,serif" font-size="14.00">32</text>
</g>
<!-- 819537243485625108 -->
<g id="node22" class="node">
<title>819537243485625108</title>
<ellipse fill="none" stroke="black" cx="286.69" cy="-2280" rx="89.88" ry="18"/>
<text text-anchor="middle" x="286.69" y="-2276.3" font-family="Times New Roman,serif" font-size="14.00">819537243485625108</text>
</g>
<!-- 042159561513534780 -->
<g id="node23" class="node">
<title>042159561513534780</title>
<ellipse fill="none" stroke="black" cx="286.69" cy="-2193" rx="89.88" ry="18"/>
<text text-anchor="middle" x="286.69" y="-2189.3" font-family="Times New Roman,serif" font-size="14.00">042159561513534780</text>
</g>
<!-- 819537243485625108&#45;&gt;042159561513534780 -->
<g id="edge21" class="edge">
<title>819537243485625108&#45;&gt;042159561513534780</title>
<path fill="none" stroke="#000000" stroke-opacity="0.078431" d="M286.69,-2261.8C286.69,-2250.16 286.69,-2234.55 286.69,-2221.24"/>
<polygon fill="#000000" fill-opacity="0.078431" stroke="#000000" stroke-opacity="0.078431" points="290.19,-2221.18 286.69,-2211.18 283.19,-2221.18 290.19,-2221.18"/>
<text text-anchor="middle" x="290.19" y="-2232.8" font-family="Times New Roman,serif" font-size="14.00">1</text>
</g>
<!-- 576521972789431519 -->
<g id="node24" class="node">
<title>576521972789431519</title>
<ellipse fill="none" stroke="black" cx="286.69" cy="-2106" rx="89.88" ry="18"/>
<text text-anchor="middle" x="286.69" y="-2102.3" font-family="Times New Roman,serif" font-size="14.00">576521972789431519</text>
</g>
<!-- 042159561513534780&#45;&gt;576521972789431519 -->
<g id="edge22" class="edge">
<title>042159561513534780&#45;&gt;576521972789431519</title>
<path fill="none" stroke="#000000" stroke-opacity="0.078431" d="M286.69,-2174.8C286.69,-2163.16 286.69,-2147.55 286.69,-2134.24"/>
<polygon fill="#000000" fill-opacity="0.078431" stroke="#000000" stroke-opacity="0.078431" points="290.19,-2134.18 286.69,-2124.18 283.19,-2134.18 290.19,-2134.18"/>
<text text-anchor="middle" x="290.19" y="-2145.8" font-family="Times New Roman,serif" font-size="14.00">1</text>
</g>
<!-- 546003646711800140 -->
<g id="node28" class="node">
<title>546003646711800140</title>
<ellipse fill="none" stroke="black" cx="286.69" cy="-2019" rx="89.88" ry="18"/>
<text text-anchor="middle" x="286.69" y="-2015.3" font-family="Times New Roman,serif" font-size="14.00">546003646711800140</text>
</g>
<!-- 576521972789431519&#45;&gt;546003646711800140 -->
<g id="edge23" class="edge">
<title>576521972789431519&#45;&gt;546003646711800140</title>
<path fill="none" stroke="#000000" stroke-opacity="0.078431" d="M286.69,-2087.8C286.69,-2076.16 286.69,-2060.55 286.69,-2047.24"/>
<polygon fill="#000000" fill-opacity="0.078431" stroke="#000000" stroke-opacity="0.078431" points="290.19,-2047.18 286.69,-2037.18 283.19,-2047.18 290.19,-2047.18"/>
<text text-anchor="middle" x="290.19" y="-2058.8" font-family="Times New Roman,serif" font-size="14.00">1</text>
</g>
<!-- 628477090889524348&#45;&gt;819537243485625108 -->
<g id="edge24" class="edge">
<title>628477090889524348&#45;&gt;819537243485625108</title>
<path fill="none" stroke="#000000" stroke-opacity="0.078431" d="M286.69,-2348.8C286.69,-2337.16 286.69,-2321.55 286.69,-2308.24"/>
<polygon fill="#000000" fill-opacity="0.078431" stroke="#000000" stroke-opacity="0.078431" points="290.19,-2308.18 286.69,-2298.18 283.19,-2308.18 290.19,-2308.18"/>
<text text-anchor="middle" x="290.19" y="-2319.8" font-family="Times New Roman,serif" font-size="14.00">1</text>
</g>
<!-- 895219727816705121 -->
<g id="node26" class="node">
<title>895219727816705121</title>
<ellipse fill="none" stroke="black" cx="286.69" cy="-1932" rx="89.88" ry="18"/>
<text text-anchor="middle" x="286.69" y="-1928.3" font-family="Times New Roman,serif" font-size="14.00">895219727816705121</text>
</g>
<!-- 017464834943435282 -->
<g id="node27" class="node">
<title>017464834943435282</title>
<ellipse fill="none" stroke="black" cx="286.69" cy="-1845" rx="89.88" ry="18"/>
<text text-anchor="middle" x="286.69" y="-1841.3" font-family="Times New Roman,serif" font-size="14.00">017464834943435282</text>
</g>
<!-- 895219727816705121&#45;&gt;017464834943435282 -->
<g id="edge25" class="edge">
<title>895219727816705121&#45;&gt;017464834943435282</title>
<path fill="none" stroke="#000000" stroke-opacity="0.078431" d="M286.69,-1913.8C286.69,-1902.16 286.69,-1886.55 286.69,-1873.24"/>
<polygon fill="#000000" fill-opacity="0.078431" stroke="#000000" stroke-opacity="0.078431" points="290.19,-1873.18 286.69,-1863.18 283.19,-1873.18 290.19,-1873.18"/>
<text text-anchor="middle" x="290.19" y="-1884.8" font-family="Times New Roman,serif" font-size="14.00">1</text>
</g>
<!-- 460036467118001401 -->
<g id="node29" class="node">
<title>460036467118001401</title>
<ellipse fill="none" stroke="black" cx="286.69" cy="-1758" rx="89.88" ry="18"/>
<text text-anchor="middle" x="286.69" y="-1754.3" font-family="Times New Roman,serif" font-size="14.00">460036467118001401</text>
</g>
<!-- 017464834943435282&#45;&gt;460036467118001401 -->
<g id="edge26" class="edge">
<title>017464834943435282&#45;&gt;460036467118001401</title>
<path fill="none" stroke="#000000" stroke-opacity="0.078431" d="M286.69,-1826.8C286.69,-1815.16 286.69,-1799.55 286.69,-1786.24"/>
<polygon fill="#000000" fill-opacity="0.078431" stroke="#000000" stroke-opacity="0.078431" points="290.19,-1786.18 286.69,-1776.18 283.19,-1786.18 290.19,-1786.18"/>
<text text-anchor="middle" x="290.19" y="-1797.8" font-family="Times New Roman,serif" font-size="14.00">1</text>
</g>
<!-- 546003646711800140&#45;&gt;895219727816705121 -->
<g id="edge27" class="edge">
<title>546003646711800140&#45;&gt;895219727816705121</title>
<path fill="none" stroke="#000000" stroke-opacity="0.078431" d="M286.69,-2000.8C286.69,-1989.16 286.69,-1973.55 286.69,-1960.24"/>
<polygon fill="#000000" fill-opacity="0.078431" stroke="#000000" stroke-opacity="0.078431" points="290.19,-1960.18 286.69,-1950.18 283.19,-1960.18 290.19,-1960.18"/>
<text text-anchor="middle" x="290.19" y="-1971.8" font-family="Times New Roman,serif" font-size="14.00">1</text>
</g>
<!-- 857659434421595604 -->
<g id="node30" class="node">
<title>857659434421595604</title>
<ellipse fill="none" stroke="black" cx="286.69" cy="-1671" rx="89.88" ry="18"/>
<text text-anchor="middle" x="286.69" y="-1667.3" font-family="Times New Roman,serif" font-size="14.00">857659434421595604</text>
</g>
<!-- 460036467118001401&#45;&gt;857659434421595604 -->
<g id="edge28" class="edge">
<title>460036467118001401&#45;&gt;857659434421595604</title>
<path fill="none" stroke="#000000" stroke-opacity="0.078431" d="M286.69,-1739.8C286.69,-1728.16 286.69,-1712.55 286.69,-1699.24"/>
<polygon fill="#000000" fill-opacity="0.078431" stroke="#000000" stroke-opacity="0.078431" points="290.19,-1699.18 286.69,-1689.18 283.19,-1699.18 290.19,-1699.18"/>
<text text-anchor="middle" x="290.19" y="-1710.8" font-family="Times New Roman,serif" font-size="14.00">1</text>
</g>
<!-- 978585765197292197 -->
<g id="node35" class="node">
<title>978585765197292197</title>
<ellipse fill="none" stroke="black" cx="286.69" cy="-1584" rx="89.88" ry="18"/>
<text text-anchor="middle" x="286.69" y="-1580.3" font-family="Times New Roman,serif" font-size="14.00">978585765197292197</text>
</g>
<!-- 857659434421595604&#45;&gt;978585765197292197 -->
<g id="edge29" class="edge">
<title>857659434421595604&#45;&gt;978585765197292197</title>
<path fill="none" stroke="#000000" stroke-opacity="0.470588" d="M286.69,-1652.8C286.69,-1641.16 286.69,-1625.55 286.69,-1612.24"/>
<polygon fill="#000000" fill-opacity="0.470588" stroke="#000000" stroke-opacity="0.470588" points="290.19,-1612.18 286.69,-1602.18 283.19,-1612.18 290.19,-1612.18"/>
<text text-anchor="middle" x="293.69" y="-1623.8" font-family="Times New Roman,serif" font-size="14.00">34</text>
</g>
<!-- 651288952364672119 -->
<g id="node31" class="node">
<title>651288952364672119</title>
<ellipse fill="none" stroke="black" cx="286.69" cy="-1497" rx="89.88" ry="18"/>
<text text-anchor="middle" x="286.69" y="-1493.3" font-family="Times New Roman,serif" font-size="14.00">651288952364672119</text>
</g>
<!-- 867563561145191991 -->
<g id="node32" class="node">
<title>867563561145191991</title>
<ellipse fill="none" stroke="black" cx="286.69" cy="-1410" rx="89.88" ry="18"/>
<text text-anchor="middle" x="286.69" y="-1406.3" font-family="Times New Roman,serif" font-size="14.00">867563561145191991</text>
</g>
<!-- 651288952364672119&#45;&gt;867563561145191991 -->
<g id="edge30" class="edge">
<title>651288952364672119&#45;&gt;867563561145191991</title>
<path fill="none" stroke="#000000" stroke-opacity="0.078431" d="M286.69,-1478.8C286.69,-1467.16 286.69,-1451.55 286.69,-1438.24"/>
<polygon fill="#000000" fill-opacity="0.078431" stroke="#000000" stroke-opacity="0.078431" points="290.19,-1438.18 286.69,-1428.18 283.19,-1438.18 290.19,-1438.18"/>
<text text-anchor="middle" x="290.19" y="-1449.8" font-family="Times New Roman,serif" font-size="14.00">1</text>
</g>
<!-- 094343508434856118 -->
<g id="node33" class="node">
<title>094343508434856118</title>
<ellipse fill="none" stroke="black" cx="286.69" cy="-1323" rx="89.88" ry="18"/>
<text text-anchor="middle" x="286.69" y="-1319.3" font-family="Times New Roman,serif" font-size="14.00">094343508434856118</text>
</g>
<!-- 867563561145191991&#45;&gt;094343508434856118 -->
<g id="edge31" class="edge">
<title>867563561145191991&#45;&gt;094343508434856118</title>
<path fill="none" stroke="#000000" stroke-opacity="0.078431" d="M286.69,-1391.8C286.69,-1380.16 286.69,-1364.55 286.69,-1351.24"/>
<polygon fill="#000000" fill-opacity="0.078431" stroke="#000000" stroke-opacity="0.078431" points="290.19,-1351.18 286.69,-1341.18 283.19,-1351.18 290.19,-1351.18"/>
<text text-anchor="middle" x="290.19" y="-1362.8" font-family="Times New Roman,serif" font-size="14.00">1</text>
</g>
<!-- 114312889500362496 -->
<g id="node34" class="node">
<title>114312889500362496</title>
<ellipse fill="none" stroke="black" cx="286.69" cy="-1236" rx="89.88" ry="18"/>
<text text-anchor="middle" x="286.69" y="-1232.3" font-family="Times New Roman,serif" font-size="14.00">114312889500362496</text>
</g>
<!-- 094343508434856118&#45;&gt;114312889500362496 -->
<g id="edge32" class="edge">
<title>094343508434856118&#45;&gt;114312889500362496</title>
<path fill="none" stroke="#000000" stroke-opacity="0.078431" d="M286.69,-1304.8C286.69,-1293.16 286.69,-1277.55 286.69,-1264.24"/>
<polygon fill="#000000" fill-opacity="0.078431" stroke="#000000" stroke-opacity="0.078431" points="290.19,-1264.18 286.69,-1254.18 283.19,-1264.18 290.19,-1264.18"/>
<text text-anchor="middle" x="290.19" y="-1275.8" font-family="Times New Roman,serif" font-size="14.00">1</text>
</g>
<!-- 219605796366125275 -->
<g id="node36" class="node">
<title>219605796366125275</title>
<ellipse fill="none" stroke="black" cx="286.69" cy="-1149" rx="89.88" ry="18"/>
<text text-anchor="middle" x="286.69" y="-1145.3" font-family="Times New Roman,serif" font-size="14.00">219605796366125275</text>
</g>
<!-- 114312889500362496&#45;&gt;219605796366125275 -->
<g id="edge33" class="edge">
<title>114312889500362496&#45;&gt;219605796366125275</title>
<path fill="none" stroke="#000000" stroke-opacity="0.078431" d="M286.69,-1217.8C286.69,-1206.16 286.69,-1190.55 286.69,-1177.24"/>
<polygon fill="#000000" fill-opacity="0.078431" stroke="#000000" stroke-opacity="0.078431" points="290.19,-1177.18 286.69,-1167.18 283.19,-1177.18 290.19,-1177.18"/>
<text text-anchor="middle" x="290.19" y="-1188.8" font-family="Times New Roman,serif" font-size="14.00">1</text>
</g>
<!-- 978585765197292197&#45;&gt;651288952364672119 -->
<g id="edge34" class="edge">
<title>978585765197292197&#45;&gt;651288952364672119</title>
<path fill="none" stroke="#000000" stroke-opacity="0.078431" d="M286.69,-1565.8C286.69,-1554.16 286.69,-1538.55 286.69,-1525.24"/>
<polygon fill="#000000" fill-opacity="0.078431" stroke="#000000" stroke-opacity="0.078431" points="290.19,-1525.18 286.69,-1515.18 283.19,-1525.18 290.19,-1525.18"/>
<text text-anchor="middle" x="290.19" y="-1536.8" font-family="Times New Roman,serif" font-size="14.00">1</text>
</g>
<!-- 843534515867511216 -->
<g id="node40" class="node">
<title>843534515867511216</title>
<ellipse fill="none" stroke="black" cx="286.69" cy="-1062" rx="89.88" ry="18"/>
<text text-anchor="middle" x="286.69" y="-1058.3" font-family="Times New Roman,serif" font-size="14.00">843534515867511216</text>
</g>
<!-- 219605796366125275&#45;&gt;843534515867511216 -->
<g id="edge35" class="edge">
<title>219605796366125275&#45;&gt;843534515867511216</title>
<path fill="none" stroke="#000000" stroke-opacity="0.078431" d="M286.69,-1130.8C286.69,-1119.16 286.69,-1103.55 286.69,-1090.24"/>
<polygon fill="#000000" fill-opacity="0.078431" stroke="#000000" stroke-opacity="0.078431" points="290.19,-1090.18 286.69,-1080.18 283.19,-1090.18 290.19,-1090.18"/>
<text text-anchor="middle" x="290.19" y="-1101.8" font-family="Times New Roman,serif" font-size="14.00">1</text>
</g>
<!-- 572785726118576436 -->
<g id="node37" class="node">
<title>572785726118576436</title>
<ellipse fill="none" stroke="black" cx="286.69" cy="-888" rx="89.88" ry="18"/>
<text text-anchor="middle" x="286.69" y="-884.3" font-family="Times New Roman,serif" font-size="14.00">572785726118576436</text>
</g>
<!-- 404215857651216151 -->
<g id="node38" class="node">
<title>404215857651216151</title>
<ellipse fill="none" stroke="black" cx="286.69" cy="-801" rx="89.88" ry="18"/>
<text text-anchor="middle" x="286.69" y="-797.3" font-family="Times New Roman,serif" font-size="14.00">404215857651216151</text>
</g>
<!-- 572785726118576436&#45;&gt;404215857651216151 -->
<g id="edge36" class="edge">
<title>572785726118576436&#45;&gt;404215857651216151</title>
<path fill="none" stroke="#000000" stroke-opacity="0.078431" d="M286.69,-869.8C286.69,-858.16 286.69,-842.55 286.69,-829.24"/>
<polygon fill="#000000" fill-opacity="0.078431" stroke="#000000" stroke-opacity="0.078431" points="290.19,-829.18 286.69,-819.18 283.19,-829.18 290.19,-829.18"/>
<text text-anchor="middle" x="290.19" y="-840.8" font-family="Times New Roman,serif" font-size="14.00">1</text>
</g>
<!-- 843508192159561513 -->
<g id="node41" class="node">
<title>843508192159561513</title>
<ellipse fill="none" stroke="black" cx="286.69" cy="-714" rx="89.88" ry="18"/>
<text text-anchor="middle" x="286.69" y="-710.3" font-family="Times New Roman,serif" font-size="14.00">843508192159561513</text>
</g>
<!-- 404215857651216151&#45;&gt;843508192159561513 -->
<g id="edge37" class="edge">
<title>404215857651216151&#45;&gt;843508192159561513</title>
<path fill="none" stroke="#000000" stroke-opacity="0.078431" d="M286.69,-782.8C286.69,-771.16 286.69,-755.55 286.69,-742.24"/>
<polygon fill="#000000" fill-opacity="0.078431" stroke="#000000" stroke-opacity="0.078431" points="290.19,-742.18 286.69,-732.18 283.19,-742.18 290.19,-742.18"/>
<text text-anchor="middle" x="290.19" y="-753.8" font-family="Times New Roman,serif" font-size="14.00">1</text>
</g>
<!-- 519729219727816705 -->
<g id="node39" class="node">
<title>519729219727816705</title>
<ellipse fill="none" stroke="black" cx="286.69" cy="-975" rx="89.88" ry="18"/>
<text text-anchor="middle" x="286.69" y="-971.3" font-family="Times New Roman,serif" font-size="14.00">519729219727816705</text>
</g>
<!-- 519729219727816705&#45;&gt;572785726118576436 -->
<g id="edge38" class="edge">
<title>519729219727816705&#45;&gt;572785726118576436</title>
<path fill="none" stroke="#000000" stroke-opacity="0.078431" d="M286.69,-956.8C286.69,-945.16 286.69,-929.55 286.69,-916.24"/>
<polygon fill="#000000" fill-opacity="0.078431" stroke="#000000" stroke-opacity="0.078431" points="290.19,-916.18 286.69,-906.18 283.19,-916.18 290.19,-916.18"/>
<text text-anchor="middle" x="290.19" y="-927.8" font-family="Times New Roman,serif" font-size="14.00">1</text>
</g>
<!-- 843534515867511216&#45;&gt;519729219727816705 -->
<g id="edge39" class="edge">
<title>843534515867511216&#45;&gt;519729219727816705</title>
<path fill="none" stroke="#000000" stroke-opacity="0.078431" d="M286.69,-1043.8C286.69,-1032.16 286.69,-1016.55 286.69,-1003.24"/>
<polygon fill="#000000" fill-opacity="0.078431" stroke="#000000" stroke-opacity="0.078431" points="290.19,-1003.18 286.69,-993.18 283.19,-1003.18 290.19,-1003.18"/>
<text text-anchor="middle" x="290.19" y="-1014.8" font-family="Times New Roman,serif" font-size="14.00">1</text>
</g>
<!-- 467252197752364672 -->
<g id="node42" class="node">
<title>467252197752364672</title>
<ellipse fill="none" stroke="black" cx="286.69" cy="-627" rx="89.88" ry="18"/>
<text text-anchor="middle" x="286.69" y="-623.3" font-family="Times New Roman,serif" font-size="14.00">467252197752364672</text>
</g>
<!-- 843508192159561513&#45;&gt;467252197752364672 -->
<g id="edge40" class="edge">
<title>843508192159561513&#45;&gt;467252197752364672</title>
<path fill="none" stroke="#000000" stroke-opacity="0.078431" d="M286.69,-695.8C286.69,-684.16 286.69,-668.55 286.69,-655.24"/>
<polygon fill="#000000" fill-opacity="0.078431" stroke="#000000" stroke-opacity="0.078431" points="290.19,-655.18 286.69,-645.18 283.19,-655.18 290.19,-655.18"/>
<text text-anchor="middle" x="290.19" y="-666.8" font-family="Times New Roman,serif" font-size="14.00">1</text>
</g>
<!-- 974648349472783040 -->
<g id="node43" class="node">
<title>974648349472783040</title>
<ellipse fill="none" stroke="black" cx="286.69" cy="-540" rx="89.88" ry="18"/>
<text text-anchor="middle" x="286.69" y="-536.3" font-family="Times New Roman,serif" font-size="14.00">974648349472783040</text>
</g>
<!-- 467252197752364672&#45;&gt;974648349472783040 -->
<g id="edge41" class="edge">
<title>467252197752364672&#45;&gt;974648349472783040</title>
<path fill="none" stroke="#000000" stroke-opacity="0.078431" d="M286.69,-608.8C286.69,-597.16 286.69,-581.55 286.69,-568.24"/>
<polygon fill="#000000" fill-opacity="0.078431" stroke="#000000" stroke-opacity="0.078431" points="290.19,-568.18 286.69,-558.18 283.19,-568.18 290.19,-568.18"/>
<text text-anchor="middle" x="290.19" y="-579.8" font-family="Times New Roman,serif" font-size="14.00">1</text>
</g>
<!-- 945765599670467261 -->
<g id="node44" class="node">
<title>945765599670467261</title>
<ellipse fill="none" stroke="black" cx="286.69" cy="-453" rx="89.88" ry="18"/>
<text text-anchor="middle" x="286.69" y="-449.3" font-family="Times New Roman,serif" font-size="14.00">945765599670467261</text>
</g>
<!-- 974648349472783040&#45;&gt;945765599670467261 -->
<g id="edge42" class="edge">
<title>974648349472783040&#45;&gt;945765599670467261</title>
<path fill="none" stroke="#000000" stroke-opacity="0.078431" d="M286.69,-521.8C286.69,-510.16 286.69,-494.55 286.69,-481.24"/>
<polygon fill="#000000" fill-opacity="0.078431" stroke="#000000" stroke-opacity="0.078431" points="290.19,-481.18 286.69,-471.18 283.19,-481.18 290.19,-481.18"/>
<text text-anchor="middle" x="290.19" y="-492.8" font-family="Times New Roman,serif" font-size="14.00">1</text>
</g>
<!-- 508434856114572785 -->
<g id="node45" class="node">
<title>508434856114572785</title>
<ellipse fill="none" stroke="black" cx="286.69" cy="-366" rx="89.88" ry="18"/>
<text text-anchor="middle" x="286.69" y="-362.3" font-family="Times New Roman,serif" font-size="14.00">508434856114572785</text>
</g>
<!-- 945765599670467261&#45;&gt;508434856114572785 -->
<g id="edge43" class="edge">
<title>945765599670467261&#45;&gt;508434856114572785</title>
<path fill="none" stroke="#000000" stroke-opacity="0.078431" d="M286.69,-434.8C286.69,-423.16 286.69,-407.55 286.69,-394.24"/>
<polygon fill="#000000" fill-opacity="0.078431" stroke="#000000" stroke-opacity="0.078431" points="290.19,-394.18 286.69,-384.18 283.19,-394.18 290.19,-394.18"/>
<text text-anchor="middle" x="290.19" y="-405.8" font-family="Times New Roman,serif" font-size="14.00">1</text>
</g>
<!-- 015255175191180189 -->
<g id="node46" class="node">
<title>015255175191180189</title>
<ellipse fill="none" stroke="black" cx="286.69" cy="-279" rx="89.88" ry="18"/>
<text text-anchor="middle" x="286.69" y="-275.3" font-family="Times New Roman,serif" font-size="14.00">015255175191180189</text>
</g>
<!-- 508434856114572785&#45;&gt;015255175191180189 -->
<g id="edge44" class="edge">
<title>508434856114572785&#45;&gt;015255175191180189</title>
<path fill="none" stroke="#000000" stroke-opacity="0.078431" d="M286.69,-347.8C286.69,-336.16 286.69,-320.55 286.69,-307.24"/>
<polygon fill="#000000" fill-opacity="0.078431" stroke="#000000" stroke-opacity="0.078431" points="290.19,-307.18 286.69,-297.18 283.19,-307.18 290.19,-307.18"/>
<text text-anchor="middle" x="290.19" y="-318.8" font-family="Times New Roman,serif" font-size="14.00">1</text>
</g>
<!-- 679757714458316013 -->
<g id="node49" class="node">
<title>679757714458316013</title>
<ellipse fill="none" stroke="black" cx="286.69" cy="-192" rx="89.88" ry="18"/>
<text text-anchor="middle" x="286.69" y="-188.3" font-family="Times New Roman,serif" font-size="14.00">679757714458316013</text>
</g>
<!-- 015255175191180189&#45;&gt;679757714458316013 -->
<g id="edge45" class="edge">
<title>015255175191180189&#45;&gt;679757714458316013</title>
<path fill="none" stroke="#000000" stroke-opacity="0.078431" d="M286.69,-260.8C286.69,-249.16 286.69,-233.55 286.69,-220.24"/>
<polygon fill="#000000" fill-opacity="0.078431" stroke="#000000" stroke-opacity="0.078431" points="290.19,-220.18 286.69,-210.18 283.19,-220.18 290.19,-220.18"/>
<text text-anchor="middle" x="290.19" y="-231.8" font-family="Times New Roman,serif" font-size="14.00">1</text>
</g>
<!-- 464726114514519485 -->
<g id="node47" class="node">
<title>464726114514519485</title>
<ellipse fill="none" stroke="black" cx="286.69" cy="-105" rx="89.88" ry="18"/>
<text text-anchor="middle" x="286.69" y="-101.3" font-family="Times New Roman,serif" font-size="14.00">464726114514519485</text>
</g>
<!-- 781670512164800658 -->
<g id="node48" class="node">
<title>781670512164800658</title>
<ellipse fill="none" stroke="black" cx="286.69" cy="-18" rx="89.88" ry="18"/>
<text text-anchor="middle" x="286.69" y="-14.3" font-family="Times New Roman,serif" font-size="14.00">781670512164800658</text>
</g>
<!-- 464726114514519485&#45;&gt;781670512164800658 -->
<g id="edge46" class="edge">
<title>464726114514519485&#45;&gt;781670512164800658</title>
<path fill="none" stroke="#000000" stroke-opacity="0.078431" d="M286.69,-86.8C286.69,-75.16 286.69,-59.55 286.69,-46.24"/>
<polygon fill="#000000" fill-opacity="0.078431" stroke="#000000" stroke-opacity="0.078431" points="290.19,-46.18 286.69,-36.18 283.19,-46.18 290.19,-46.18"/>
<text text-anchor="middle" x="290.19" y="-57.8" font-family="Times New Roman,serif" font-size="14.00">1</text>
</g>
<!-- 679757714458316013&#45;&gt;464726114514519485 -->
<g id="edge47" class="edge">
<title>679757714458316013&#45;&gt;464726114514519485</title>
<path fill="none" stroke="#000000" stroke-opacity="0.078431" d="M286.69,-173.8C286.69,-162.16 286.69,-146.55 286.69,-133.24"/>
<polygon fill="#000000" fill-opacity="0.078431" stroke="#000000" stroke-opacity="0.078431" points="290.19,-133.18 286.69,-123.18 283.19,-133.18 290.19,-133.18"/>
<text text-anchor="middle" x="290.19" y="-144.8" font-family="Times New Roman,serif" font-size="14.00">1</text>
</g>
<!-- 857744545190450421 -->
<g id="node50" class="node">
<title>857744545190450421</title>
<ellipse fill="none" stroke="black" cx="483.69" cy="-3933" rx="89.88" ry="18"/>
<text text-anchor="middle" x="483.69" y="-3929.3" font-family="Times New Roman,serif" font-size="14.00">857744545190450421</text>
</g>
</g>
</svg>
