<?xml version="1.0" encoding="UTF-8" standalone="no"?>
<!DOCTYPE svg PUBLIC "-//W3C//DTD SVG 1.1//EN"
 "http://www.w3.org/Graphics/SVG/1.1/DTD/svg11.dtd">
<!-- Generated by graphviz version 3.0.0 (20220226.1711)
 -->
<!-- Pages: 1 -->
<svg width="4303pt" height="1001pt"
 viewBox="0.00 0.00 4303.38 1001.00" xmlns="http://www.w3.org/2000/svg" xmlns:xlink="http://www.w3.org/1999/xlink">
<g id="graph0" class="graph" transform="scale(1 1) rotate(0) translate(4 997)">
<polygon fill="white" stroke="transparent" points="-4,4 -4,-997 4299.38,-997 4299.38,4 -4,4"/>
<!-- 867563561145191991 -->
<g id="node1" class="node">
<title>867563561145191991</title>
<ellipse fill="none" stroke="black" cx="522.69" cy="-105" rx="89.88" ry="18"/>
<text text-anchor="middle" x="522.69" y="-101.3" font-family="Times New Roman,serif" font-size="14.00">867563561145191991</text>
</g>
<!-- 952196180031145727 -->
<g id="node35" class="node">
<title>952196180031145727</title>
<ellipse fill="none" stroke="black" cx="581.69" cy="-18" rx="89.88" ry="18"/>
<text text-anchor="middle" x="581.69" y="-14.3" font-family="Times New Roman,serif" font-size="14.00">952196180031145727</text>
</g>
<!-- 867563561145191991&#45;&gt;952196180031145727 -->
<g id="edge1" class="edge">
<title>867563561145191991&#45;&gt;952196180031145727</title>
<path fill="none" stroke="#000000" stroke-opacity="0.627451" d="M534.63,-86.8C543.08,-74.62 554.56,-58.09 564.06,-44.4"/>
<polygon fill="#000000" fill-opacity="0.627451" stroke="#000000" stroke-opacity="0.627451" points="567.14,-46.1 569.97,-35.89 561.39,-42.1 567.14,-46.1"/>
<text text-anchor="middle" x="567.19" y="-57.8" font-family="Times New Roman,serif" font-size="14.00">110</text>
</g>
<!-- 781670512164800658 -->
<g id="node2" class="node">
<title>781670512164800658</title>
<ellipse fill="none" stroke="black" cx="942.69" cy="-888" rx="89.88" ry="18"/>
<text text-anchor="middle" x="942.69" y="-884.3" font-family="Times New Roman,serif" font-size="14.00">781670512164800658</text>
</g>
<!-- 211911800357576546 -->
<g id="node34" class="node">
<title>211911800357576546</title>
<ellipse fill="none" stroke="black" cx="942.69" cy="-801" rx="89.88" ry="18"/>
<text text-anchor="middle" x="942.69" y="-797.3" font-family="Times New Roman,serif" font-size="14.00">211911800357576546</text>
</g>
<!-- 781670512164800658&#45;&gt;211911800357576546 -->
<g id="edge2" class="edge">
<title>781670512164800658&#45;&gt;211911800357576546</title>
<path fill="none" stroke="#000000" stroke-opacity="0.258824" d="M942.69,-869.8C942.69,-858.16 942.69,-842.55 942.69,-829.24"/>
<polygon fill="#000000" fill-opacity="0.258824" stroke="#000000" stroke-opacity="0.258824" points="946.19,-829.18 942.69,-819.18 939.19,-829.18 946.19,-829.18"/>
<text text-anchor="middle" x="949.69" y="-840.8" font-family="Times New Roman,serif" font-size="14.00">19</text>
</g>
<!-- 945765599670467261 -->
<g id="node3" class="node">
<title>945765599670467261</title>
<ellipse fill="none" stroke="black" cx="1116.69" cy="-975" rx="89.88" ry="18"/>
<text text-anchor="middle" x="1116.69" y="-971.3" font-family="Times New Roman,serif" font-size="14.00">945765599670467261</text>
</g>
<!-- 275857651972788943 -->
<g id="node4" class="node">
<title>275857651972788943</title>
<ellipse fill="none" stroke="black" cx="858.69" cy="-540" rx="89.88" ry="18"/>
<text text-anchor="middle" x="858.69" y="-536.3" font-family="Times New Roman,serif" font-size="14.00">275857651972788943</text>
</g>
<!-- 585765197278894388 -->
<g id="node8" class="node">
<title>585765197278894388</title>
<ellipse fill="none" stroke="black" cx="1194.69" cy="-453" rx="89.88" ry="18"/>
<text text-anchor="middle" x="1194.69" y="-449.3" font-family="Times New Roman,serif" font-size="14.00">585765197278894388</text>
</g>
<!-- 275857651972788943&#45;&gt;585765197278894388 -->
<g id="edge3" class="edge">
<title>275857651972788943&#45;&gt;585765197278894388</title>
<path fill="none" stroke="#000000" stroke-opacity="0.984314" d="M900.67,-524.06C931.85,-513.32 975.57,-499.03 1014.69,-489 1034.63,-483.88 1080.37,-475 1120.75,-467.47"/>
<polygon fill="#000000" fill-opacity="0.984314" stroke="#000000" stroke-opacity="0.984314" points="1121.42,-470.9 1130.61,-465.64 1120.14,-464.02 1121.42,-470.9"/>
<text text-anchor="middle" x="1025.19" y="-492.8" font-family="Times New Roman,serif" font-size="14.00">271</text>
</g>
<!-- 042159561513534780 -->
<g id="node9" class="node">
<title>042159561513534780</title>
<ellipse fill="none" stroke="black" cx="391.69" cy="-279" rx="89.88" ry="18"/>
<text text-anchor="middle" x="391.69" y="-275.3" font-family="Times New Roman,serif" font-size="14.00">042159561513534780</text>
</g>
<!-- 275857651972788943&#45;&gt;042159561513534780 -->
<g id="edge4" class="edge">
<title>275857651972788943&#45;&gt;042159561513534780</title>
<path fill="none" stroke="#000000" stroke-opacity="0.525490" d="M800.76,-526.23C767.76,-516.24 727.89,-499.17 701.69,-471 662.25,-428.6 701.38,-387.13 658.69,-348 631.51,-323.08 540.24,-303.52 471.92,-291.89"/>
<polygon fill="#000000" fill-opacity="0.525490" stroke="#000000" stroke-opacity="0.525490" points="472.46,-288.43 462.02,-290.23 471.3,-295.34 472.46,-288.43"/>
<text text-anchor="middle" x="688.69" y="-405.8" font-family="Times New Roman,serif" font-size="14.00">78</text>
</g>
<!-- 451904504215956151 -->
<g id="node26" class="node">
<title>451904504215956151</title>
<ellipse fill="none" stroke="black" cx="325.69" cy="-453" rx="89.88" ry="18"/>
<text text-anchor="middle" x="325.69" y="-449.3" font-family="Times New Roman,serif" font-size="14.00">451904504215956151</text>
</g>
<!-- 275857651972788943&#45;&gt;451904504215956151 -->
<g id="edge5" class="edge">
<title>275857651972788943&#45;&gt;451904504215956151</title>
<path fill="none" stroke="#000000" stroke-opacity="0.549020" d="M789.32,-528.52C703.42,-515.46 552.66,-492.26 423.69,-471 416.29,-469.78 408.57,-468.48 400.87,-467.17"/>
<polygon fill="#000000" fill-opacity="0.549020" stroke="#000000" stroke-opacity="0.549020" points="401.22,-463.68 390.77,-465.45 400.04,-470.58 401.22,-463.68"/>
<text text-anchor="middle" x="633.69" y="-492.8" font-family="Times New Roman,serif" font-size="14.00">85</text>
</g>
<!-- 519118651281911800 -->
<g id="node28" class="node">
<title>519118651281911800</title>
<ellipse fill="none" stroke="black" cx="997.69" cy="-453" rx="89.88" ry="18"/>
<text text-anchor="middle" x="997.69" y="-449.3" font-family="Times New Roman,serif" font-size="14.00">519118651281911800</text>
</g>
<!-- 275857651972788943&#45;&gt;519118651281911800 -->
<g id="edge6" class="edge">
<title>275857651972788943&#45;&gt;519118651281911800</title>
<path fill="none" stroke="#000000" stroke-opacity="0.321569" d="M885.49,-522.61C907.32,-509.26 938.32,-490.31 962.2,-475.7"/>
<polygon fill="#000000" fill-opacity="0.321569" stroke="#000000" stroke-opacity="0.321569" points="964.27,-478.54 970.97,-470.34 960.62,-472.57 964.27,-478.54"/>
<text text-anchor="middle" x="943.69" y="-492.8" font-family="Times New Roman,serif" font-size="14.00">29</text>
</g>
<!-- 857744545190450421 -->
<g id="node31" class="node">
<title>857744545190450421</title>
<ellipse fill="none" stroke="black" cx="800.69" cy="-453" rx="89.88" ry="18"/>
<text text-anchor="middle" x="800.69" y="-449.3" font-family="Times New Roman,serif" font-size="14.00">857744545190450421</text>
</g>
<!-- 275857651972788943&#45;&gt;857744545190450421 -->
<g id="edge7" class="edge">
<title>275857651972788943&#45;&gt;857744545190450421</title>
<path fill="none" stroke="#000000" stroke-opacity="0.572549" d="M846.95,-521.8C838.65,-509.62 827.36,-493.09 818.02,-479.4"/>
<polygon fill="#000000" fill-opacity="0.572549" stroke="#000000" stroke-opacity="0.572549" points="820.74,-477.17 812.21,-470.89 814.96,-481.12 820.74,-477.17"/>
<text text-anchor="middle" x="840.69" y="-492.8" font-family="Times New Roman,serif" font-size="14.00">92</text>
</g>
<!-- 304648435345158604 -->
<g id="node5" class="node">
<title>304648435345158604</title>
<ellipse fill="none" stroke="black" cx="1332.69" cy="-975" rx="89.88" ry="18"/>
<text text-anchor="middle" x="1332.69" y="-971.3" font-family="Times New Roman,serif" font-size="14.00">304648435345158604</text>
</g>
<!-- 843534515867511216 -->
<g id="node6" class="node">
<title>843534515867511216</title>
<ellipse fill="none" stroke="black" cx="1539.69" cy="-975" rx="89.88" ry="18"/>
<text text-anchor="middle" x="1539.69" y="-971.3" font-family="Times New Roman,serif" font-size="14.00">843534515867511216</text>
</g>
<!-- 464726114514519485 -->
<g id="node7" class="node">
<title>464726114514519485</title>
<ellipse fill="none" stroke="black" cx="1119.69" cy="-366" rx="89.88" ry="18"/>
<text text-anchor="middle" x="1119.69" y="-362.3" font-family="Times New Roman,serif" font-size="14.00">464726114514519485</text>
</g>
<!-- 952199118435081243 -->
<g id="node48" class="node">
<title>952199118435081243</title>
<ellipse fill="none" stroke="black" cx="1028.69" cy="-279" rx="89.88" ry="18"/>
<text text-anchor="middle" x="1028.69" y="-275.3" font-family="Times New Roman,serif" font-size="14.00">952199118435081243</text>
</g>
<!-- 464726114514519485&#45;&gt;952199118435081243 -->
<g id="edge8" class="edge">
<title>464726114514519485&#45;&gt;952199118435081243</title>
<path fill="none" stroke="#000000" stroke-opacity="0.521569" d="M1101.71,-348.21C1088.13,-335.52 1069.3,-317.93 1054.16,-303.79"/>
<polygon fill="#000000" fill-opacity="0.521569" stroke="#000000" stroke-opacity="0.521569" points="1056.33,-301.03 1046.63,-296.76 1051.55,-306.14 1056.33,-301.03"/>
<text text-anchor="middle" x="1086.69" y="-318.8" font-family="Times New Roman,serif" font-size="14.00">76</text>
</g>
<!-- 042159561513534780&#45;&gt;867563561145191991 -->
<g id="edge9" class="edge">
<title>042159561513534780&#45;&gt;867563561145191991</title>
<path fill="none" stroke="#000000" stroke-opacity="0.376471" d="M404.73,-260.88C427.88,-230.49 476.26,-166.97 503.31,-131.44"/>
<polygon fill="#000000" fill-opacity="0.376471" stroke="#000000" stroke-opacity="0.376471" points="506.43,-133.13 509.71,-123.05 500.86,-128.89 506.43,-133.13"/>
<text text-anchor="middle" x="477.69" y="-188.3" font-family="Times New Roman,serif" font-size="14.00">40</text>
</g>
<!-- 628477090889524348 -->
<g id="node50" class="node">
<title>628477090889524348</title>
<ellipse fill="none" stroke="black" cx="271.69" cy="-192" rx="89.88" ry="18"/>
<text text-anchor="middle" x="271.69" y="-188.3" font-family="Times New Roman,serif" font-size="14.00">628477090889524348</text>
</g>
<!-- 042159561513534780&#45;&gt;628477090889524348 -->
<g id="edge10" class="edge">
<title>042159561513534780&#45;&gt;628477090889524348</title>
<path fill="none" stroke="#000000" stroke-opacity="0.501961" d="M368.27,-261.41C349.77,-248.3 323.76,-229.88 303.4,-215.46"/>
<polygon fill="#000000" fill-opacity="0.501961" stroke="#000000" stroke-opacity="0.501961" points="305.24,-212.47 295.06,-209.55 301.19,-218.19 305.24,-212.47"/>
<text text-anchor="middle" x="346.69" y="-231.8" font-family="Times New Roman,serif" font-size="14.00">71</text>
</g>
<!-- 180036468895219911 -->
<g id="node10" class="node">
<title>180036468895219911</title>
<ellipse fill="none" stroke="black" cx="1627.69" cy="-366" rx="89.88" ry="18"/>
<text text-anchor="middle" x="1627.69" y="-362.3" font-family="Times New Roman,serif" font-size="14.00">180036468895219911</text>
</g>
<!-- 236467211911800357 -->
<g id="node29" class="node">
<title>236467211911800357</title>
<ellipse fill="none" stroke="black" cx="1795.69" cy="-279" rx="89.88" ry="18"/>
<text text-anchor="middle" x="1795.69" y="-275.3" font-family="Times New Roman,serif" font-size="14.00">236467211911800357</text>
</g>
<!-- 180036468895219911&#45;&gt;236467211911800357 -->
<g id="edge11" class="edge">
<title>180036468895219911&#45;&gt;236467211911800357</title>
<path fill="none" stroke="#000000" stroke-opacity="0.631373" d="M1659.29,-349.01C1686.39,-335.3 1725.61,-315.46 1755.05,-300.56"/>
<polygon fill="#000000" fill-opacity="0.631373" stroke="#000000" stroke-opacity="0.631373" points="1756.89,-303.55 1764.23,-295.92 1753.73,-297.31 1756.89,-303.55"/>
<text text-anchor="middle" x="1733.19" y="-318.8" font-family="Times New Roman,serif" font-size="14.00">112</text>
</g>
<!-- 783020311806571918 -->
<g id="node11" class="node">
<title>783020311806571918</title>
<ellipse fill="none" stroke="black" cx="1836.69" cy="-975" rx="89.88" ry="18"/>
<text text-anchor="middle" x="1836.69" y="-971.3" font-family="Times New Roman,serif" font-size="14.00">783020311806571918</text>
</g>
<!-- 727894315191185191 -->
<g id="node12" class="node">
<title>727894315191185191</title>
<ellipse fill="none" stroke="black" cx="1951.69" cy="-888" rx="89.88" ry="18"/>
<text text-anchor="middle" x="1951.69" y="-884.3" font-family="Times New Roman,serif" font-size="14.00">727894315191185191</text>
</g>
<!-- 383435081243485611 -->
<g id="node13" class="node">
<title>383435081243485611</title>
<ellipse fill="none" stroke="black" cx="2014.69" cy="-801" rx="89.88" ry="18"/>
<text text-anchor="middle" x="2014.69" y="-797.3" font-family="Times New Roman,serif" font-size="14.00">383435081243485611</text>
</g>
<!-- 727894315191185191&#45;&gt;383435081243485611 -->
<g id="edge12" class="edge">
<title>727894315191185191&#45;&gt;383435081243485611</title>
<path fill="none" stroke="#000000" stroke-opacity="0.615686" d="M1964.44,-869.8C1973.55,-857.51 1985.95,-840.77 1996.16,-827.01"/>
<polygon fill="#000000" fill-opacity="0.615686" stroke="#000000" stroke-opacity="0.615686" points="1999.03,-829 2002.18,-818.89 1993.41,-824.84 1999.03,-829"/>
<text text-anchor="middle" x="1998.19" y="-840.8" font-family="Times New Roman,serif" font-size="14.00">106</text>
</g>
<!-- 781670574770909612 -->
<g id="node14" class="node">
<title>781670574770909612</title>
<ellipse fill="none" stroke="black" cx="2235.69" cy="-975" rx="89.88" ry="18"/>
<text text-anchor="middle" x="2235.69" y="-971.3" font-family="Times New Roman,serif" font-size="14.00">781670574770909612</text>
</g>
<!-- 978585765197292197 -->
<g id="node15" class="node">
<title>978585765197292197</title>
<ellipse fill="none" stroke="black" cx="89.69" cy="-453" rx="89.88" ry="18"/>
<text text-anchor="middle" x="89.69" y="-449.3" font-family="Times New Roman,serif" font-size="14.00">978585765197292197</text>
</g>
<!-- 978585765197292197&#45;&gt;628477090889524348 -->
<g id="edge13" class="edge">
<title>978585765197292197&#45;&gt;628477090889524348</title>
<path fill="none" stroke="#000000" stroke-opacity="0.341176" d="M101.63,-435.01C132.81,-390.64 216.78,-271.14 253.78,-218.49"/>
<polygon fill="#000000" fill-opacity="0.341176" stroke="#000000" stroke-opacity="0.341176" points="256.82,-220.25 259.71,-210.06 251.09,-216.23 256.82,-220.25"/>
<text text-anchor="middle" x="192.69" y="-318.8" font-family="Times New Roman,serif" font-size="14.00">33</text>
</g>
<!-- 756356114519199118 -->
<g id="node16" class="node">
<title>756356114519199118</title>
<ellipse fill="none" stroke="black" cx="420.69" cy="-366" rx="89.88" ry="18"/>
<text text-anchor="middle" x="420.69" y="-362.3" font-family="Times New Roman,serif" font-size="14.00">756356114519199118</text>
</g>
<!-- 756356114519199118&#45;&gt;042159561513534780 -->
<g id="edge14" class="edge">
<title>756356114519199118&#45;&gt;042159561513534780</title>
<path fill="none" stroke="#000000" stroke-opacity="0.368627" d="M414.82,-347.8C410.81,-336.05 405.42,-320.24 400.85,-306.84"/>
<polygon fill="#000000" fill-opacity="0.368627" stroke="#000000" stroke-opacity="0.368627" points="404.09,-305.51 397.55,-297.18 397.47,-307.77 404.09,-305.51"/>
<text text-anchor="middle" x="415.69" y="-318.8" font-family="Times New Roman,serif" font-size="14.00">38</text>
</g>
<!-- 756356114519199118&#45;&gt;451904504215956151 -->
<g id="edge15" class="edge">
<title>756356114519199118&#45;&gt;451904504215956151</title>
<path fill="none" stroke="#000000" stroke-opacity="0.400000" d="M389.94,-383.04C380.99,-388.43 371.53,-394.91 363.69,-402 355.77,-409.17 348.35,-418.17 342.2,-426.56"/>
<polygon fill="#000000" fill-opacity="0.400000" stroke="#000000" stroke-opacity="0.400000" points="339.18,-424.78 336.29,-434.97 344.91,-428.8 339.18,-424.78"/>
<text text-anchor="middle" x="370.69" y="-405.8" font-family="Times New Roman,serif" font-size="14.00">45</text>
</g>
<!-- 017464834943435282 -->
<g id="node17" class="node">
<title>017464834943435282</title>
<ellipse fill="none" stroke="black" cx="2432.69" cy="-975" rx="89.88" ry="18"/>
<text text-anchor="middle" x="2432.69" y="-971.3" font-family="Times New Roman,serif" font-size="14.00">017464834943435282</text>
</g>
<!-- 435282177830457651 -->
<g id="node40" class="node">
<title>435282177830457651</title>
<ellipse fill="none" stroke="black" cx="2432.69" cy="-888" rx="89.88" ry="18"/>
<text text-anchor="middle" x="2432.69" y="-884.3" font-family="Times New Roman,serif" font-size="14.00">435282177830457651</text>
</g>
<!-- 017464834943435282&#45;&gt;435282177830457651 -->
<g id="edge16" class="edge">
<title>017464834943435282&#45;&gt;435282177830457651</title>
<path fill="none" stroke="#000000" stroke-opacity="0.427451" d="M2432.69,-956.8C2432.69,-945.16 2432.69,-929.55 2432.69,-916.24"/>
<polygon fill="#000000" fill-opacity="0.427451" stroke="#000000" stroke-opacity="0.427451" points="2436.19,-916.18 2432.69,-906.18 2429.19,-916.18 2436.19,-916.18"/>
<text text-anchor="middle" x="2439.69" y="-927.8" font-family="Times New Roman,serif" font-size="14.00">51</text>
</g>
<!-- 508434856114572785 -->
<g id="node18" class="node">
<title>508434856114572785</title>
<ellipse fill="none" stroke="black" cx="1706.69" cy="-540" rx="89.88" ry="18"/>
<text text-anchor="middle" x="1706.69" y="-536.3" font-family="Times New Roman,serif" font-size="14.00">508434856114572785</text>
</g>
<!-- 508434856114572785&#45;&gt;180036468895219911 -->
<g id="edge17" class="edge">
<title>508434856114572785&#45;&gt;180036468895219911</title>
<path fill="none" stroke="#000000" stroke-opacity="0.454902" d="M1716.5,-521.8C1727.33,-500.31 1741.42,-462.99 1726.69,-435 1715.62,-413.96 1694.77,-398.17 1675.04,-387.13"/>
<polygon fill="#000000" fill-opacity="0.454902" stroke="#000000" stroke-opacity="0.454902" points="1676.58,-383.98 1666.1,-382.39 1673.3,-390.17 1676.58,-383.98"/>
<text text-anchor="middle" x="1740.69" y="-449.3" font-family="Times New Roman,serif" font-size="14.00">58</text>
</g>
<!-- 508434856114572785&#45;&gt;236467211911800357 -->
<g id="edge18" class="edge">
<title>508434856114572785&#45;&gt;236467211911800357</title>
<path fill="none" stroke="#000000" stroke-opacity="0.321569" d="M1726.74,-522.3C1732.21,-516.93 1737.72,-510.63 1741.69,-504 1779.79,-440.42 1791.03,-351.52 1794.33,-307.27"/>
<polygon fill="#000000" fill-opacity="0.321569" stroke="#000000" stroke-opacity="0.321569" points="1797.84,-307.23 1795.01,-297.02 1790.85,-306.77 1797.84,-307.23"/>
<text text-anchor="middle" x="1787.69" y="-405.8" font-family="Times New Roman,serif" font-size="14.00">29</text>
</g>
<!-- 651288952364672119 -->
<g id="node42" class="node">
<title>651288952364672119</title>
<ellipse fill="none" stroke="black" cx="1627.69" cy="-453" rx="89.88" ry="18"/>
<text text-anchor="middle" x="1627.69" y="-449.3" font-family="Times New Roman,serif" font-size="14.00">651288952364672119</text>
</g>
<!-- 508434856114572785&#45;&gt;651288952364672119 -->
<g id="edge19" class="edge">
<title>508434856114572785&#45;&gt;651288952364672119</title>
<path fill="none" stroke="#000000" stroke-opacity="0.360784" d="M1691.08,-522.21C1679.4,-509.63 1663.24,-492.25 1650.17,-478.18"/>
<polygon fill="#000000" fill-opacity="0.360784" stroke="#000000" stroke-opacity="0.360784" points="1652.64,-475.7 1643.27,-470.76 1647.51,-480.47 1652.64,-475.7"/>
<text text-anchor="middle" x="1679.69" y="-492.8" font-family="Times New Roman,serif" font-size="14.00">37</text>
</g>
<!-- 219605796366125275 -->
<g id="node19" class="node">
<title>219605796366125275</title>
<ellipse fill="none" stroke="black" cx="2629.69" cy="-975" rx="89.88" ry="18"/>
<text text-anchor="middle" x="2629.69" y="-971.3" font-family="Times New Roman,serif" font-size="14.00">219605796366125275</text>
</g>
<!-- 572785726118576436 -->
<g id="node20" class="node">
<title>572785726118576436</title>
<ellipse fill="none" stroke="black" cx="1706.69" cy="-627" rx="89.88" ry="18"/>
<text text-anchor="middle" x="1706.69" y="-623.3" font-family="Times New Roman,serif" font-size="14.00">572785726118576436</text>
</g>
<!-- 572785726118576436&#45;&gt;508434856114572785 -->
<g id="edge20" class="edge">
<title>572785726118576436&#45;&gt;508434856114572785</title>
<path fill="none" stroke="#000000" stroke-opacity="0.203922" d="M1706.69,-608.8C1706.69,-597.16 1706.69,-581.55 1706.69,-568.24"/>
<polygon fill="#000000" fill-opacity="0.203922" stroke="#000000" stroke-opacity="0.203922" points="1710.19,-568.18 1706.69,-558.18 1703.19,-568.18 1710.19,-568.18"/>
<text text-anchor="middle" x="1713.69" y="-579.8" font-family="Times New Roman,serif" font-size="14.00">12</text>
</g>
<!-- 404215857651216151 -->
<g id="node21" class="node">
<title>404215857651216151</title>
<ellipse fill="none" stroke="black" cx="1509.69" cy="-627" rx="89.88" ry="18"/>
<text text-anchor="middle" x="1509.69" y="-623.3" font-family="Times New Roman,serif" font-size="14.00">404215857651216151</text>
</g>
<!-- 404215857651216151&#45;&gt;180036468895219911 -->
<g id="edge21" class="edge">
<title>404215857651216151&#45;&gt;180036468895219911</title>
<path fill="none" stroke="#000000" stroke-opacity="0.301961" d="M1506.89,-608.98C1502,-573.73 1495.36,-491.36 1528.69,-435 1540.93,-414.3 1562.24,-398.45 1581.96,-387.28"/>
<polygon fill="#000000" fill-opacity="0.301961" stroke="#000000" stroke-opacity="0.301961" points="1583.73,-390.3 1590.87,-382.48 1580.4,-384.14 1583.73,-390.3"/>
<text text-anchor="middle" x="1515.69" y="-492.8" font-family="Times New Roman,serif" font-size="14.00">26</text>
</g>
<!-- 404215857651216151&#45;&gt;508434856114572785 -->
<g id="edge22" class="edge">
<title>404215857651216151&#45;&gt;508434856114572785</title>
<path fill="none" stroke="#000000" stroke-opacity="0.717647" d="M1545.82,-610.41C1578.21,-596.43 1625.89,-575.87 1660.93,-560.75"/>
<polygon fill="#000000" fill-opacity="0.717647" stroke="#000000" stroke-opacity="0.717647" points="1662.66,-563.81 1670.46,-556.64 1659.89,-557.38 1662.66,-563.81"/>
<text text-anchor="middle" x="1631.19" y="-579.8" font-family="Times New Roman,serif" font-size="14.00">144</text>
</g>
<!-- 114312889500362496 -->
<g id="node22" class="node">
<title>114312889500362496</title>
<ellipse fill="none" stroke="black" cx="694.69" cy="-888" rx="89.88" ry="18"/>
<text text-anchor="middle" x="694.69" y="-884.3" font-family="Times New Roman,serif" font-size="14.00">114312889500362496</text>
</g>
<!-- 965855064996704672 -->
<g id="node49" class="node">
<title>965855064996704672</title>
<ellipse fill="none" stroke="black" cx="694.69" cy="-801" rx="89.88" ry="18"/>
<text text-anchor="middle" x="694.69" y="-797.3" font-family="Times New Roman,serif" font-size="14.00">965855064996704672</text>
</g>
<!-- 114312889500362496&#45;&gt;965855064996704672 -->
<g id="edge23" class="edge">
<title>114312889500362496&#45;&gt;965855064996704672</title>
<path fill="none" stroke="#000000" stroke-opacity="0.666667" d="M694.69,-869.8C694.69,-858.16 694.69,-842.55 694.69,-829.24"/>
<polygon fill="#000000" fill-opacity="0.666667" stroke="#000000" stroke-opacity="0.666667" points="698.19,-829.18 694.69,-819.18 691.19,-829.18 698.19,-829.18"/>
<text text-anchor="middle" x="705.19" y="-840.8" font-family="Times New Roman,serif" font-size="14.00">125</text>
</g>
<!-- 094343508434856118 -->
<g id="node23" class="node">
<title>094343508434856118</title>
<ellipse fill="none" stroke="black" cx="2826.69" cy="-975" rx="89.88" ry="18"/>
<text text-anchor="middle" x="2826.69" y="-971.3" font-family="Times New Roman,serif" font-size="14.00">094343508434856118</text>
</g>
<!-- 534527446190830457 -->
<g id="node24" class="node">
<title>534527446190830457</title>
<ellipse fill="none" stroke="black" cx="522.69" cy="-453" rx="89.88" ry="18"/>
<text text-anchor="middle" x="522.69" y="-449.3" font-family="Times New Roman,serif" font-size="14.00">534527446190830457</text>
</g>
<!-- 534527446190830457&#45;&gt;867563561145191991 -->
<g id="edge24" class="edge">
<title>534527446190830457&#45;&gt;867563561145191991</title>
<path fill="none" stroke="#000000" stroke-opacity="0.231373" d="M546.52,-435.37C565.42,-420.04 588.69,-395.4 588.69,-367 588.69,-367 588.69,-367 588.69,-191 588.69,-166.37 571.19,-144.57 554.22,-129.22"/>
<polygon fill="#000000" fill-opacity="0.231373" stroke="#000000" stroke-opacity="0.231373" points="556.39,-126.47 546.52,-122.63 551.84,-131.79 556.39,-126.47"/>
<text text-anchor="middle" x="595.69" y="-275.3" font-family="Times New Roman,serif" font-size="14.00">15</text>
</g>
<!-- 534527446190830457&#45;&gt;756356114519199118 -->
<g id="edge25" class="edge">
<title>534527446190830457&#45;&gt;756356114519199118</title>
<path fill="none" stroke="#000000" stroke-opacity="0.215686" d="M502.54,-435.21C487.17,-422.4 465.82,-404.61 448.78,-390.4"/>
<polygon fill="#000000" fill-opacity="0.215686" stroke="#000000" stroke-opacity="0.215686" points="450.72,-387.47 440.8,-383.76 446.24,-392.85 450.72,-387.47"/>
<text text-anchor="middle" x="485.69" y="-405.8" font-family="Times New Roman,serif" font-size="14.00">13</text>
</g>
<!-- 467252197752364672 -->
<g id="node25" class="node">
<title>467252197752364672</title>
<ellipse fill="none" stroke="black" cx="3023.69" cy="-975" rx="89.88" ry="18"/>
<text text-anchor="middle" x="3023.69" y="-971.3" font-family="Times New Roman,serif" font-size="14.00">467252197752364672</text>
</g>
<!-- 451904504215956151&#45;&gt;867563561145191991 -->
<g id="edge26" class="edge">
<title>451904504215956151&#45;&gt;867563561145191991</title>
<path fill="none" stroke="#000000" stroke-opacity="0.368627" d="M391.72,-440.63C435.85,-432.67 487.45,-422.5 496.69,-417 521.63,-402.15 538.69,-396.02 538.69,-367 538.69,-367 538.69,-367 538.69,-191 538.69,-171.41 534.54,-149.72 530.46,-133.15"/>
<polygon fill="#000000" fill-opacity="0.368627" stroke="#000000" stroke-opacity="0.368627" points="533.75,-131.88 527.84,-123.08 526.97,-133.64 533.75,-131.88"/>
<text text-anchor="middle" x="545.69" y="-275.3" font-family="Times New Roman,serif" font-size="14.00">38</text>
</g>
<!-- 451904504215956151&#45;&gt;042159561513534780 -->
<g id="edge27" class="edge">
<title>451904504215956151&#45;&gt;042159561513534780</title>
<path fill="none" stroke="#000000" d="M314.76,-434.98C302.59,-413.69 286.38,-376.56 300.69,-348 310.79,-327.85 330.01,-312.13 348.2,-300.91"/>
<polygon fill="#000000" stroke="#000000" points="350.13,-303.84 357,-295.77 346.6,-297.8 350.13,-303.84"/>
<text text-anchor="middle" x="311.19" y="-362.3" font-family="Times New Roman,serif" font-size="14.00">279</text>
</g>
<!-- 451904504215956151&#45;&gt;756356114519199118 -->
<g id="edge28" class="edge">
<title>451904504215956151&#45;&gt;756356114519199118</title>
<path fill="none" stroke="#000000" stroke-opacity="0.356863" d="M352.89,-435.68C361.2,-430.18 370.13,-423.72 377.69,-417 386.04,-409.59 394.26,-400.57 401.25,-392.24"/>
<polygon fill="#000000" fill-opacity="0.356863" stroke="#000000" stroke-opacity="0.356863" points="404.17,-394.19 407.78,-384.23 398.75,-389.77 404.17,-394.19"/>
<text text-anchor="middle" x="399.69" y="-405.8" font-family="Times New Roman,serif" font-size="14.00">36</text>
</g>
<!-- 451904504215956151&#45;&gt;628477090889524348 -->
<g id="edge29" class="edge">
<title>451904504215956151&#45;&gt;628477090889524348</title>
<path fill="none" stroke="#000000" stroke-opacity="0.494118" d="M308.59,-435.11C304.04,-429.73 299.6,-423.48 296.69,-417 267.2,-351.16 267.22,-263.97 269.54,-220.33"/>
<polygon fill="#000000" fill-opacity="0.494118" stroke="#000000" stroke-opacity="0.494118" points="273.04,-220.41 270.16,-210.21 266.06,-219.98 273.04,-220.41"/>
<text text-anchor="middle" x="280.69" y="-318.8" font-family="Times New Roman,serif" font-size="14.00">69</text>
</g>
<!-- 843508192159561513 -->
<g id="node27" class="node">
<title>843508192159561513</title>
<ellipse fill="none" stroke="black" cx="3220.69" cy="-975" rx="89.88" ry="18"/>
<text text-anchor="middle" x="3220.69" y="-971.3" font-family="Times New Roman,serif" font-size="14.00">843508192159561513</text>
</g>
<!-- 519118651281911800&#45;&gt;464726114514519485 -->
<g id="edge30" class="edge">
<title>519118651281911800&#45;&gt;464726114514519485</title>
<path fill="none" stroke="#000000" stroke-opacity="0.627451" d="M1030.06,-436.01C1040.44,-430.44 1051.8,-423.85 1061.69,-417 1073.07,-409.11 1084.8,-399.37 1094.7,-390.58"/>
<polygon fill="#000000" fill-opacity="0.627451" stroke="#000000" stroke-opacity="0.627451" points="1097.13,-393.1 1102.2,-383.79 1092.44,-387.9 1097.13,-393.1"/>
<text text-anchor="middle" x="1091.19" y="-405.8" font-family="Times New Roman,serif" font-size="14.00">111</text>
</g>
<!-- 519118651281911800&#45;&gt;952199118435081243 -->
<g id="edge31" class="edge">
<title>519118651281911800&#45;&gt;952199118435081243</title>
<path fill="none" stroke="#000000" stroke-opacity="0.337255" d="M997.99,-434.9C998.62,-414.15 1000.58,-378.2 1006.69,-348 1009.5,-334.13 1014.17,-319.12 1018.49,-306.74"/>
<polygon fill="#000000" fill-opacity="0.337255" stroke="#000000" stroke-opacity="0.337255" points="1021.89,-307.63 1021.99,-297.04 1015.3,-305.26 1021.89,-307.63"/>
<text text-anchor="middle" x="1013.69" y="-362.3" font-family="Times New Roman,serif" font-size="14.00">32</text>
</g>
<!-- 576521972789431519 -->
<g id="node30" class="node">
<title>576521972789431519</title>
<ellipse fill="none" stroke="black" cx="2038.69" cy="-975" rx="89.88" ry="18"/>
<text text-anchor="middle" x="2038.69" y="-971.3" font-family="Times New Roman,serif" font-size="14.00">576521972789431519</text>
</g>
<!-- 576521972789431519&#45;&gt;727894315191185191 -->
<g id="edge32" class="edge">
<title>576521972789431519&#45;&gt;727894315191185191</title>
<path fill="none" stroke="#000000" stroke-opacity="0.431373" d="M2021.5,-957.21C2008.52,-944.52 1990.51,-926.93 1976.04,-912.79"/>
<polygon fill="#000000" fill-opacity="0.431373" stroke="#000000" stroke-opacity="0.431373" points="1978.44,-910.24 1968.84,-905.76 1973.55,-915.25 1978.44,-910.24"/>
<text text-anchor="middle" x="2007.69" y="-927.8" font-family="Times New Roman,serif" font-size="14.00">52</text>
</g>
<!-- 576521972789431519&#45;&gt;383435081243485611 -->
<g id="edge33" class="edge">
<title>576521972789431519&#45;&gt;383435081243485611</title>
<path fill="none" stroke="#000000" stroke-opacity="0.231373" d="M2044.37,-956.83C2050.4,-936.01 2058.14,-899.99 2050.69,-870 2047,-855.12 2039.38,-839.92 2032.1,-827.67"/>
<polygon fill="#000000" fill-opacity="0.231373" stroke="#000000" stroke-opacity="0.231373" points="2034.92,-825.58 2026.67,-818.94 2028.98,-829.28 2034.92,-825.58"/>
<text text-anchor="middle" x="2061.69" y="-884.3" font-family="Times New Roman,serif" font-size="14.00">15</text>
</g>
<!-- 015255175191180189 -->
<g id="node32" class="node">
<title>015255175191180189</title>
<ellipse fill="none" stroke="black" cx="3417.69" cy="-975" rx="89.88" ry="18"/>
<text text-anchor="middle" x="3417.69" y="-971.3" font-family="Times New Roman,serif" font-size="14.00">015255175191180189</text>
</g>
<!-- 519729219727816705 -->
<g id="node33" class="node">
<title>519729219727816705</title>
<ellipse fill="none" stroke="black" cx="3614.69" cy="-975" rx="89.88" ry="18"/>
<text text-anchor="middle" x="3614.69" y="-971.3" font-family="Times New Roman,serif" font-size="14.00">519729219727816705</text>
</g>
<!-- 546003646711800140 -->
<g id="node37" class="node">
<title>546003646711800140</title>
<ellipse fill="none" stroke="black" cx="861.69" cy="-714" rx="89.88" ry="18"/>
<text text-anchor="middle" x="861.69" y="-710.3" font-family="Times New Roman,serif" font-size="14.00">546003646711800140</text>
</g>
<!-- 211911800357576546&#45;&gt;546003646711800140 -->
<g id="edge34" class="edge">
<title>211911800357576546&#45;&gt;546003646711800140</title>
<path fill="none" stroke="#000000" stroke-opacity="0.690196" d="M926.69,-783.21C914.71,-770.63 898.14,-753.25 884.74,-739.18"/>
<polygon fill="#000000" fill-opacity="0.690196" stroke="#000000" stroke-opacity="0.690196" points="887.09,-736.58 877.66,-731.76 882.03,-741.41 887.09,-736.58"/>
<text text-anchor="middle" x="918.19" y="-753.8" font-family="Times New Roman,serif" font-size="14.00">134</text>
</g>
<!-- 180189445229534527 -->
<g id="node39" class="node">
<title>180189445229534527</title>
<ellipse fill="none" stroke="black" cx="987.69" cy="-627" rx="89.88" ry="18"/>
<text text-anchor="middle" x="987.69" y="-623.3" font-family="Times New Roman,serif" font-size="14.00">180189445229534527</text>
</g>
<!-- 211911800357576546&#45;&gt;180189445229534527 -->
<g id="edge35" class="edge">
<title>211911800357576546&#45;&gt;180189445229534527</title>
<path fill="none" stroke="#000000" stroke-opacity="0.611765" d="M947.23,-782.96C950.88,-769.21 956.14,-749.37 960.69,-732 967.53,-705.91 975.26,-676.12 980.69,-655.13"/>
<polygon fill="#000000" fill-opacity="0.611765" stroke="#000000" stroke-opacity="0.611765" points="984.11,-655.86 983.23,-645.3 977.33,-654.11 984.11,-655.86"/>
<text text-anchor="middle" x="981.19" y="-710.3" font-family="Times New Roman,serif" font-size="14.00">105</text>
</g>
<!-- 679757714458316013 -->
<g id="node36" class="node">
<title>679757714458316013</title>
<ellipse fill="none" stroke="black" cx="3811.69" cy="-975" rx="89.88" ry="18"/>
<text text-anchor="middle" x="3811.69" y="-971.3" font-family="Times New Roman,serif" font-size="14.00">679757714458316013</text>
</g>
<!-- 546003646711800140&#45;&gt;275857651972788943 -->
<g id="edge36" class="edge">
<title>546003646711800140&#45;&gt;275857651972788943</title>
<path fill="none" stroke="#000000" stroke-opacity="0.662745" d="M861.39,-695.88C860.87,-666 859.79,-604.11 859.17,-568.27"/>
<polygon fill="#000000" fill-opacity="0.662745" stroke="#000000" stroke-opacity="0.662745" points="862.66,-567.99 858.99,-558.05 855.66,-568.11 862.66,-567.99"/>
<text text-anchor="middle" x="871.19" y="-623.3" font-family="Times New Roman,serif" font-size="14.00">123</text>
</g>
<!-- 546003646711800140&#45;&gt;585765197278894388 -->
<g id="edge37" class="edge">
<title>546003646711800140&#45;&gt;585765197278894388</title>
<path fill="none" stroke="#000000" stroke-opacity="0.654902" d="M920.79,-700.4C978.41,-687.2 1061,-665.56 1086.69,-645 1141.26,-601.34 1173.08,-522.17 1186.73,-480.8"/>
<polygon fill="#000000" fill-opacity="0.654902" stroke="#000000" stroke-opacity="0.654902" points="1190.11,-481.74 1189.82,-471.15 1183.44,-479.61 1190.11,-481.74"/>
<text text-anchor="middle" x="1154.19" y="-579.8" font-family="Times New Roman,serif" font-size="14.00">121</text>
</g>
<!-- 546003646711800140&#45;&gt;952196180031145727 -->
<g id="edge38" class="edge">
<title>546003646711800140&#45;&gt;952196180031145727</title>
<path fill="none" stroke="#000000" stroke-opacity="0.580392" d="M797.77,-701.27C732.5,-687.42 640.69,-661.91 640.69,-628 640.69,-628 640.69,-628 640.69,-104 640.69,-80.23 624.92,-58.32 609.69,-42.7"/>
<polygon fill="#000000" fill-opacity="0.580392" stroke="#000000" stroke-opacity="0.580392" points="611.94,-40 602.33,-35.55 607.07,-45.03 611.94,-40"/>
<text text-anchor="middle" x="647.69" y="-362.3" font-family="Times New Roman,serif" font-size="14.00">95</text>
</g>
<!-- 546003646711800140&#45;&gt;180189445229534527 -->
<g id="edge39" class="edge">
<title>546003646711800140&#45;&gt;180189445229534527</title>
<path fill="none" stroke="#000000" stroke-opacity="0.925490" d="M885.99,-696.61C905.6,-683.38 933.37,-664.64 954.95,-650.09"/>
<polygon fill="#000000" fill-opacity="0.925490" stroke="#000000" stroke-opacity="0.925490" points="957.14,-652.83 963.47,-644.34 953.23,-647.03 957.14,-652.83"/>
<text text-anchor="middle" x="943.19" y="-666.8" font-family="Times New Roman,serif" font-size="14.00">239</text>
</g>
<!-- 895219727816705121 -->
<g id="node38" class="node">
<title>895219727816705121</title>
<ellipse fill="none" stroke="black" cx="881.69" cy="-975" rx="89.88" ry="18"/>
<text text-anchor="middle" x="881.69" y="-971.3" font-family="Times New Roman,serif" font-size="14.00">895219727816705121</text>
</g>
<!-- 895219727816705121&#45;&gt;781670512164800658 -->
<g id="edge40" class="edge">
<title>895219727816705121&#45;&gt;781670512164800658</title>
<path fill="none" stroke="#000000" stroke-opacity="0.678431" d="M894.04,-956.8C902.77,-944.62 914.64,-928.09 924.47,-914.4"/>
<polygon fill="#000000" fill-opacity="0.678431" stroke="#000000" stroke-opacity="0.678431" points="927.59,-916.05 930.57,-905.89 921.9,-911.97 927.59,-916.05"/>
<text text-anchor="middle" x="927.19" y="-927.8" font-family="Times New Roman,serif" font-size="14.00">129</text>
</g>
<!-- 895219727816705121&#45;&gt;114312889500362496 -->
<g id="edge41" class="edge">
<title>895219727816705121&#45;&gt;114312889500362496</title>
<path fill="none" stroke="#000000" stroke-opacity="0.627451" d="M837.16,-959.36C820.76,-953.55 802.17,-946.48 785.69,-939 766.99,-930.51 746.92,-919.68 730.39,-910.27"/>
<polygon fill="#000000" fill-opacity="0.627451" stroke="#000000" stroke-opacity="0.627451" points="732.02,-907.17 721.61,-905.21 728.53,-913.23 732.02,-907.17"/>
<text text-anchor="middle" x="796.19" y="-927.8" font-family="Times New Roman,serif" font-size="14.00">110</text>
</g>
<!-- 895219727816705121&#45;&gt;236467211911800357 -->
<g id="edge42" class="edge">
<title>895219727816705121&#45;&gt;236467211911800357</title>
<path fill="none" stroke="#000000" stroke-opacity="0.223529" d="M954.33,-964.36C974.8,-961.79 997.1,-959.14 1017.69,-957 1108.18,-947.58 1833.69,-979.98 1833.69,-889 1833.69,-889 1833.69,-889 1833.69,-365 1833.69,-343.79 1823.7,-321.98 1813.97,-305.77"/>
<polygon fill="#000000" fill-opacity="0.223529" stroke="#000000" stroke-opacity="0.223529" points="1816.66,-303.48 1808.35,-296.92 1810.75,-307.24 1816.66,-303.48"/>
<text text-anchor="middle" x="1840.69" y="-623.3" font-family="Times New Roman,serif" font-size="14.00">14</text>
</g>
<!-- 895219727816705121&#45;&gt;965855064996704672 -->
<g id="edge43" class="edge">
<title>895219727816705121&#45;&gt;965855064996704672</title>
<path fill="none" stroke="#000000" stroke-opacity="0.545098" d="M869.51,-956.95C853.56,-935.29 824.04,-897.45 793.69,-870 774.51,-852.66 750.69,-836.16 731.21,-823.76"/>
<polygon fill="#000000" fill-opacity="0.545098" stroke="#000000" stroke-opacity="0.545098" points="732.94,-820.71 722.6,-818.36 729.22,-826.64 732.94,-820.71"/>
<text text-anchor="middle" x="835.69" y="-884.3" font-family="Times New Roman,serif" font-size="14.00">84</text>
</g>
<!-- 180189445229534527&#45;&gt;275857651972788943 -->
<g id="edge44" class="edge">
<title>180189445229534527&#45;&gt;275857651972788943</title>
<path fill="none" stroke="#000000" stroke-opacity="0.745098" d="M962.82,-609.61C942.65,-596.32 914.05,-577.48 891.92,-562.9"/>
<polygon fill="#000000" fill-opacity="0.745098" stroke="#000000" stroke-opacity="0.745098" points="893.76,-559.92 883.49,-557.34 889.91,-565.76 893.76,-559.92"/>
<text text-anchor="middle" x="942.19" y="-579.8" font-family="Times New Roman,serif" font-size="14.00">155</text>
</g>
<!-- 180189445229534527&#45;&gt;585765197278894388 -->
<g id="edge45" class="edge">
<title>180189445229534527&#45;&gt;585765197278894388</title>
<path fill="none" stroke="#000000" stroke-opacity="0.737255" d="M1006.36,-609.04C1035.65,-582.64 1094.45,-530.44 1146.69,-489 1151.78,-484.96 1157.27,-480.79 1162.66,-476.8"/>
<polygon fill="#000000" fill-opacity="0.737255" stroke="#000000" stroke-opacity="0.737255" points="1164.97,-479.45 1170.97,-470.72 1160.83,-473.8 1164.97,-479.45"/>
<text text-anchor="middle" x="1115.19" y="-536.3" font-family="Times New Roman,serif" font-size="14.00">153</text>
</g>
<!-- 945765128895065128 -->
<g id="node41" class="node">
<title>945765128895065128</title>
<ellipse fill="none" stroke="black" cx="4008.69" cy="-975" rx="89.88" ry="18"/>
<text text-anchor="middle" x="4008.69" y="-971.3" font-family="Times New Roman,serif" font-size="14.00">945765128895065128</text>
</g>
<!-- 651288952364672119&#45;&gt;180036468895219911 -->
<g id="edge46" class="edge">
<title>651288952364672119&#45;&gt;180036468895219911</title>
<path fill="none" stroke="#000000" stroke-opacity="0.176471" d="M1627.69,-434.8C1627.69,-423.16 1627.69,-407.55 1627.69,-394.24"/>
<polygon fill="#000000" fill-opacity="0.176471" stroke="#000000" stroke-opacity="0.176471" points="1631.19,-394.18 1627.69,-384.18 1624.19,-394.18 1631.19,-394.18"/>
<text text-anchor="middle" x="1631.19" y="-405.8" font-family="Times New Roman,serif" font-size="14.00">9</text>
</g>
<!-- 180036468895219912 -->
<g id="node43" class="node">
<title>180036468895219912</title>
<ellipse fill="none" stroke="black" cx="1416.69" cy="-366" rx="89.88" ry="18"/>
<text text-anchor="middle" x="1416.69" y="-362.3" font-family="Times New Roman,serif" font-size="14.00">180036468895219912</text>
</g>
<!-- 651288952364672119&#45;&gt;180036468895219912 -->
<g id="edge47" class="edge">
<title>651288952364672119&#45;&gt;180036468895219912</title>
<path fill="none" stroke="#000000" stroke-opacity="0.176471" d="M1589.48,-436.61C1554.34,-422.45 1502.1,-401.41 1464.26,-386.16"/>
<polygon fill="#000000" fill-opacity="0.176471" stroke="#000000" stroke-opacity="0.176471" points="1465.56,-382.91 1454.97,-382.42 1462.94,-389.4 1465.56,-382.91"/>
<text text-anchor="middle" x="1539.19" y="-405.8" font-family="Times New Roman,serif" font-size="14.00">9</text>
</g>
<!-- 857659434421595604 -->
<g id="node44" class="node">
<title>857659434421595604</title>
<ellipse fill="none" stroke="black" cx="296.69" cy="-540" rx="89.88" ry="18"/>
<text text-anchor="middle" x="296.69" y="-536.3" font-family="Times New Roman,serif" font-size="14.00">857659434421595604</text>
</g>
<!-- 857659434421595604&#45;&gt;042159561513534780 -->
<g id="edge48" class="edge">
<title>857659434421595604&#45;&gt;042159561513534780</title>
<path fill="none" stroke="#000000" stroke-opacity="0.670588" d="M271.59,-522.7C255.43,-510.61 235.8,-492.54 226.69,-471 220.46,-456.26 221.92,-450.27 226.69,-435 246.01,-373.1 259.45,-356 309.69,-315 317.52,-308.61 326.68,-303.21 335.99,-298.7"/>
<polygon fill="#000000" fill-opacity="0.670588" stroke="#000000" stroke-opacity="0.670588" points="337.64,-301.8 345.31,-294.49 334.75,-295.42 337.64,-301.8"/>
<text text-anchor="middle" x="249.19" y="-405.8" font-family="Times New Roman,serif" font-size="14.00">126</text>
</g>
<!-- 857659434421595604&#45;&gt;978585765197292197 -->
<g id="edge49" class="edge">
<title>857659434421595604&#45;&gt;978585765197292197</title>
<path fill="none" stroke="#000000" stroke-opacity="0.349020" d="M242.84,-525.53C222.69,-519.8 199.82,-512.48 179.69,-504 160.79,-496.03 140.75,-485.16 124.39,-475.59"/>
<polygon fill="#000000" fill-opacity="0.349020" stroke="#000000" stroke-opacity="0.349020" points="126.1,-472.53 115.71,-470.44 122.52,-478.55 126.1,-472.53"/>
<text text-anchor="middle" x="186.69" y="-492.8" font-family="Times New Roman,serif" font-size="14.00">34</text>
</g>
<!-- 857659434421595604&#45;&gt;451904504215956151 -->
<g id="edge50" class="edge">
<title>857659434421595604&#45;&gt;451904504215956151</title>
<path fill="none" stroke="#000000" stroke-opacity="0.690196" d="M302.56,-521.8C306.57,-510.05 311.96,-494.24 316.53,-480.84"/>
<polygon fill="#000000" fill-opacity="0.690196" stroke="#000000" stroke-opacity="0.690196" points="319.92,-481.77 319.83,-471.18 313.29,-479.51 319.92,-481.77"/>
<text text-anchor="middle" x="324.19" y="-492.8" font-family="Times New Roman,serif" font-size="14.00">133</text>
</g>
<!-- 819537243485625108 -->
<g id="node45" class="node">
<title>819537243485625108</title>
<ellipse fill="none" stroke="black" cx="89.69" cy="-540" rx="89.88" ry="18"/>
<text text-anchor="middle" x="89.69" y="-536.3" font-family="Times New Roman,serif" font-size="14.00">819537243485625108</text>
</g>
<!-- 819537243485625108&#45;&gt;978585765197292197 -->
<g id="edge51" class="edge">
<title>819537243485625108&#45;&gt;978585765197292197</title>
<path fill="none" stroke="#000000" stroke-opacity="0.349020" d="M89.69,-521.8C89.69,-510.16 89.69,-494.55 89.69,-481.24"/>
<polygon fill="#000000" fill-opacity="0.349020" stroke="#000000" stroke-opacity="0.349020" points="93.19,-481.18 89.69,-471.18 86.19,-481.18 93.19,-481.18"/>
<text text-anchor="middle" x="96.69" y="-492.8" font-family="Times New Roman,serif" font-size="14.00">34</text>
</g>
<!-- 974648349472783040 -->
<g id="node46" class="node">
<title>974648349472783040</title>
<ellipse fill="none" stroke="black" cx="4205.69" cy="-975" rx="89.88" ry="18"/>
<text text-anchor="middle" x="4205.69" y="-971.3" font-family="Times New Roman,serif" font-size="14.00">974648349472783040</text>
</g>
<!-- 460036467118001401 -->
<g id="node47" class="node">
<title>460036467118001401</title>
<ellipse fill="none" stroke="black" cx="1391.69" cy="-453" rx="89.88" ry="18"/>
<text text-anchor="middle" x="1391.69" y="-449.3" font-family="Times New Roman,serif" font-size="14.00">460036467118001401</text>
</g>
<!-- 460036467118001401&#45;&gt;464726114514519485 -->
<g id="edge52" class="edge">
<title>460036467118001401&#45;&gt;464726114514519485</title>
<path fill="none" stroke="#000000" stroke-opacity="0.529412" d="M1345.24,-437.48C1298.3,-422.82 1225.74,-400.14 1175.65,-384.49"/>
<polygon fill="#000000" fill-opacity="0.529412" stroke="#000000" stroke-opacity="0.529412" points="1176.54,-381.1 1165.95,-381.46 1174.45,-387.78 1176.54,-381.1"/>
<text text-anchor="middle" x="1279.69" y="-405.8" font-family="Times New Roman,serif" font-size="14.00">79</text>
</g>
<!-- 460036467118001401&#45;&gt;180036468895219911 -->
<g id="edge53" class="edge">
<title>460036467118001401&#45;&gt;180036468895219911</title>
<path fill="none" stroke="#000000" stroke-opacity="0.188235" d="M1419.85,-435.9C1439.5,-425.18 1466.6,-411.38 1491.69,-402 1512.88,-394.08 1536.58,-387.3 1558.18,-381.88"/>
<polygon fill="#000000" fill-opacity="0.188235" stroke="#000000" stroke-opacity="0.188235" points="1559.06,-385.27 1567.94,-379.48 1557.39,-378.47 1559.06,-385.27"/>
<text text-anchor="middle" x="1498.69" y="-405.8" font-family="Times New Roman,serif" font-size="14.00">10</text>
</g>
<!-- 460036467118001401&#45;&gt;756356114519199118 -->
<g id="edge54" class="edge">
<title>460036467118001401&#45;&gt;756356114519199118</title>
<path fill="none" stroke="#000000" stroke-opacity="0.301961" d="M1328.83,-440.14C1317.18,-438.21 1305.09,-436.4 1293.69,-435 1183.12,-421.46 1154.78,-425.31 1043.69,-417 854.76,-402.86 807.52,-399.44 618.69,-384 583.63,-381.13 545.1,-377.85 511.41,-374.95"/>
<polygon fill="#000000" fill-opacity="0.301961" stroke="#000000" stroke-opacity="0.301961" points="511.38,-371.43 501.12,-374.06 510.78,-378.4 511.38,-371.43"/>
<text text-anchor="middle" x="1050.69" y="-405.8" font-family="Times New Roman,serif" font-size="14.00">26</text>
</g>
<!-- 460036467118001401&#45;&gt;180036468895219912 -->
<g id="edge55" class="edge">
<title>460036467118001401&#45;&gt;180036468895219912</title>
<path fill="none" stroke="#000000" stroke-opacity="0.188235" d="M1396.75,-434.8C1400.21,-423.05 1404.86,-407.24 1408.8,-393.84"/>
<polygon fill="#000000" fill-opacity="0.188235" stroke="#000000" stroke-opacity="0.188235" points="1412.18,-394.76 1411.64,-384.18 1405.46,-392.78 1412.18,-394.76"/>
<text text-anchor="middle" x="1412.69" y="-405.8" font-family="Times New Roman,serif" font-size="14.00">10</text>
</g>
<!-- 965855064996704672&#45;&gt;857659434421595604 -->
<g id="edge56" class="edge">
<title>965855064996704672&#45;&gt;857659434421595604</title>
<path fill="none" stroke="#000000" stroke-opacity="0.309804" d="M669.49,-783.6C600.47,-738.69 408.32,-613.64 330.28,-562.86"/>
<polygon fill="#000000" fill-opacity="0.309804" stroke="#000000" stroke-opacity="0.309804" points="332.07,-559.85 321.78,-557.33 328.25,-565.71 332.07,-559.85"/>
<text text-anchor="middle" x="512.69" y="-666.8" font-family="Times New Roman,serif" font-size="14.00">27</text>
</g>
<!-- 628477090889524348&#45;&gt;867563561145191991 -->
<g id="edge57" class="edge">
<title>628477090889524348&#45;&gt;867563561145191991</title>
<path fill="none" stroke="#000000" stroke-opacity="0.486275" d="M315.41,-176.19C358.2,-161.7 423.46,-139.61 469.29,-124.08"/>
<polygon fill="#000000" fill-opacity="0.486275" stroke="#000000" stroke-opacity="0.486275" points="470.7,-127.3 479.05,-120.78 468.46,-120.67 470.7,-127.3"/>
<text text-anchor="middle" x="419.69" y="-144.8" font-family="Times New Roman,serif" font-size="14.00">67</text>
</g>
</g>
</svg>
