<?xml version="1.0" encoding="UTF-8" standalone="no"?>
<!DOCTYPE svg PUBLIC "-//W3C//DTD SVG 1.1//EN"
 "http://www.w3.org/Graphics/SVG/1.1/DTD/svg11.dtd">
<!-- Generated by graphviz version 3.0.0 (20220226.1711)
 -->
<!-- Pages: 1 -->
<svg width="4535pt" height="1001pt"
 viewBox="0.00 0.00 4535.38 1001.00" xmlns="http://www.w3.org/2000/svg" xmlns:xlink="http://www.w3.org/1999/xlink">
<g id="graph0" class="graph" transform="scale(1 1) rotate(0) translate(4 997)">
<polygon fill="white" stroke="transparent" points="-4,4 -4,-997 4531.38,-997 4531.38,4 -4,4"/>
<!-- 867563561145191991 -->
<g id="node1" class="node">
<title>867563561145191991</title>
<ellipse fill="none" stroke="black" cx="1121.69" cy="-105" rx="89.88" ry="18"/>
<text text-anchor="middle" x="1121.69" y="-101.3" font-family="Times New Roman,serif" font-size="14.00">867563561145191991</text>
</g>
<!-- 952196180031145727 -->
<g id="node35" class="node">
<title>952196180031145727</title>
<ellipse fill="none" stroke="black" cx="89.69" cy="-18" rx="89.88" ry="18"/>
<text text-anchor="middle" x="89.69" y="-14.3" font-family="Times New Roman,serif" font-size="14.00">952196180031145727</text>
</g>
<!-- 867563561145191991&#45;&gt;952196180031145727 -->
<g id="edge1" class="edge">
<title>867563561145191991&#45;&gt;952196180031145727</title>
<path fill="none" stroke="#000000" stroke-opacity="0.627451" d="M1040.28,-97.29C850.58,-81.67 380.18,-42.93 181.06,-26.53"/>
<polygon fill="#000000" fill-opacity="0.627451" stroke="#000000" stroke-opacity="0.627451" points="181.17,-23.02 170.92,-25.69 180.6,-30 181.17,-23.02"/>
<text text-anchor="middle" x="678.19" y="-57.8" font-family="Times New Roman,serif" font-size="14.00">110</text>
</g>
<!-- 781670512164800658 -->
<g id="node2" class="node">
<title>781670512164800658</title>
<ellipse fill="none" stroke="black" cx="830.69" cy="-888" rx="89.88" ry="18"/>
<text text-anchor="middle" x="830.69" y="-884.3" font-family="Times New Roman,serif" font-size="14.00">781670512164800658</text>
</g>
<!-- 211911800357576546 -->
<g id="node34" class="node">
<title>211911800357576546</title>
<ellipse fill="none" stroke="black" cx="270.69" cy="-801" rx="89.88" ry="18"/>
<text text-anchor="middle" x="270.69" y="-797.3" font-family="Times New Roman,serif" font-size="14.00">211911800357576546</text>
</g>
<!-- 781670512164800658&#45;&gt;211911800357576546 -->
<g id="edge2" class="edge">
<title>781670512164800658&#45;&gt;211911800357576546</title>
<path fill="none" stroke="#000000" stroke-opacity="0.258824" d="M761.46,-876.49C657.03,-860.64 459.76,-830.7 349.8,-814.01"/>
<polygon fill="#000000" fill-opacity="0.258824" stroke="#000000" stroke-opacity="0.258824" points="350.17,-810.52 339.76,-812.48 349.12,-817.45 350.17,-810.52"/>
<text text-anchor="middle" x="591.69" y="-840.8" font-family="Times New Roman,serif" font-size="14.00">19</text>
</g>
<!-- 945765599670467261 -->
<g id="node3" class="node">
<title>945765599670467261</title>
<ellipse fill="none" stroke="black" cx="1482.69" cy="-975" rx="89.88" ry="18"/>
<text text-anchor="middle" x="1482.69" y="-971.3" font-family="Times New Roman,serif" font-size="14.00">945765599670467261</text>
</g>
<!-- 275857651972788943 -->
<g id="node4" class="node">
<title>275857651972788943</title>
<ellipse fill="none" stroke="black" cx="427.69" cy="-540" rx="89.88" ry="18"/>
<text text-anchor="middle" x="427.69" y="-536.3" font-family="Times New Roman,serif" font-size="14.00">275857651972788943</text>
</g>
<!-- 585765197278894388 -->
<g id="node8" class="node">
<title>585765197278894388</title>
<ellipse fill="none" stroke="black" cx="191.69" cy="-453" rx="89.88" ry="18"/>
<text text-anchor="middle" x="191.69" y="-449.3" font-family="Times New Roman,serif" font-size="14.00">585765197278894388</text>
</g>
<!-- 275857651972788943&#45;&gt;585765197278894388 -->
<g id="edge3" class="edge">
<title>275857651972788943&#45;&gt;585765197278894388</title>
<path fill="none" stroke="#000000" stroke-opacity="0.984314" d="M397.24,-522.86C376.38,-512.25 347.86,-498.61 321.69,-489 301.52,-481.59 279.06,-474.99 258.57,-469.57"/>
<polygon fill="#000000" fill-opacity="0.984314" stroke="#000000" stroke-opacity="0.984314" points="259.24,-466.13 248.69,-467.01 257.49,-472.91 259.24,-466.13"/>
<text text-anchor="middle" x="368.19" y="-492.8" font-family="Times New Roman,serif" font-size="14.00">271</text>
</g>
<!-- 042159561513534780 -->
<g id="node9" class="node">
<title>042159561513534780</title>
<ellipse fill="none" stroke="black" cx="1123.69" cy="-279" rx="89.88" ry="18"/>
<text text-anchor="middle" x="1123.69" y="-275.3" font-family="Times New Roman,serif" font-size="14.00">042159561513534780</text>
</g>
<!-- 275857651972788943&#45;&gt;042159561513534780 -->
<g id="edge4" class="edge">
<title>275857651972788943&#45;&gt;042159561513534780</title>
<path fill="none" stroke="#000000" stroke-opacity="0.525490" d="M500.86,-529.59C554.38,-520.4 627.35,-502.97 684.69,-471 705.01,-459.67 702.07,-445.77 722.69,-435 757.69,-416.72 772.21,-429.4 809.69,-417 878.21,-394.33 890.63,-377.07 956.69,-348 996.07,-330.67 1041.3,-312.35 1074.75,-299.1"/>
<polygon fill="#000000" fill-opacity="0.525490" stroke="#000000" stroke-opacity="0.525490" points="1076.28,-302.26 1084.29,-295.33 1073.7,-295.75 1076.28,-302.26"/>
<text text-anchor="middle" x="855.69" y="-405.8" font-family="Times New Roman,serif" font-size="14.00">78</text>
</g>
<!-- 451904504215956151 -->
<g id="node26" class="node">
<title>451904504215956151</title>
<ellipse fill="none" stroke="black" cx="1018.69" cy="-453" rx="89.88" ry="18"/>
<text text-anchor="middle" x="1018.69" y="-449.3" font-family="Times New Roman,serif" font-size="14.00">451904504215956151</text>
</g>
<!-- 275857651972788943&#45;&gt;451904504215956151 -->
<g id="edge5" class="edge">
<title>275857651972788943&#45;&gt;451904504215956151</title>
<path fill="none" stroke="#000000" stroke-opacity="0.549020" d="M504.43,-530.61C562.95,-524 645.51,-514.22 717.69,-504 808.2,-491.19 830.55,-486.15 920.69,-471 928.09,-469.76 935.8,-468.45 943.51,-467.13"/>
<polygon fill="#000000" fill-opacity="0.549020" stroke="#000000" stroke-opacity="0.549020" points="944.34,-470.53 953.61,-465.39 943.16,-463.63 944.34,-470.53"/>
<text text-anchor="middle" x="819.69" y="-492.8" font-family="Times New Roman,serif" font-size="14.00">85</text>
</g>
<!-- 519118651281911800 -->
<g id="node28" class="node">
<title>519118651281911800</title>
<ellipse fill="none" stroke="black" cx="585.69" cy="-453" rx="89.88" ry="18"/>
<text text-anchor="middle" x="585.69" y="-449.3" font-family="Times New Roman,serif" font-size="14.00">519118651281911800</text>
</g>
<!-- 275857651972788943&#45;&gt;519118651281911800 -->
<g id="edge6" class="edge">
<title>275857651972788943&#45;&gt;519118651281911800</title>
<path fill="none" stroke="#000000" stroke-opacity="0.321569" d="M457.41,-523.01C482.71,-509.4 519.23,-489.75 546.85,-474.9"/>
<polygon fill="#000000" fill-opacity="0.321569" stroke="#000000" stroke-opacity="0.321569" points="548.69,-477.88 555.84,-470.06 545.37,-471.72 548.69,-477.88"/>
<text text-anchor="middle" x="523.69" y="-492.8" font-family="Times New Roman,serif" font-size="14.00">29</text>
</g>
<!-- 857744545190450421 -->
<g id="node31" class="node">
<title>857744545190450421</title>
<ellipse fill="none" stroke="black" cx="388.69" cy="-453" rx="89.88" ry="18"/>
<text text-anchor="middle" x="388.69" y="-449.3" font-family="Times New Roman,serif" font-size="14.00">857744545190450421</text>
</g>
<!-- 275857651972788943&#45;&gt;857744545190450421 -->
<g id="edge7" class="edge">
<title>275857651972788943&#45;&gt;857744545190450421</title>
<path fill="none" stroke="#000000" stroke-opacity="0.572549" d="M419.8,-521.8C414.36,-509.93 407.01,-493.93 400.83,-480.45"/>
<polygon fill="#000000" fill-opacity="0.572549" stroke="#000000" stroke-opacity="0.572549" points="403.92,-478.8 396.57,-471.18 397.56,-481.72 403.92,-478.8"/>
<text text-anchor="middle" x="417.69" y="-492.8" font-family="Times New Roman,serif" font-size="14.00">92</text>
</g>
<!-- 304648435345158604 -->
<g id="node5" class="node">
<title>304648435345158604</title>
<ellipse fill="none" stroke="black" cx="1679.69" cy="-975" rx="89.88" ry="18"/>
<text text-anchor="middle" x="1679.69" y="-971.3" font-family="Times New Roman,serif" font-size="14.00">304648435345158604</text>
</g>
<!-- 843534515867511216 -->
<g id="node6" class="node">
<title>843534515867511216</title>
<ellipse fill="none" stroke="black" cx="1876.69" cy="-975" rx="89.88" ry="18"/>
<text text-anchor="middle" x="1876.69" y="-971.3" font-family="Times New Roman,serif" font-size="14.00">843534515867511216</text>
</g>
<!-- 464726114514519485 -->
<g id="node7" class="node">
<title>464726114514519485</title>
<ellipse fill="none" stroke="black" cx="584.69" cy="-366" rx="89.88" ry="18"/>
<text text-anchor="middle" x="584.69" y="-362.3" font-family="Times New Roman,serif" font-size="14.00">464726114514519485</text>
</g>
<!-- 952199118435081243 -->
<g id="node48" class="node">
<title>952199118435081243</title>
<ellipse fill="none" stroke="black" cx="501.69" cy="-279" rx="89.88" ry="18"/>
<text text-anchor="middle" x="501.69" y="-275.3" font-family="Times New Roman,serif" font-size="14.00">952199118435081243</text>
</g>
<!-- 464726114514519485&#45;&gt;952199118435081243 -->
<g id="edge8" class="edge">
<title>464726114514519485&#45;&gt;952199118435081243</title>
<path fill="none" stroke="#000000" stroke-opacity="0.521569" d="M568.29,-348.21C556.02,-335.63 539.04,-318.25 525.31,-304.18"/>
<polygon fill="#000000" fill-opacity="0.521569" stroke="#000000" stroke-opacity="0.521569" points="527.55,-301.47 518.06,-296.76 522.54,-306.36 527.55,-301.47"/>
<text text-anchor="middle" x="555.69" y="-318.8" font-family="Times New Roman,serif" font-size="14.00">76</text>
</g>
<!-- 042159561513534780&#45;&gt;867563561145191991 -->
<g id="edge9" class="edge">
<title>042159561513534780&#45;&gt;867563561145191991</title>
<path fill="none" stroke="#000000" stroke-opacity="0.376471" d="M1123.49,-260.88C1123.15,-231 1122.43,-169.11 1122.01,-133.27"/>
<polygon fill="#000000" fill-opacity="0.376471" stroke="#000000" stroke-opacity="0.376471" points="1125.51,-133.01 1121.89,-123.05 1118.51,-133.09 1125.51,-133.01"/>
<text text-anchor="middle" x="1130.69" y="-188.3" font-family="Times New Roman,serif" font-size="14.00">40</text>
</g>
<!-- 628477090889524348 -->
<g id="node50" class="node">
<title>628477090889524348</title>
<ellipse fill="none" stroke="black" cx="1243.69" cy="-192" rx="89.88" ry="18"/>
<text text-anchor="middle" x="1243.69" y="-188.3" font-family="Times New Roman,serif" font-size="14.00">628477090889524348</text>
</g>
<!-- 042159561513534780&#45;&gt;628477090889524348 -->
<g id="edge10" class="edge">
<title>042159561513534780&#45;&gt;628477090889524348</title>
<path fill="none" stroke="#000000" stroke-opacity="0.501961" d="M1147.11,-261.41C1165.62,-248.3 1191.62,-229.88 1211.98,-215.46"/>
<polygon fill="#000000" fill-opacity="0.501961" stroke="#000000" stroke-opacity="0.501961" points="1214.19,-218.19 1220.33,-209.55 1210.15,-212.47 1214.19,-218.19"/>
<text text-anchor="middle" x="1198.69" y="-231.8" font-family="Times New Roman,serif" font-size="14.00">71</text>
</g>
<!-- 180036468895219911 -->
<g id="node10" class="node">
<title>180036468895219911</title>
<ellipse fill="none" stroke="black" cx="1687.69" cy="-366" rx="89.88" ry="18"/>
<text text-anchor="middle" x="1687.69" y="-362.3" font-family="Times New Roman,serif" font-size="14.00">180036468895219911</text>
</g>
<!-- 236467211911800357 -->
<g id="node29" class="node">
<title>236467211911800357</title>
<ellipse fill="none" stroke="black" cx="1687.69" cy="-279" rx="89.88" ry="18"/>
<text text-anchor="middle" x="1687.69" y="-275.3" font-family="Times New Roman,serif" font-size="14.00">236467211911800357</text>
</g>
<!-- 180036468895219911&#45;&gt;236467211911800357 -->
<g id="edge11" class="edge">
<title>180036468895219911&#45;&gt;236467211911800357</title>
<path fill="none" stroke="#000000" stroke-opacity="0.631373" d="M1687.69,-347.8C1687.69,-336.16 1687.69,-320.55 1687.69,-307.24"/>
<polygon fill="#000000" fill-opacity="0.631373" stroke="#000000" stroke-opacity="0.631373" points="1691.19,-307.18 1687.69,-297.18 1684.19,-307.18 1691.19,-307.18"/>
<text text-anchor="middle" x="1698.19" y="-318.8" font-family="Times New Roman,serif" font-size="14.00">112</text>
</g>
<!-- 783020311806571918 -->
<g id="node11" class="node">
<title>783020311806571918</title>
<ellipse fill="none" stroke="black" cx="2073.69" cy="-975" rx="89.88" ry="18"/>
<text text-anchor="middle" x="2073.69" y="-971.3" font-family="Times New Roman,serif" font-size="14.00">783020311806571918</text>
</g>
<!-- 727894315191185191 -->
<g id="node12" class="node">
<title>727894315191185191</title>
<ellipse fill="none" stroke="black" cx="2183.69" cy="-888" rx="89.88" ry="18"/>
<text text-anchor="middle" x="2183.69" y="-884.3" font-family="Times New Roman,serif" font-size="14.00">727894315191185191</text>
</g>
<!-- 383435081243485611 -->
<g id="node13" class="node">
<title>383435081243485611</title>
<ellipse fill="none" stroke="black" cx="2268.69" cy="-801" rx="89.88" ry="18"/>
<text text-anchor="middle" x="2268.69" y="-797.3" font-family="Times New Roman,serif" font-size="14.00">383435081243485611</text>
</g>
<!-- 727894315191185191&#45;&gt;383435081243485611 -->
<g id="edge12" class="edge">
<title>727894315191185191&#45;&gt;383435081243485611</title>
<path fill="none" stroke="#000000" stroke-opacity="0.615686" d="M2200.49,-870.21C2213.06,-857.63 2230.44,-840.25 2244.51,-826.18"/>
<polygon fill="#000000" fill-opacity="0.615686" stroke="#000000" stroke-opacity="0.615686" points="2247.34,-828.3 2251.93,-818.76 2242.39,-823.35 2247.34,-828.3"/>
<text text-anchor="middle" x="2242.19" y="-840.8" font-family="Times New Roman,serif" font-size="14.00">106</text>
</g>
<!-- 781670574770909612 -->
<g id="node14" class="node">
<title>781670574770909612</title>
<ellipse fill="none" stroke="black" cx="2467.69" cy="-975" rx="89.88" ry="18"/>
<text text-anchor="middle" x="2467.69" y="-971.3" font-family="Times New Roman,serif" font-size="14.00">781670574770909612</text>
</g>
<!-- 978585765197292197 -->
<g id="node15" class="node">
<title>978585765197292197</title>
<ellipse fill="none" stroke="black" cx="1451.69" cy="-453" rx="89.88" ry="18"/>
<text text-anchor="middle" x="1451.69" y="-449.3" font-family="Times New Roman,serif" font-size="14.00">978585765197292197</text>
</g>
<!-- 978585765197292197&#45;&gt;628477090889524348 -->
<g id="edge13" class="edge">
<title>978585765197292197&#45;&gt;628477090889524348</title>
<path fill="none" stroke="#000000" stroke-opacity="0.341176" d="M1447.97,-434.86C1438.64,-393.11 1413.26,-287.63 1389.69,-261 1368.05,-236.54 1335.77,-220.25 1307.05,-209.76"/>
<polygon fill="#000000" fill-opacity="0.341176" stroke="#000000" stroke-opacity="0.341176" points="1308.07,-206.41 1297.47,-206.42 1305.77,-213.02 1308.07,-206.41"/>
<text text-anchor="middle" x="1427.69" y="-318.8" font-family="Times New Roman,serif" font-size="14.00">33</text>
</g>
<!-- 756356114519199118 -->
<g id="node16" class="node">
<title>756356114519199118</title>
<ellipse fill="none" stroke="black" cx="1055.69" cy="-366" rx="89.88" ry="18"/>
<text text-anchor="middle" x="1055.69" y="-362.3" font-family="Times New Roman,serif" font-size="14.00">756356114519199118</text>
</g>
<!-- 756356114519199118&#45;&gt;042159561513534780 -->
<g id="edge14" class="edge">
<title>756356114519199118&#45;&gt;042159561513534780</title>
<path fill="none" stroke="#000000" stroke-opacity="0.368627" d="M1069.45,-347.8C1079.29,-335.51 1092.67,-318.77 1103.69,-305.01"/>
<polygon fill="#000000" fill-opacity="0.368627" stroke="#000000" stroke-opacity="0.368627" points="1106.67,-306.88 1110.18,-296.89 1101.2,-302.51 1106.67,-306.88"/>
<text text-anchor="middle" x="1101.69" y="-318.8" font-family="Times New Roman,serif" font-size="14.00">38</text>
</g>
<!-- 756356114519199118&#45;&gt;451904504215956151 -->
<g id="edge15" class="edge">
<title>756356114519199118&#45;&gt;451904504215956151</title>
<path fill="none" stroke="#000000" stroke-opacity="0.400000" d="M1048.22,-384.18C1043.05,-396.04 1036.09,-412.04 1030.22,-425.52"/>
<polygon fill="#000000" fill-opacity="0.400000" stroke="#000000" stroke-opacity="0.400000" points="1026.96,-424.23 1026.18,-434.8 1033.38,-427.03 1026.96,-424.23"/>
<text text-anchor="middle" x="1046.69" y="-405.8" font-family="Times New Roman,serif" font-size="14.00">45</text>
</g>
<!-- 017464834943435282 -->
<g id="node17" class="node">
<title>017464834943435282</title>
<ellipse fill="none" stroke="black" cx="2664.69" cy="-975" rx="89.88" ry="18"/>
<text text-anchor="middle" x="2664.69" y="-971.3" font-family="Times New Roman,serif" font-size="14.00">017464834943435282</text>
</g>
<!-- 435282177830457651 -->
<g id="node40" class="node">
<title>435282177830457651</title>
<ellipse fill="none" stroke="black" cx="2664.69" cy="-888" rx="89.88" ry="18"/>
<text text-anchor="middle" x="2664.69" y="-884.3" font-family="Times New Roman,serif" font-size="14.00">435282177830457651</text>
</g>
<!-- 017464834943435282&#45;&gt;435282177830457651 -->
<g id="edge16" class="edge">
<title>017464834943435282&#45;&gt;435282177830457651</title>
<path fill="none" stroke="#000000" stroke-opacity="0.427451" d="M2664.69,-956.8C2664.69,-945.16 2664.69,-929.55 2664.69,-916.24"/>
<polygon fill="#000000" fill-opacity="0.427451" stroke="#000000" stroke-opacity="0.427451" points="2668.19,-916.18 2664.69,-906.18 2661.19,-916.18 2668.19,-916.18"/>
<text text-anchor="middle" x="2671.69" y="-927.8" font-family="Times New Roman,serif" font-size="14.00">51</text>
</g>
<!-- 508434856114572785 -->
<g id="node18" class="node">
<title>508434856114572785</title>
<ellipse fill="none" stroke="black" cx="1813.69" cy="-453" rx="89.88" ry="18"/>
<text text-anchor="middle" x="1813.69" y="-449.3" font-family="Times New Roman,serif" font-size="14.00">508434856114572785</text>
</g>
<!-- 508434856114572785&#45;&gt;180036468895219911 -->
<g id="edge17" class="edge">
<title>508434856114572785&#45;&gt;180036468895219911</title>
<path fill="none" stroke="#000000" stroke-opacity="0.454902" d="M1789.4,-435.61C1769.79,-422.38 1742.01,-403.64 1720.44,-389.09"/>
<polygon fill="#000000" fill-opacity="0.454902" stroke="#000000" stroke-opacity="0.454902" points="1722.16,-386.03 1711.91,-383.34 1718.24,-391.83 1722.16,-386.03"/>
<text text-anchor="middle" x="1765.69" y="-405.8" font-family="Times New Roman,serif" font-size="14.00">58</text>
</g>
<!-- 508434856114572785&#45;&gt;236467211911800357 -->
<g id="edge18" class="edge">
<title>508434856114572785&#45;&gt;236467211911800357</title>
<path fill="none" stroke="#000000" stroke-opacity="0.321569" d="M1812.86,-434.63C1811.04,-412.63 1805.22,-374.42 1786.69,-348 1772.68,-328.01 1750.78,-312.08 1731.13,-300.68"/>
<polygon fill="#000000" fill-opacity="0.321569" stroke="#000000" stroke-opacity="0.321569" points="1732.74,-297.57 1722.31,-295.77 1729.34,-303.69 1732.74,-297.57"/>
<text text-anchor="middle" x="1810.69" y="-362.3" font-family="Times New Roman,serif" font-size="14.00">29</text>
</g>
<!-- 651288952364672119 -->
<g id="node42" class="node">
<title>651288952364672119</title>
<ellipse fill="none" stroke="black" cx="1935.69" cy="-366" rx="89.88" ry="18"/>
<text text-anchor="middle" x="1935.69" y="-362.3" font-family="Times New Roman,serif" font-size="14.00">651288952364672119</text>
</g>
<!-- 508434856114572785&#45;&gt;651288952364672119 -->
<g id="edge19" class="edge">
<title>508434856114572785&#45;&gt;651288952364672119</title>
<path fill="none" stroke="#000000" stroke-opacity="0.360784" d="M1837.21,-435.61C1856.08,-422.47 1882.75,-403.88 1903.58,-389.37"/>
<polygon fill="#000000" fill-opacity="0.360784" stroke="#000000" stroke-opacity="0.360784" points="1905.62,-392.22 1911.83,-383.63 1901.62,-386.47 1905.62,-392.22"/>
<text text-anchor="middle" x="1889.69" y="-405.8" font-family="Times New Roman,serif" font-size="14.00">37</text>
</g>
<!-- 219605796366125275 -->
<g id="node19" class="node">
<title>219605796366125275</title>
<ellipse fill="none" stroke="black" cx="2861.69" cy="-975" rx="89.88" ry="18"/>
<text text-anchor="middle" x="2861.69" y="-971.3" font-family="Times New Roman,serif" font-size="14.00">219605796366125275</text>
</g>
<!-- 572785726118576436 -->
<g id="node20" class="node">
<title>572785726118576436</title>
<ellipse fill="none" stroke="black" cx="1884.69" cy="-540" rx="89.88" ry="18"/>
<text text-anchor="middle" x="1884.69" y="-536.3" font-family="Times New Roman,serif" font-size="14.00">572785726118576436</text>
</g>
<!-- 572785726118576436&#45;&gt;508434856114572785 -->
<g id="edge20" class="edge">
<title>572785726118576436&#45;&gt;508434856114572785</title>
<path fill="none" stroke="#000000" stroke-opacity="0.203922" d="M1870.66,-522.21C1860.33,-509.83 1846.1,-492.8 1834.45,-478.85"/>
<polygon fill="#000000" fill-opacity="0.203922" stroke="#000000" stroke-opacity="0.203922" points="1837.03,-476.48 1827.93,-471.05 1831.66,-480.97 1837.03,-476.48"/>
<text text-anchor="middle" x="1860.69" y="-492.8" font-family="Times New Roman,serif" font-size="14.00">12</text>
</g>
<!-- 404215857651216151 -->
<g id="node21" class="node">
<title>404215857651216151</title>
<ellipse fill="none" stroke="black" cx="1687.69" cy="-540" rx="89.88" ry="18"/>
<text text-anchor="middle" x="1687.69" y="-536.3" font-family="Times New Roman,serif" font-size="14.00">404215857651216151</text>
</g>
<!-- 404215857651216151&#45;&gt;180036468895219911 -->
<g id="edge21" class="edge">
<title>404215857651216151&#45;&gt;180036468895219911</title>
<path fill="none" stroke="#000000" stroke-opacity="0.301961" d="M1687.69,-521.88C1687.69,-492 1687.69,-430.11 1687.69,-394.27"/>
<polygon fill="#000000" fill-opacity="0.301961" stroke="#000000" stroke-opacity="0.301961" points="1691.19,-394.05 1687.69,-384.05 1684.19,-394.05 1691.19,-394.05"/>
<text text-anchor="middle" x="1694.69" y="-449.3" font-family="Times New Roman,serif" font-size="14.00">26</text>
</g>
<!-- 404215857651216151&#45;&gt;508434856114572785 -->
<g id="edge22" class="edge">
<title>404215857651216151&#45;&gt;508434856114572785</title>
<path fill="none" stroke="#000000" stroke-opacity="0.717647" d="M1711.99,-522.61C1731.6,-509.38 1759.37,-490.64 1780.95,-476.09"/>
<polygon fill="#000000" fill-opacity="0.717647" stroke="#000000" stroke-opacity="0.717647" points="1783.14,-478.83 1789.47,-470.34 1779.23,-473.03 1783.14,-478.83"/>
<text text-anchor="middle" x="1769.19" y="-492.8" font-family="Times New Roman,serif" font-size="14.00">144</text>
</g>
<!-- 114312889500362496 -->
<g id="node22" class="node">
<title>114312889500362496</title>
<ellipse fill="none" stroke="black" cx="1191.69" cy="-888" rx="89.88" ry="18"/>
<text text-anchor="middle" x="1191.69" y="-884.3" font-family="Times New Roman,serif" font-size="14.00">114312889500362496</text>
</g>
<!-- 965855064996704672 -->
<g id="node49" class="node">
<title>965855064996704672</title>
<ellipse fill="none" stroke="black" cx="1254.69" cy="-801" rx="89.88" ry="18"/>
<text text-anchor="middle" x="1254.69" y="-797.3" font-family="Times New Roman,serif" font-size="14.00">965855064996704672</text>
</g>
<!-- 114312889500362496&#45;&gt;965855064996704672 -->
<g id="edge23" class="edge">
<title>114312889500362496&#45;&gt;965855064996704672</title>
<path fill="none" stroke="#000000" stroke-opacity="0.666667" d="M1204.44,-869.8C1213.55,-857.51 1225.95,-840.77 1236.16,-827.01"/>
<polygon fill="#000000" fill-opacity="0.666667" stroke="#000000" stroke-opacity="0.666667" points="1239.03,-829 1242.18,-818.89 1233.41,-824.84 1239.03,-829"/>
<text text-anchor="middle" x="1238.19" y="-840.8" font-family="Times New Roman,serif" font-size="14.00">125</text>
</g>
<!-- 094343508434856118 -->
<g id="node23" class="node">
<title>094343508434856118</title>
<ellipse fill="none" stroke="black" cx="3058.69" cy="-975" rx="89.88" ry="18"/>
<text text-anchor="middle" x="3058.69" y="-971.3" font-family="Times New Roman,serif" font-size="14.00">094343508434856118</text>
</g>
<!-- 534527446190830457 -->
<g id="node24" class="node">
<title>534527446190830457</title>
<ellipse fill="none" stroke="black" cx="1215.69" cy="-453" rx="89.88" ry="18"/>
<text text-anchor="middle" x="1215.69" y="-449.3" font-family="Times New Roman,serif" font-size="14.00">534527446190830457</text>
</g>
<!-- 534527446190830457&#45;&gt;867563561145191991 -->
<g id="edge24" class="edge">
<title>534527446190830457&#45;&gt;867563561145191991</title>
<path fill="none" stroke="#000000" stroke-opacity="0.231373" d="M1285.02,-441.48C1326.69,-430.78 1371.69,-409.41 1371.69,-367 1371.69,-367 1371.69,-367 1371.69,-191 1371.69,-154.66 1275.81,-130.73 1202.8,-117.78"/>
<polygon fill="#000000" fill-opacity="0.231373" stroke="#000000" stroke-opacity="0.231373" points="1203.11,-114.28 1192.66,-116.02 1201.92,-121.18 1203.11,-114.28"/>
<text text-anchor="middle" x="1378.69" y="-275.3" font-family="Times New Roman,serif" font-size="14.00">15</text>
</g>
<!-- 534527446190830457&#45;&gt;756356114519199118 -->
<g id="edge25" class="edge">
<title>534527446190830457&#45;&gt;756356114519199118</title>
<path fill="none" stroke="#000000" stroke-opacity="0.215686" d="M1185.6,-436.01C1159.98,-422.4 1122.99,-402.75 1095.03,-387.9"/>
<polygon fill="#000000" fill-opacity="0.215686" stroke="#000000" stroke-opacity="0.215686" points="1096.4,-384.66 1085.92,-383.06 1093.11,-390.84 1096.4,-384.66"/>
<text text-anchor="middle" x="1152.69" y="-405.8" font-family="Times New Roman,serif" font-size="14.00">13</text>
</g>
<!-- 467252197752364672 -->
<g id="node25" class="node">
<title>467252197752364672</title>
<ellipse fill="none" stroke="black" cx="3255.69" cy="-975" rx="89.88" ry="18"/>
<text text-anchor="middle" x="3255.69" y="-971.3" font-family="Times New Roman,serif" font-size="14.00">467252197752364672</text>
</g>
<!-- 451904504215956151&#45;&gt;867563561145191991 -->
<g id="edge26" class="edge">
<title>451904504215956151&#45;&gt;867563561145191991</title>
<path fill="none" stroke="#000000" stroke-opacity="0.368627" d="M988.07,-435.78C965.13,-421.18 937.69,-397.37 937.69,-367 937.69,-367 937.69,-367 937.69,-191 937.69,-145.75 984.13,-124.51 1030.34,-114.58"/>
<polygon fill="#000000" fill-opacity="0.368627" stroke="#000000" stroke-opacity="0.368627" points="1031.06,-118.01 1040.18,-112.63 1029.69,-111.14 1031.06,-118.01"/>
<text text-anchor="middle" x="944.69" y="-275.3" font-family="Times New Roman,serif" font-size="14.00">38</text>
</g>
<!-- 451904504215956151&#45;&gt;042159561513534780 -->
<g id="edge27" class="edge">
<title>451904504215956151&#45;&gt;042159561513534780</title>
<path fill="none" stroke="#000000" d="M1075.11,-438.97C1104.25,-429.07 1137.27,-412.18 1154.69,-384 1169.75,-359.63 1155.99,-327.52 1142.32,-305.46"/>
<polygon fill="#000000" stroke="#000000" points="1145.17,-303.41 1136.76,-296.96 1139.31,-307.25 1145.17,-303.41"/>
<text text-anchor="middle" x="1172.19" y="-362.3" font-family="Times New Roman,serif" font-size="14.00">279</text>
</g>
<!-- 451904504215956151&#45;&gt;756356114519199118 -->
<g id="edge28" class="edge">
<title>451904504215956151&#45;&gt;756356114519199118</title>
<path fill="none" stroke="#000000" stroke-opacity="0.356863" d="M1014.84,-434.63C1013.48,-424.68 1013.23,-412.18 1017.69,-402 1019.43,-398.03 1021.88,-394.3 1024.69,-390.88"/>
<polygon fill="#000000" fill-opacity="0.356863" stroke="#000000" stroke-opacity="0.356863" points="1027.4,-393.11 1031.77,-383.46 1022.34,-388.28 1027.4,-393.11"/>
<text text-anchor="middle" x="1024.69" y="-405.8" font-family="Times New Roman,serif" font-size="14.00">36</text>
</g>
<!-- 451904504215956151&#45;&gt;628477090889524348 -->
<g id="edge29" class="edge">
<title>451904504215956151&#45;&gt;628477090889524348</title>
<path fill="none" stroke="#000000" stroke-opacity="0.494118" d="M1084.79,-440.75C1116.56,-434.42 1150.54,-425.99 1163.69,-417 1228.83,-372.49 1241.3,-269.66 1243.43,-220.34"/>
<polygon fill="#000000" fill-opacity="0.494118" stroke="#000000" stroke-opacity="0.494118" points="1246.94,-220.23 1243.76,-210.12 1239.94,-220.01 1246.94,-220.23"/>
<text text-anchor="middle" x="1235.69" y="-318.8" font-family="Times New Roman,serif" font-size="14.00">69</text>
</g>
<!-- 843508192159561513 -->
<g id="node27" class="node">
<title>843508192159561513</title>
<ellipse fill="none" stroke="black" cx="3452.69" cy="-975" rx="89.88" ry="18"/>
<text text-anchor="middle" x="3452.69" y="-971.3" font-family="Times New Roman,serif" font-size="14.00">843508192159561513</text>
</g>
<!-- 519118651281911800&#45;&gt;464726114514519485 -->
<g id="edge30" class="edge">
<title>519118651281911800&#45;&gt;464726114514519485</title>
<path fill="none" stroke="#000000" stroke-opacity="0.627451" d="M585.49,-434.8C585.35,-423.16 585.17,-407.55 585.01,-394.24"/>
<polygon fill="#000000" fill-opacity="0.627451" stroke="#000000" stroke-opacity="0.627451" points="588.51,-394.13 584.89,-384.18 581.51,-394.22 588.51,-394.13"/>
<text text-anchor="middle" x="596.19" y="-405.8" font-family="Times New Roman,serif" font-size="14.00">111</text>
</g>
<!-- 519118651281911800&#45;&gt;952199118435081243 -->
<g id="edge31" class="edge">
<title>519118651281911800&#45;&gt;952199118435081243</title>
<path fill="none" stroke="#000000" stroke-opacity="0.337255" d="M540.2,-437.48C515.2,-426.92 486.37,-409.85 471.69,-384 457.73,-359.41 470.55,-327.79 483.49,-305.9"/>
<polygon fill="#000000" fill-opacity="0.337255" stroke="#000000" stroke-opacity="0.337255" points="486.62,-307.5 488.97,-297.17 480.69,-303.78 486.62,-307.5"/>
<text text-anchor="middle" x="478.69" y="-362.3" font-family="Times New Roman,serif" font-size="14.00">32</text>
</g>
<!-- 576521972789431519 -->
<g id="node30" class="node">
<title>576521972789431519</title>
<ellipse fill="none" stroke="black" cx="2270.69" cy="-975" rx="89.88" ry="18"/>
<text text-anchor="middle" x="2270.69" y="-971.3" font-family="Times New Roman,serif" font-size="14.00">576521972789431519</text>
</g>
<!-- 576521972789431519&#45;&gt;727894315191185191 -->
<g id="edge32" class="edge">
<title>576521972789431519&#45;&gt;727894315191185191</title>
<path fill="none" stroke="#000000" stroke-opacity="0.431373" d="M2253.5,-957.21C2240.52,-944.52 2222.51,-926.93 2208.04,-912.79"/>
<polygon fill="#000000" fill-opacity="0.431373" stroke="#000000" stroke-opacity="0.431373" points="2210.44,-910.24 2200.84,-905.76 2205.55,-915.25 2210.44,-910.24"/>
<text text-anchor="middle" x="2239.69" y="-927.8" font-family="Times New Roman,serif" font-size="14.00">52</text>
</g>
<!-- 576521972789431519&#45;&gt;383435081243485611 -->
<g id="edge33" class="edge">
<title>576521972789431519&#45;&gt;383435081243485611</title>
<path fill="none" stroke="#000000" stroke-opacity="0.231373" d="M2274.99,-956.72C2279.58,-936.09 2285.81,-900.56 2282.69,-870 2281.3,-856.32 2278.37,-841.33 2275.55,-828.92"/>
<polygon fill="#000000" fill-opacity="0.231373" stroke="#000000" stroke-opacity="0.231373" points="2278.95,-828.1 2273.24,-819.18 2272.14,-829.72 2278.95,-828.1"/>
<text text-anchor="middle" x="2290.69" y="-884.3" font-family="Times New Roman,serif" font-size="14.00">15</text>
</g>
<!-- 015255175191180189 -->
<g id="node32" class="node">
<title>015255175191180189</title>
<ellipse fill="none" stroke="black" cx="3649.69" cy="-975" rx="89.88" ry="18"/>
<text text-anchor="middle" x="3649.69" y="-971.3" font-family="Times New Roman,serif" font-size="14.00">015255175191180189</text>
</g>
<!-- 519729219727816705 -->
<g id="node33" class="node">
<title>519729219727816705</title>
<ellipse fill="none" stroke="black" cx="3846.69" cy="-975" rx="89.88" ry="18"/>
<text text-anchor="middle" x="3846.69" y="-971.3" font-family="Times New Roman,serif" font-size="14.00">519729219727816705</text>
</g>
<!-- 546003646711800140 -->
<g id="node37" class="node">
<title>546003646711800140</title>
<ellipse fill="none" stroke="black" cx="270.69" cy="-714" rx="89.88" ry="18"/>
<text text-anchor="middle" x="270.69" y="-710.3" font-family="Times New Roman,serif" font-size="14.00">546003646711800140</text>
</g>
<!-- 211911800357576546&#45;&gt;546003646711800140 -->
<g id="edge34" class="edge">
<title>211911800357576546&#45;&gt;546003646711800140</title>
<path fill="none" stroke="#000000" stroke-opacity="0.690196" d="M270.69,-782.8C270.69,-771.16 270.69,-755.55 270.69,-742.24"/>
<polygon fill="#000000" fill-opacity="0.690196" stroke="#000000" stroke-opacity="0.690196" points="274.19,-742.18 270.69,-732.18 267.19,-742.18 274.19,-742.18"/>
<text text-anchor="middle" x="281.19" y="-753.8" font-family="Times New Roman,serif" font-size="14.00">134</text>
</g>
<!-- 180189445229534527 -->
<g id="node39" class="node">
<title>180189445229534527</title>
<ellipse fill="none" stroke="black" cx="191.69" cy="-627" rx="89.88" ry="18"/>
<text text-anchor="middle" x="191.69" y="-623.3" font-family="Times New Roman,serif" font-size="14.00">180189445229534527</text>
</g>
<!-- 211911800357576546&#45;&gt;180189445229534527 -->
<g id="edge35" class="edge">
<title>211911800357576546&#45;&gt;180189445229534527</title>
<path fill="none" stroke="#000000" stroke-opacity="0.611765" d="M221.96,-785.74C195.89,-775.35 166.06,-758.38 150.69,-732 135.85,-706.54 153.04,-674.69 169.49,-652.99"/>
<polygon fill="#000000" fill-opacity="0.611765" stroke="#000000" stroke-opacity="0.611765" points="172.42,-654.93 175.92,-644.93 166.95,-650.56 172.42,-654.93"/>
<text text-anchor="middle" x="161.19" y="-710.3" font-family="Times New Roman,serif" font-size="14.00">105</text>
</g>
<!-- 679757714458316013 -->
<g id="node36" class="node">
<title>679757714458316013</title>
<ellipse fill="none" stroke="black" cx="4043.69" cy="-975" rx="89.88" ry="18"/>
<text text-anchor="middle" x="4043.69" y="-971.3" font-family="Times New Roman,serif" font-size="14.00">679757714458316013</text>
</g>
<!-- 546003646711800140&#45;&gt;275857651972788943 -->
<g id="edge36" class="edge">
<title>546003646711800140&#45;&gt;275857651972788943</title>
<path fill="none" stroke="#000000" stroke-opacity="0.662745" d="M298.96,-696.85C307.36,-691.4 316.29,-684.93 323.69,-678 360.08,-643.93 393.23,-596.04 411.9,-566.84"/>
<polygon fill="#000000" fill-opacity="0.662745" stroke="#000000" stroke-opacity="0.662745" points="415.06,-568.38 417.44,-558.06 409.14,-564.65 415.06,-568.38"/>
<text text-anchor="middle" x="394.19" y="-623.3" font-family="Times New Roman,serif" font-size="14.00">123</text>
</g>
<!-- 546003646711800140&#45;&gt;585765197278894388 -->
<g id="edge37" class="edge">
<title>546003646711800140&#45;&gt;585765197278894388</title>
<path fill="none" stroke="#000000" stroke-opacity="0.654902" d="M278.01,-695.87C288.25,-669.25 303.91,-616.75 287.69,-576 272.29,-537.3 240.51,-500.87 217.73,-478.07"/>
<polygon fill="#000000" fill-opacity="0.654902" stroke="#000000" stroke-opacity="0.654902" points="219.97,-475.37 210.38,-470.87 215.08,-480.37 219.97,-475.37"/>
<text text-anchor="middle" x="303.19" y="-579.8" font-family="Times New Roman,serif" font-size="14.00">121</text>
</g>
<!-- 546003646711800140&#45;&gt;952196180031145727 -->
<g id="edge38" class="edge">
<title>546003646711800140&#45;&gt;952196180031145727</title>
<path fill="none" stroke="#000000" stroke-opacity="0.580392" d="M213.71,-700.06C155.53,-685.16 73.69,-658.73 73.69,-628 73.69,-628 73.69,-628 73.69,-104 73.69,-84.41 77.85,-62.72 81.92,-46.15"/>
<polygon fill="#000000" fill-opacity="0.580392" stroke="#000000" stroke-opacity="0.580392" points="85.41,-46.64 84.54,-36.08 78.64,-44.88 85.41,-46.64"/>
<text text-anchor="middle" x="80.69" y="-362.3" font-family="Times New Roman,serif" font-size="14.00">95</text>
</g>
<!-- 546003646711800140&#45;&gt;180189445229534527 -->
<g id="edge39" class="edge">
<title>546003646711800140&#45;&gt;180189445229534527</title>
<path fill="none" stroke="#000000" stroke-opacity="0.925490" d="M255.08,-696.21C243.4,-683.63 227.24,-666.25 214.17,-652.18"/>
<polygon fill="#000000" fill-opacity="0.925490" stroke="#000000" stroke-opacity="0.925490" points="216.64,-649.7 207.27,-644.76 211.51,-654.47 216.64,-649.7"/>
<text text-anchor="middle" x="247.19" y="-666.8" font-family="Times New Roman,serif" font-size="14.00">239</text>
</g>
<!-- 895219727816705121 -->
<g id="node38" class="node">
<title>895219727816705121</title>
<ellipse fill="none" stroke="black" cx="1285.69" cy="-975" rx="89.88" ry="18"/>
<text text-anchor="middle" x="1285.69" y="-971.3" font-family="Times New Roman,serif" font-size="14.00">895219727816705121</text>
</g>
<!-- 895219727816705121&#45;&gt;781670512164800658 -->
<g id="edge40" class="edge">
<title>895219727816705121&#45;&gt;781670512164800658</title>
<path fill="none" stroke="#000000" stroke-opacity="0.678431" d="M1222.43,-962.18C1138.96,-946.59 992.33,-919.2 904.09,-902.71"/>
<polygon fill="#000000" fill-opacity="0.678431" stroke="#000000" stroke-opacity="0.678431" points="904.63,-899.25 894.15,-900.86 903.34,-906.13 904.63,-899.25"/>
<text text-anchor="middle" x="1096.19" y="-927.8" font-family="Times New Roman,serif" font-size="14.00">129</text>
</g>
<!-- 895219727816705121&#45;&gt;114312889500362496 -->
<g id="edge41" class="edge">
<title>895219727816705121&#45;&gt;114312889500362496</title>
<path fill="none" stroke="#000000" stroke-opacity="0.627451" d="M1267.12,-957.21C1253.09,-944.52 1233.64,-926.93 1218,-912.79"/>
<polygon fill="#000000" fill-opacity="0.627451" stroke="#000000" stroke-opacity="0.627451" points="1219.99,-909.87 1210.22,-905.76 1215.29,-915.06 1219.99,-909.87"/>
<text text-anchor="middle" x="1255.19" y="-927.8" font-family="Times New Roman,serif" font-size="14.00">110</text>
</g>
<!-- 895219727816705121&#45;&gt;236467211911800357 -->
<g id="edge42" class="edge">
<title>895219727816705121&#45;&gt;236467211911800357</title>
<path fill="none" stroke="#000000" stroke-opacity="0.223529" d="M1347.32,-961.81C1430.84,-944.41 1569.69,-912.03 1569.69,-889 1569.69,-889 1569.69,-889 1569.69,-365 1569.69,-332.54 1599.46,-311.24 1629.1,-298.08"/>
<polygon fill="#000000" fill-opacity="0.223529" stroke="#000000" stroke-opacity="0.223529" points="1630.79,-301.17 1638.67,-294.09 1628.1,-294.71 1630.79,-301.17"/>
<text text-anchor="middle" x="1576.69" y="-623.3" font-family="Times New Roman,serif" font-size="14.00">14</text>
</g>
<!-- 895219727816705121&#45;&gt;965855064996704672 -->
<g id="edge43" class="edge">
<title>895219727816705121&#45;&gt;965855064996704672</title>
<path fill="none" stroke="#000000" stroke-opacity="0.545098" d="M1289.51,-956.77C1293.46,-935.9 1298.1,-899.82 1290.69,-870 1287,-855.12 1279.38,-839.92 1272.1,-827.67"/>
<polygon fill="#000000" fill-opacity="0.545098" stroke="#000000" stroke-opacity="0.545098" points="1274.92,-825.58 1266.67,-818.94 1268.98,-829.28 1274.92,-825.58"/>
<text text-anchor="middle" x="1301.69" y="-884.3" font-family="Times New Roman,serif" font-size="14.00">84</text>
</g>
<!-- 180189445229534527&#45;&gt;275857651972788943 -->
<g id="edge44" class="edge">
<title>180189445229534527&#45;&gt;275857651972788943</title>
<path fill="none" stroke="#000000" stroke-opacity="0.745098" d="M212.13,-609.3C226.57,-598.3 246.81,-584.43 266.69,-576 291.34,-565.55 319.48,-558.06 345.26,-552.77"/>
<polygon fill="#000000" fill-opacity="0.745098" stroke="#000000" stroke-opacity="0.745098" points="346.26,-556.14 355.39,-550.78 344.91,-549.27 346.26,-556.14"/>
<text text-anchor="middle" x="277.19" y="-579.8" font-family="Times New Roman,serif" font-size="14.00">155</text>
</g>
<!-- 180189445229534527&#45;&gt;585765197278894388 -->
<g id="edge45" class="edge">
<title>180189445229534527&#45;&gt;585765197278894388</title>
<path fill="none" stroke="#000000" stroke-opacity="0.737255" d="M191.69,-608.88C191.69,-579 191.69,-517.11 191.69,-481.27"/>
<polygon fill="#000000" fill-opacity="0.737255" stroke="#000000" stroke-opacity="0.737255" points="195.19,-481.05 191.69,-471.05 188.19,-481.05 195.19,-481.05"/>
<text text-anchor="middle" x="202.19" y="-536.3" font-family="Times New Roman,serif" font-size="14.00">153</text>
</g>
<!-- 945765128895065128 -->
<g id="node41" class="node">
<title>945765128895065128</title>
<ellipse fill="none" stroke="black" cx="4240.69" cy="-975" rx="89.88" ry="18"/>
<text text-anchor="middle" x="4240.69" y="-971.3" font-family="Times New Roman,serif" font-size="14.00">945765128895065128</text>
</g>
<!-- 180036468895219912 -->
<g id="node43" class="node">
<title>180036468895219912</title>
<ellipse fill="none" stroke="black" cx="781.69" cy="-366" rx="89.88" ry="18"/>
<text text-anchor="middle" x="781.69" y="-362.3" font-family="Times New Roman,serif" font-size="14.00">180036468895219912</text>
</g>
<!-- 857659434421595604 -->
<g id="node44" class="node">
<title>857659434421595604</title>
<ellipse fill="none" stroke="black" cx="1254.69" cy="-540" rx="89.88" ry="18"/>
<text text-anchor="middle" x="1254.69" y="-536.3" font-family="Times New Roman,serif" font-size="14.00">857659434421595604</text>
</g>
<!-- 857659434421595604&#45;&gt;042159561513534780 -->
<g id="edge46" class="edge">
<title>857659434421595604&#45;&gt;042159561513534780</title>
<path fill="none" stroke="#000000" stroke-opacity="0.670588" d="M1275.68,-522.47C1289.68,-510.02 1306.9,-491.62 1314.69,-471 1336.55,-413.2 1264.2,-317.12 1261.69,-315 1247.83,-303.29 1230.58,-295.42 1213.01,-290.14"/>
<polygon fill="#000000" fill-opacity="0.670588" stroke="#000000" stroke-opacity="0.670588" points="1213.81,-286.73 1203.24,-287.47 1211.96,-293.49 1213.81,-286.73"/>
<text text-anchor="middle" x="1325.19" y="-405.8" font-family="Times New Roman,serif" font-size="14.00">126</text>
</g>
<!-- 857659434421595604&#45;&gt;978585765197292197 -->
<g id="edge47" class="edge">
<title>857659434421595604&#45;&gt;978585765197292197</title>
<path fill="none" stroke="#000000" stroke-opacity="0.349020" d="M1297.13,-523.92C1313.11,-518.02 1331.35,-510.99 1347.69,-504 1368.9,-494.93 1392.08,-483.9 1411.15,-474.51"/>
<polygon fill="#000000" fill-opacity="0.349020" stroke="#000000" stroke-opacity="0.349020" points="1412.76,-477.63 1420.16,-470.05 1409.65,-471.35 1412.76,-477.63"/>
<text text-anchor="middle" x="1386.69" y="-492.8" font-family="Times New Roman,serif" font-size="14.00">34</text>
</g>
<!-- 857659434421595604&#45;&gt;451904504215956151 -->
<g id="edge48" class="edge">
<title>857659434421595604&#45;&gt;451904504215956151</title>
<path fill="none" stroke="#000000" stroke-opacity="0.690196" d="M1213.04,-524C1173.15,-509.63 1112.84,-487.91 1070,-472.48"/>
<polygon fill="#000000" fill-opacity="0.690196" stroke="#000000" stroke-opacity="0.690196" points="1070.92,-469.09 1060.32,-468.99 1068.54,-475.67 1070.92,-469.09"/>
<text text-anchor="middle" x="1162.19" y="-492.8" font-family="Times New Roman,serif" font-size="14.00">133</text>
</g>
<!-- 819537243485625108 -->
<g id="node45" class="node">
<title>819537243485625108</title>
<ellipse fill="none" stroke="black" cx="1451.69" cy="-540" rx="89.88" ry="18"/>
<text text-anchor="middle" x="1451.69" y="-536.3" font-family="Times New Roman,serif" font-size="14.00">819537243485625108</text>
</g>
<!-- 819537243485625108&#45;&gt;978585765197292197 -->
<g id="edge49" class="edge">
<title>819537243485625108&#45;&gt;978585765197292197</title>
<path fill="none" stroke="#000000" stroke-opacity="0.349020" d="M1451.69,-521.8C1451.69,-510.16 1451.69,-494.55 1451.69,-481.24"/>
<polygon fill="#000000" fill-opacity="0.349020" stroke="#000000" stroke-opacity="0.349020" points="1455.19,-481.18 1451.69,-471.18 1448.19,-481.18 1455.19,-481.18"/>
<text text-anchor="middle" x="1458.69" y="-492.8" font-family="Times New Roman,serif" font-size="14.00">34</text>
</g>
<!-- 974648349472783040 -->
<g id="node46" class="node">
<title>974648349472783040</title>
<ellipse fill="none" stroke="black" cx="4437.69" cy="-975" rx="89.88" ry="18"/>
<text text-anchor="middle" x="4437.69" y="-971.3" font-family="Times New Roman,serif" font-size="14.00">974648349472783040</text>
</g>
<!-- 460036467118001401 -->
<g id="node47" class="node">
<title>460036467118001401</title>
<ellipse fill="none" stroke="black" cx="821.69" cy="-453" rx="89.88" ry="18"/>
<text text-anchor="middle" x="821.69" y="-449.3" font-family="Times New Roman,serif" font-size="14.00">460036467118001401</text>
</g>
<!-- 460036467118001401&#45;&gt;464726114514519485 -->
<g id="edge50" class="edge">
<title>460036467118001401&#45;&gt;464726114514519485</title>
<path fill="none" stroke="#000000" stroke-opacity="0.529412" d="M779.87,-437C739.72,-422.6 678.98,-400.82 635.94,-385.38"/>
<polygon fill="#000000" fill-opacity="0.529412" stroke="#000000" stroke-opacity="0.529412" points="637.09,-382.07 626.5,-381.99 634.73,-388.66 637.09,-382.07"/>
<text text-anchor="middle" x="724.69" y="-405.8" font-family="Times New Roman,serif" font-size="14.00">79</text>
</g>
<!-- 460036467118001401&#45;&gt;180036468895219911 -->
<g id="edge51" class="edge">
<title>460036467118001401&#45;&gt;180036468895219911</title>
<path fill="none" stroke="#000000" stroke-opacity="0.188235" d="M883.73,-439.98C895.63,-438.03 908.02,-436.25 919.69,-435 1113.86,-414.27 1164.31,-435.7 1358.69,-417 1447.03,-408.5 1547.82,-392.2 1614.3,-380.52"/>
<polygon fill="#000000" fill-opacity="0.188235" stroke="#000000" stroke-opacity="0.188235" points="1615.03,-383.94 1624.26,-378.76 1613.81,-377.05 1615.03,-383.94"/>
<text text-anchor="middle" x="1484.69" y="-405.8" font-family="Times New Roman,serif" font-size="14.00">10</text>
</g>
<!-- 460036467118001401&#45;&gt;756356114519199118 -->
<g id="edge52" class="edge">
<title>460036467118001401&#45;&gt;756356114519199118</title>
<path fill="none" stroke="#000000" stroke-opacity="0.301961" d="M862.99,-437C902.55,-422.63 962.34,-400.91 1004.82,-385.48"/>
<polygon fill="#000000" fill-opacity="0.301961" stroke="#000000" stroke-opacity="0.301961" points="1006.21,-388.7 1014.42,-381.99 1003.82,-382.12 1006.21,-388.7"/>
<text text-anchor="middle" x="960.69" y="-405.8" font-family="Times New Roman,serif" font-size="14.00">26</text>
</g>
<!-- 460036467118001401&#45;&gt;180036468895219912 -->
<g id="edge53" class="edge">
<title>460036467118001401&#45;&gt;180036468895219912</title>
<path fill="none" stroke="#000000" stroke-opacity="0.188235" d="M807.13,-435.01C802.98,-429.53 798.76,-423.25 795.69,-417 792.2,-409.88 789.45,-401.74 787.35,-394.14"/>
<polygon fill="#000000" fill-opacity="0.188235" stroke="#000000" stroke-opacity="0.188235" points="790.7,-393.09 784.88,-384.23 783.91,-394.78 790.7,-393.09"/>
<text text-anchor="middle" x="802.69" y="-405.8" font-family="Times New Roman,serif" font-size="14.00">10</text>
</g>
<!-- 965855064996704672&#45;&gt;857659434421595604 -->
<g id="edge54" class="edge">
<title>965855064996704672&#45;&gt;857659434421595604</title>
<path fill="none" stroke="#000000" stroke-opacity="0.309804" d="M1254.69,-782.6C1254.69,-738.46 1254.69,-621.83 1254.69,-568.42"/>
<polygon fill="#000000" fill-opacity="0.309804" stroke="#000000" stroke-opacity="0.309804" points="1258.19,-568.32 1254.69,-558.32 1251.19,-568.32 1258.19,-568.32"/>
<text text-anchor="middle" x="1261.69" y="-666.8" font-family="Times New Roman,serif" font-size="14.00">27</text>
</g>
<!-- 628477090889524348&#45;&gt;867563561145191991 -->
<g id="edge55" class="edge">
<title>628477090889524348&#45;&gt;867563561145191991</title>
<path fill="none" stroke="#000000" stroke-opacity="0.486275" d="M1220.17,-174.61C1201.3,-161.47 1174.63,-142.88 1153.8,-128.37"/>
<polygon fill="#000000" fill-opacity="0.486275" stroke="#000000" stroke-opacity="0.486275" points="1155.76,-125.47 1145.56,-122.63 1151.76,-131.22 1155.76,-125.47"/>
<text text-anchor="middle" x="1197.69" y="-144.8" font-family="Times New Roman,serif" font-size="14.00">67</text>
</g>
</g>
</svg>
