<?xml version="1.0" encoding="UTF-8" standalone="no"?>
<!DOCTYPE svg PUBLIC "-//W3C//DTD SVG 1.1//EN"
 "http://www.w3.org/Graphics/SVG/1.1/DTD/svg11.dtd">
<!-- Generated by graphviz version 3.0.0 (20220226.1711)
 -->
<!-- Pages: 1 -->
<svg width="4668pt" height="1175pt"
 viewBox="0.00 0.00 4668.38 1175.00" xmlns="http://www.w3.org/2000/svg" xmlns:xlink="http://www.w3.org/1999/xlink">
<g id="graph0" class="graph" transform="scale(1 1) rotate(0) translate(4 1171)">
<polygon fill="white" stroke="transparent" points="-4,4 -4,-1171 4664.38,-1171 4664.38,4 -4,4"/>
<!-- 867563561145191991 -->
<g id="node1" class="node">
<title>867563561145191991</title>
<ellipse fill="none" stroke="black" cx="885.69" cy="-105" rx="89.88" ry="18"/>
<text text-anchor="middle" x="885.69" y="-101.3" font-family="Times New Roman,serif" font-size="14.00">867563561145191991</text>
</g>
<!-- 952196180031145727 -->
<g id="node35" class="node">
<title>952196180031145727</title>
<ellipse fill="none" stroke="black" cx="772.69" cy="-18" rx="89.88" ry="18"/>
<text text-anchor="middle" x="772.69" y="-14.3" font-family="Times New Roman,serif" font-size="14.00">952196180031145727</text>
</g>
<!-- 867563561145191991&#45;&gt;952196180031145727 -->
<g id="edge1" class="edge">
<title>867563561145191991&#45;&gt;952196180031145727</title>
<path fill="none" stroke="#000000" stroke-opacity="0.627451" d="M863.64,-87.41C846.29,-74.36 821.95,-56.05 802.81,-41.65"/>
<polygon fill="#000000" fill-opacity="0.627451" stroke="#000000" stroke-opacity="0.627451" points="804.79,-38.76 794.69,-35.55 800.58,-44.36 804.79,-38.76"/>
<text text-anchor="middle" x="847.19" y="-57.8" font-family="Times New Roman,serif" font-size="14.00">110</text>
</g>
<!-- 781670512164800658 -->
<g id="node2" class="node">
<title>781670512164800658</title>
<ellipse fill="none" stroke="black" cx="452.69" cy="-888" rx="89.88" ry="18"/>
<text text-anchor="middle" x="452.69" y="-884.3" font-family="Times New Roman,serif" font-size="14.00">781670512164800658</text>
</g>
<!-- 211911800357576546 -->
<g id="node34" class="node">
<title>211911800357576546</title>
<ellipse fill="none" stroke="black" cx="347.69" cy="-801" rx="89.88" ry="18"/>
<text text-anchor="middle" x="347.69" y="-797.3" font-family="Times New Roman,serif" font-size="14.00">211911800357576546</text>
</g>
<!-- 781670512164800658&#45;&gt;211911800357576546 -->
<g id="edge2" class="edge">
<title>781670512164800658&#45;&gt;211911800357576546</title>
<path fill="none" stroke="#000000" stroke-opacity="0.258824" d="M432.2,-870.41C416.15,-857.42 393.66,-839.21 375.91,-824.85"/>
<polygon fill="#000000" fill-opacity="0.258824" stroke="#000000" stroke-opacity="0.258824" points="378.11,-822.12 368.13,-818.55 373.7,-827.56 378.11,-822.12"/>
<text text-anchor="middle" x="413.69" y="-840.8" font-family="Times New Roman,serif" font-size="14.00">19</text>
</g>
<!-- 945765599670467261 -->
<g id="node3" class="node">
<title>945765599670467261</title>
<ellipse fill="none" stroke="black" cx="1221.69" cy="-1149" rx="89.88" ry="18"/>
<text text-anchor="middle" x="1221.69" y="-1145.3" font-family="Times New Roman,serif" font-size="14.00">945765599670467261</text>
</g>
<!-- 275857651972788943 -->
<g id="node4" class="node">
<title>275857651972788943</title>
<ellipse fill="none" stroke="black" cx="424.69" cy="-540" rx="89.88" ry="18"/>
<text text-anchor="middle" x="424.69" y="-536.3" font-family="Times New Roman,serif" font-size="14.00">275857651972788943</text>
</g>
<!-- 585765197278894388 -->
<g id="node8" class="node">
<title>585765197278894388</title>
<ellipse fill="none" stroke="black" cx="89.69" cy="-453" rx="89.88" ry="18"/>
<text text-anchor="middle" x="89.69" y="-449.3" font-family="Times New Roman,serif" font-size="14.00">585765197278894388</text>
</g>
<!-- 275857651972788943&#45;&gt;585765197278894388 -->
<g id="edge3" class="edge">
<title>275857651972788943&#45;&gt;585765197278894388</title>
<path fill="none" stroke="#000000" stroke-opacity="0.984314" d="M380.56,-524.32C366.16,-518.78 350.36,-511.89 336.69,-504 327.37,-498.62 327.59,-493.22 317.69,-489 264.03,-466.13 245.32,-479.99 187.69,-471 180.07,-469.81 172.13,-468.52 164.21,-467.2"/>
<polygon fill="#000000" fill-opacity="0.984314" stroke="#000000" stroke-opacity="0.984314" points="164.66,-463.73 154.22,-465.52 163.5,-470.63 164.66,-463.73"/>
<text text-anchor="middle" x="347.19" y="-492.8" font-family="Times New Roman,serif" font-size="14.00">271</text>
</g>
<!-- 042159561513534780 -->
<g id="node9" class="node">
<title>042159561513534780</title>
<ellipse fill="none" stroke="black" cx="971.69" cy="-279" rx="89.88" ry="18"/>
<text text-anchor="middle" x="971.69" y="-275.3" font-family="Times New Roman,serif" font-size="14.00">042159561513534780</text>
</g>
<!-- 275857651972788943&#45;&gt;042159561513534780 -->
<g id="edge4" class="edge">
<title>275857651972788943&#45;&gt;042159561513534780</title>
<path fill="none" stroke="#000000" stroke-opacity="0.525490" d="M505.96,-532.31C597.4,-523.27 738.56,-504.34 779.69,-471 805.54,-450.05 789.83,-429.4 808.69,-402 840.42,-355.91 853.76,-346.95 899.69,-315 907.57,-309.52 916.43,-304.45 925.18,-299.97"/>
<polygon fill="#000000" fill-opacity="0.525490" stroke="#000000" stroke-opacity="0.525490" points="926.78,-303.08 934.2,-295.52 923.68,-296.81 926.78,-303.08"/>
<text text-anchor="middle" x="815.69" y="-405.8" font-family="Times New Roman,serif" font-size="14.00">78</text>
</g>
<!-- 451904504215956151 -->
<g id="node26" class="node">
<title>451904504215956151</title>
<ellipse fill="none" stroke="black" cx="974.69" cy="-453" rx="89.88" ry="18"/>
<text text-anchor="middle" x="974.69" y="-449.3" font-family="Times New Roman,serif" font-size="14.00">451904504215956151</text>
</g>
<!-- 275857651972788943&#45;&gt;451904504215956151 -->
<g id="edge5" class="edge">
<title>275857651972788943&#45;&gt;451904504215956151</title>
<path fill="none" stroke="#000000" stroke-opacity="0.549020" d="M510.57,-534.6C584.05,-529.9 692.42,-520.75 785.69,-504 831.08,-495.85 881.52,-482.27 918.87,-471.32"/>
<polygon fill="#000000" fill-opacity="0.549020" stroke="#000000" stroke-opacity="0.549020" points="919.96,-474.64 928.56,-468.45 917.98,-467.93 919.96,-474.64"/>
<text text-anchor="middle" x="861.69" y="-492.8" font-family="Times New Roman,serif" font-size="14.00">85</text>
</g>
<!-- 519118651281911800 -->
<g id="node28" class="node">
<title>519118651281911800</title>
<ellipse fill="none" stroke="black" cx="483.69" cy="-453" rx="89.88" ry="18"/>
<text text-anchor="middle" x="483.69" y="-449.3" font-family="Times New Roman,serif" font-size="14.00">519118651281911800</text>
</g>
<!-- 275857651972788943&#45;&gt;519118651281911800 -->
<g id="edge6" class="edge">
<title>275857651972788943&#45;&gt;519118651281911800</title>
<path fill="none" stroke="#000000" stroke-opacity="0.321569" d="M436.63,-521.8C445.08,-509.62 456.56,-493.09 466.06,-479.4"/>
<polygon fill="#000000" fill-opacity="0.321569" stroke="#000000" stroke-opacity="0.321569" points="469.14,-481.1 471.97,-470.89 463.39,-477.1 469.14,-481.1"/>
<text text-anchor="middle" x="465.69" y="-492.8" font-family="Times New Roman,serif" font-size="14.00">29</text>
</g>
<!-- 857744545190450421 -->
<g id="node31" class="node">
<title>857744545190450421</title>
<ellipse fill="none" stroke="black" cx="286.69" cy="-453" rx="89.88" ry="18"/>
<text text-anchor="middle" x="286.69" y="-449.3" font-family="Times New Roman,serif" font-size="14.00">857744545190450421</text>
</g>
<!-- 275857651972788943&#45;&gt;857744545190450421 -->
<g id="edge7" class="edge">
<title>275857651972788943&#45;&gt;857744545190450421</title>
<path fill="none" stroke="#000000" stroke-opacity="0.572549" d="M405.98,-522.23C393.88,-511.88 377.49,-498.77 361.69,-489 352.8,-483.5 342.91,-478.3 333.3,-473.68"/>
<polygon fill="#000000" fill-opacity="0.572549" stroke="#000000" stroke-opacity="0.572549" points="334.75,-470.49 324.21,-469.43 331.79,-476.83 334.75,-470.49"/>
<text text-anchor="middle" x="389.69" y="-492.8" font-family="Times New Roman,serif" font-size="14.00">92</text>
</g>
<!-- 304648435345158604 -->
<g id="node5" class="node">
<title>304648435345158604</title>
<ellipse fill="none" stroke="black" cx="1418.69" cy="-1149" rx="89.88" ry="18"/>
<text text-anchor="middle" x="1418.69" y="-1145.3" font-family="Times New Roman,serif" font-size="14.00">304648435345158604</text>
</g>
<!-- 843534515867511216 -->
<g id="node6" class="node">
<title>843534515867511216</title>
<ellipse fill="none" stroke="black" cx="1615.69" cy="-1149" rx="89.88" ry="18"/>
<text text-anchor="middle" x="1615.69" y="-1145.3" font-family="Times New Roman,serif" font-size="14.00">843534515867511216</text>
</g>
<!-- 464726114514519485 -->
<g id="node7" class="node">
<title>464726114514519485</title>
<ellipse fill="none" stroke="black" cx="605.69" cy="-366" rx="89.88" ry="18"/>
<text text-anchor="middle" x="605.69" y="-362.3" font-family="Times New Roman,serif" font-size="14.00">464726114514519485</text>
</g>
<!-- 952199118435081243 -->
<g id="node48" class="node">
<title>952199118435081243</title>
<ellipse fill="none" stroke="black" cx="522.69" cy="-279" rx="89.88" ry="18"/>
<text text-anchor="middle" x="522.69" y="-275.3" font-family="Times New Roman,serif" font-size="14.00">952199118435081243</text>
</g>
<!-- 464726114514519485&#45;&gt;952199118435081243 -->
<g id="edge8" class="edge">
<title>464726114514519485&#45;&gt;952199118435081243</title>
<path fill="none" stroke="#000000" stroke-opacity="0.521569" d="M589.29,-348.21C577.02,-335.63 560.04,-318.25 546.31,-304.18"/>
<polygon fill="#000000" fill-opacity="0.521569" stroke="#000000" stroke-opacity="0.521569" points="548.55,-301.47 539.06,-296.76 543.54,-306.36 548.55,-301.47"/>
<text text-anchor="middle" x="576.69" y="-318.8" font-family="Times New Roman,serif" font-size="14.00">76</text>
</g>
<!-- 042159561513534780&#45;&gt;867563561145191991 -->
<g id="edge9" class="edge">
<title>042159561513534780&#45;&gt;867563561145191991</title>
<path fill="none" stroke="#000000" stroke-opacity="0.376471" d="M944.37,-261.72C926.97,-249.76 905.69,-231.82 894.69,-210 882.69,-186.19 881.51,-155.39 882.68,-133.51"/>
<polygon fill="#000000" fill-opacity="0.376471" stroke="#000000" stroke-opacity="0.376471" points="886.19,-133.48 883.43,-123.25 879.21,-132.97 886.19,-133.48"/>
<text text-anchor="middle" x="901.69" y="-188.3" font-family="Times New Roman,serif" font-size="14.00">40</text>
</g>
<!-- 628477090889524348 -->
<g id="node50" class="node">
<title>628477090889524348</title>
<ellipse fill="none" stroke="black" cx="1007.69" cy="-192" rx="89.88" ry="18"/>
<text text-anchor="middle" x="1007.69" y="-188.3" font-family="Times New Roman,serif" font-size="14.00">628477090889524348</text>
</g>
<!-- 042159561513534780&#45;&gt;628477090889524348 -->
<g id="edge10" class="edge">
<title>042159561513534780&#45;&gt;628477090889524348</title>
<path fill="none" stroke="#000000" stroke-opacity="0.501961" d="M978.98,-260.8C984,-248.93 990.78,-232.93 996.49,-219.45"/>
<polygon fill="#000000" fill-opacity="0.501961" stroke="#000000" stroke-opacity="0.501961" points="999.74,-220.75 1000.42,-210.18 993.29,-218.02 999.74,-220.75"/>
<text text-anchor="middle" x="999.69" y="-231.8" font-family="Times New Roman,serif" font-size="14.00">71</text>
</g>
<!-- 180036468895219911 -->
<g id="node10" class="node">
<title>180036468895219911</title>
<ellipse fill="none" stroke="black" cx="907.69" cy="-975" rx="89.88" ry="18"/>
<text text-anchor="middle" x="907.69" y="-971.3" font-family="Times New Roman,serif" font-size="14.00">180036468895219911</text>
</g>
<!-- 236467211911800357 -->
<g id="node29" class="node">
<title>236467211911800357</title>
<ellipse fill="none" stroke="black" cx="914.69" cy="-888" rx="89.88" ry="18"/>
<text text-anchor="middle" x="914.69" y="-884.3" font-family="Times New Roman,serif" font-size="14.00">236467211911800357</text>
</g>
<!-- 180036468895219911&#45;&gt;236467211911800357 -->
<g id="edge11" class="edge">
<title>180036468895219911&#45;&gt;236467211911800357</title>
<path fill="none" stroke="#000000" stroke-opacity="0.631373" d="M909.11,-956.8C910.07,-945.16 911.35,-929.55 912.45,-916.24"/>
<polygon fill="#000000" fill-opacity="0.631373" stroke="#000000" stroke-opacity="0.631373" points="915.94,-916.43 913.28,-906.18 908.97,-915.85 915.94,-916.43"/>
<text text-anchor="middle" x="922.19" y="-927.8" font-family="Times New Roman,serif" font-size="14.00">112</text>
</g>
<!-- 783020311806571918 -->
<g id="node11" class="node">
<title>783020311806571918</title>
<ellipse fill="none" stroke="black" cx="1812.69" cy="-1149" rx="89.88" ry="18"/>
<text text-anchor="middle" x="1812.69" y="-1145.3" font-family="Times New Roman,serif" font-size="14.00">783020311806571918</text>
</g>
<!-- 727894315191185191 -->
<g id="node12" class="node">
<title>727894315191185191</title>
<ellipse fill="none" stroke="black" cx="1922.69" cy="-1062" rx="89.88" ry="18"/>
<text text-anchor="middle" x="1922.69" y="-1058.3" font-family="Times New Roman,serif" font-size="14.00">727894315191185191</text>
</g>
<!-- 383435081243485611 -->
<g id="node13" class="node">
<title>383435081243485611</title>
<ellipse fill="none" stroke="black" cx="2007.69" cy="-975" rx="89.88" ry="18"/>
<text text-anchor="middle" x="2007.69" y="-971.3" font-family="Times New Roman,serif" font-size="14.00">383435081243485611</text>
</g>
<!-- 727894315191185191&#45;&gt;383435081243485611 -->
<g id="edge12" class="edge">
<title>727894315191185191&#45;&gt;383435081243485611</title>
<path fill="none" stroke="#000000" stroke-opacity="0.615686" d="M1939.49,-1044.21C1952.06,-1031.63 1969.44,-1014.25 1983.51,-1000.18"/>
<polygon fill="#000000" fill-opacity="0.615686" stroke="#000000" stroke-opacity="0.615686" points="1986.34,-1002.3 1990.93,-992.76 1981.39,-997.35 1986.34,-1002.3"/>
<text text-anchor="middle" x="1981.19" y="-1014.8" font-family="Times New Roman,serif" font-size="14.00">106</text>
</g>
<!-- 781670574770909612 -->
<g id="node14" class="node">
<title>781670574770909612</title>
<ellipse fill="none" stroke="black" cx="2206.69" cy="-1149" rx="89.88" ry="18"/>
<text text-anchor="middle" x="2206.69" y="-1145.3" font-family="Times New Roman,serif" font-size="14.00">781670574770909612</text>
</g>
<!-- 978585765197292197 -->
<g id="node15" class="node">
<title>978585765197292197</title>
<ellipse fill="none" stroke="black" cx="1285.69" cy="-453" rx="89.88" ry="18"/>
<text text-anchor="middle" x="1285.69" y="-449.3" font-family="Times New Roman,serif" font-size="14.00">978585765197292197</text>
</g>
<!-- 978585765197292197&#45;&gt;628477090889524348 -->
<g id="edge13" class="edge">
<title>978585765197292197&#45;&gt;628477090889524348</title>
<path fill="none" stroke="#000000" stroke-opacity="0.341176" d="M1273.22,-435.07C1242.8,-394.73 1160.82,-291.58 1072.69,-228 1065.67,-222.93 1057.83,-218.1 1050.08,-213.74"/>
<polygon fill="#000000" fill-opacity="0.341176" stroke="#000000" stroke-opacity="0.341176" points="1051.55,-210.55 1041.1,-208.84 1048.2,-216.7 1051.55,-210.55"/>
<text text-anchor="middle" x="1190.69" y="-318.8" font-family="Times New Roman,serif" font-size="14.00">33</text>
</g>
<!-- 756356114519199118 -->
<g id="node16" class="node">
<title>756356114519199118</title>
<ellipse fill="none" stroke="black" cx="1011.69" cy="-366" rx="89.88" ry="18"/>
<text text-anchor="middle" x="1011.69" y="-362.3" font-family="Times New Roman,serif" font-size="14.00">756356114519199118</text>
</g>
<!-- 756356114519199118&#45;&gt;042159561513534780 -->
<g id="edge14" class="edge">
<title>756356114519199118&#45;&gt;042159561513534780</title>
<path fill="none" stroke="#000000" stroke-opacity="0.368627" d="M1003.6,-347.8C998.01,-335.93 990.48,-319.93 984.14,-306.45"/>
<polygon fill="#000000" fill-opacity="0.368627" stroke="#000000" stroke-opacity="0.368627" points="987.2,-304.73 979.77,-297.18 980.87,-307.71 987.2,-304.73"/>
<text text-anchor="middle" x="1001.69" y="-318.8" font-family="Times New Roman,serif" font-size="14.00">38</text>
</g>
<!-- 756356114519199118&#45;&gt;451904504215956151 -->
<g id="edge15" class="edge">
<title>756356114519199118&#45;&gt;451904504215956151</title>
<path fill="none" stroke="#000000" stroke-opacity="0.400000" d="M989.1,-383.71C983.72,-388.92 978.68,-395.12 975.69,-402 972.68,-408.93 971.6,-416.92 971.49,-424.46"/>
<polygon fill="#000000" fill-opacity="0.400000" stroke="#000000" stroke-opacity="0.400000" points="968,-424.78 971.87,-434.65 974.99,-424.52 968,-424.78"/>
<text text-anchor="middle" x="982.69" y="-405.8" font-family="Times New Roman,serif" font-size="14.00">45</text>
</g>
<!-- 017464834943435282 -->
<g id="node17" class="node">
<title>017464834943435282</title>
<ellipse fill="none" stroke="black" cx="2403.69" cy="-1149" rx="89.88" ry="18"/>
<text text-anchor="middle" x="2403.69" y="-1145.3" font-family="Times New Roman,serif" font-size="14.00">017464834943435282</text>
</g>
<!-- 435282177830457651 -->
<g id="node40" class="node">
<title>435282177830457651</title>
<ellipse fill="none" stroke="black" cx="2403.69" cy="-1062" rx="89.88" ry="18"/>
<text text-anchor="middle" x="2403.69" y="-1058.3" font-family="Times New Roman,serif" font-size="14.00">435282177830457651</text>
</g>
<!-- 017464834943435282&#45;&gt;435282177830457651 -->
<g id="edge16" class="edge">
<title>017464834943435282&#45;&gt;435282177830457651</title>
<path fill="none" stroke="#000000" stroke-opacity="0.427451" d="M2403.69,-1130.8C2403.69,-1119.16 2403.69,-1103.55 2403.69,-1090.24"/>
<polygon fill="#000000" fill-opacity="0.427451" stroke="#000000" stroke-opacity="0.427451" points="2407.19,-1090.18 2403.69,-1080.18 2400.19,-1090.18 2407.19,-1090.18"/>
<text text-anchor="middle" x="2410.69" y="-1101.8" font-family="Times New Roman,serif" font-size="14.00">51</text>
</g>
<!-- 508434856114572785 -->
<g id="node18" class="node">
<title>508434856114572785</title>
<ellipse fill="none" stroke="black" cx="1085.69" cy="-1062" rx="89.88" ry="18"/>
<text text-anchor="middle" x="1085.69" y="-1058.3" font-family="Times New Roman,serif" font-size="14.00">508434856114572785</text>
</g>
<!-- 508434856114572785&#45;&gt;180036468895219911 -->
<g id="edge17" class="edge">
<title>508434856114572785&#45;&gt;180036468895219911</title>
<path fill="none" stroke="#000000" stroke-opacity="0.454902" d="M1052.63,-1045.21C1023.75,-1031.42 981.64,-1011.31 950.25,-996.32"/>
<polygon fill="#000000" fill-opacity="0.454902" stroke="#000000" stroke-opacity="0.454902" points="951.41,-993 940.88,-991.85 948.4,-999.32 951.41,-993"/>
<text text-anchor="middle" x="1014.69" y="-1014.8" font-family="Times New Roman,serif" font-size="14.00">58</text>
</g>
<!-- 508434856114572785&#45;&gt;236467211911800357 -->
<g id="edge18" class="edge">
<title>508434856114572785&#45;&gt;236467211911800357</title>
<path fill="none" stroke="#000000" stroke-opacity="0.321569" d="M1126.85,-1045.83C1171.38,-1027.11 1232.43,-993.28 1203.69,-957 1179,-925.82 1079.06,-907.52 1003.56,-897.91"/>
<polygon fill="#000000" fill-opacity="0.321569" stroke="#000000" stroke-opacity="0.321569" points="1003.91,-894.42 993.55,-896.66 1003.04,-901.37 1003.91,-894.42"/>
<text text-anchor="middle" x="1218.69" y="-971.3" font-family="Times New Roman,serif" font-size="14.00">29</text>
</g>
<!-- 651288952364672119 -->
<g id="node42" class="node">
<title>651288952364672119</title>
<ellipse fill="none" stroke="black" cx="1104.69" cy="-975" rx="89.88" ry="18"/>
<text text-anchor="middle" x="1104.69" y="-971.3" font-family="Times New Roman,serif" font-size="14.00">651288952364672119</text>
</g>
<!-- 508434856114572785&#45;&gt;651288952364672119 -->
<g id="edge19" class="edge">
<title>508434856114572785&#45;&gt;651288952364672119</title>
<path fill="none" stroke="#000000" stroke-opacity="0.360784" d="M1089.54,-1043.8C1092.14,-1032.16 1095.63,-1016.55 1098.6,-1003.24"/>
<polygon fill="#000000" fill-opacity="0.360784" stroke="#000000" stroke-opacity="0.360784" points="1102.09,-1003.7 1100.85,-993.18 1095.26,-1002.17 1102.09,-1003.7"/>
<text text-anchor="middle" x="1103.69" y="-1014.8" font-family="Times New Roman,serif" font-size="14.00">37</text>
</g>
<!-- 219605796366125275 -->
<g id="node19" class="node">
<title>219605796366125275</title>
<ellipse fill="none" stroke="black" cx="2600.69" cy="-1149" rx="89.88" ry="18"/>
<text text-anchor="middle" x="2600.69" y="-1145.3" font-family="Times New Roman,serif" font-size="14.00">219605796366125275</text>
</g>
<!-- 572785726118576436 -->
<g id="node20" class="node">
<title>572785726118576436</title>
<ellipse fill="none" stroke="black" cx="2797.69" cy="-1149" rx="89.88" ry="18"/>
<text text-anchor="middle" x="2797.69" y="-1145.3" font-family="Times New Roman,serif" font-size="14.00">572785726118576436</text>
</g>
<!-- 404215857651216151 -->
<g id="node21" class="node">
<title>404215857651216151</title>
<ellipse fill="none" stroke="black" cx="1024.69" cy="-1149" rx="89.88" ry="18"/>
<text text-anchor="middle" x="1024.69" y="-1145.3" font-family="Times New Roman,serif" font-size="14.00">404215857651216151</text>
</g>
<!-- 404215857651216151&#45;&gt;180036468895219911 -->
<g id="edge20" class="edge">
<title>404215857651216151&#45;&gt;180036468895219911</title>
<path fill="none" stroke="#000000" stroke-opacity="0.301961" d="M1010.98,-1131C1000.22,-1117.45 985.05,-1097.84 972.69,-1080 954.74,-1054.08 935.81,-1023.35 923.03,-1002.04"/>
<polygon fill="#000000" fill-opacity="0.301961" stroke="#000000" stroke-opacity="0.301961" points="925.92,-1000.05 917.79,-993.25 919.91,-1003.63 925.92,-1000.05"/>
<text text-anchor="middle" x="979.69" y="-1058.3" font-family="Times New Roman,serif" font-size="14.00">26</text>
</g>
<!-- 404215857651216151&#45;&gt;508434856114572785 -->
<g id="edge21" class="edge">
<title>404215857651216151&#45;&gt;508434856114572785</title>
<path fill="none" stroke="#000000" stroke-opacity="0.717647" d="M1037.04,-1130.8C1045.77,-1118.62 1057.64,-1102.09 1067.47,-1088.4"/>
<polygon fill="#000000" fill-opacity="0.717647" stroke="#000000" stroke-opacity="0.717647" points="1070.59,-1090.05 1073.57,-1079.89 1064.9,-1085.97 1070.59,-1090.05"/>
<text text-anchor="middle" x="1070.19" y="-1101.8" font-family="Times New Roman,serif" font-size="14.00">144</text>
</g>
<!-- 114312889500362496 -->
<g id="node22" class="node">
<title>114312889500362496</title>
<ellipse fill="none" stroke="black" cx="666.69" cy="-888" rx="89.88" ry="18"/>
<text text-anchor="middle" x="666.69" y="-884.3" font-family="Times New Roman,serif" font-size="14.00">114312889500362496</text>
</g>
<!-- 965855064996704672 -->
<g id="node49" class="node">
<title>965855064996704672</title>
<ellipse fill="none" stroke="black" cx="792.69" cy="-801" rx="89.88" ry="18"/>
<text text-anchor="middle" x="792.69" y="-797.3" font-family="Times New Roman,serif" font-size="14.00">965855064996704672</text>
</g>
<!-- 114312889500362496&#45;&gt;965855064996704672 -->
<g id="edge22" class="edge">
<title>114312889500362496&#45;&gt;965855064996704672</title>
<path fill="none" stroke="#000000" stroke-opacity="0.666667" d="M690.99,-870.61C710.6,-857.38 738.37,-838.64 759.95,-824.09"/>
<polygon fill="#000000" fill-opacity="0.666667" stroke="#000000" stroke-opacity="0.666667" points="762.14,-826.83 768.47,-818.34 758.23,-821.03 762.14,-826.83"/>
<text text-anchor="middle" x="748.19" y="-840.8" font-family="Times New Roman,serif" font-size="14.00">125</text>
</g>
<!-- 094343508434856118 -->
<g id="node23" class="node">
<title>094343508434856118</title>
<ellipse fill="none" stroke="black" cx="2994.69" cy="-1149" rx="89.88" ry="18"/>
<text text-anchor="middle" x="2994.69" y="-1145.3" font-family="Times New Roman,serif" font-size="14.00">094343508434856118</text>
</g>
<!-- 534527446190830457 -->
<g id="node24" class="node">
<title>534527446190830457</title>
<ellipse fill="none" stroke="black" cx="1204.69" cy="-192" rx="89.88" ry="18"/>
<text text-anchor="middle" x="1204.69" y="-188.3" font-family="Times New Roman,serif" font-size="14.00">534527446190830457</text>
</g>
<!-- 534527446190830457&#45;&gt;867563561145191991 -->
<g id="edge23" class="edge">
<title>534527446190830457&#45;&gt;867563561145191991</title>
<path fill="none" stroke="#000000" stroke-opacity="0.231373" d="M1153.08,-177.25C1096.88,-162.27 1007.02,-138.33 947.19,-122.39"/>
<polygon fill="#000000" fill-opacity="0.231373" stroke="#000000" stroke-opacity="0.231373" points="948.05,-118.99 937.49,-119.8 946.25,-125.76 948.05,-118.99"/>
<text text-anchor="middle" x="1071.69" y="-144.8" font-family="Times New Roman,serif" font-size="14.00">15</text>
</g>
<!-- 467252197752364672 -->
<g id="node25" class="node">
<title>467252197752364672</title>
<ellipse fill="none" stroke="black" cx="3191.69" cy="-1149" rx="89.88" ry="18"/>
<text text-anchor="middle" x="3191.69" y="-1145.3" font-family="Times New Roman,serif" font-size="14.00">467252197752364672</text>
</g>
<!-- 451904504215956151&#45;&gt;867563561145191991 -->
<g id="edge24" class="edge">
<title>451904504215956151&#45;&gt;867563561145191991</title>
<path fill="none" stroke="#000000" stroke-opacity="0.368627" d="M898.34,-443.37C880.82,-438.14 863.57,-429.9 850.69,-417 834.39,-400.67 836.69,-390.08 836.69,-367 836.69,-367 836.69,-367 836.69,-191 836.69,-168.52 849.72,-146.62 862.34,-130.69"/>
<polygon fill="#000000" fill-opacity="0.368627" stroke="#000000" stroke-opacity="0.368627" points="865.1,-132.84 868.83,-122.92 859.73,-128.35 865.1,-132.84"/>
<text text-anchor="middle" x="843.69" y="-275.3" font-family="Times New Roman,serif" font-size="14.00">38</text>
</g>
<!-- 451904504215956151&#45;&gt;042159561513534780 -->
<g id="edge25" class="edge">
<title>451904504215956151&#45;&gt;042159561513534780</title>
<path fill="none" stroke="#000000" d="M943.81,-436.02C924.95,-424.4 902.45,-406.73 891.69,-384 884.85,-369.54 884.98,-362.52 891.69,-348 900.49,-328.98 917.52,-313.33 933.61,-301.86"/>
<polygon fill="#000000" stroke="#000000" points="935.58,-304.75 941.89,-296.24 931.65,-298.96 935.58,-304.75"/>
<text text-anchor="middle" x="902.19" y="-362.3" font-family="Times New Roman,serif" font-size="14.00">279</text>
</g>
<!-- 451904504215956151&#45;&gt;756356114519199118 -->
<g id="edge26" class="edge">
<title>451904504215956151&#45;&gt;756356114519199118</title>
<path fill="none" stroke="#000000" stroke-opacity="0.356863" d="M982.18,-434.8C987.35,-422.93 994.31,-406.93 1000.18,-393.45"/>
<polygon fill="#000000" fill-opacity="0.356863" stroke="#000000" stroke-opacity="0.356863" points="1003.43,-394.74 1004.22,-384.18 997.02,-391.95 1003.43,-394.74"/>
<text text-anchor="middle" x="1002.69" y="-405.8" font-family="Times New Roman,serif" font-size="14.00">36</text>
</g>
<!-- 451904504215956151&#45;&gt;628477090889524348 -->
<g id="edge27" class="edge">
<title>451904504215956151&#45;&gt;628477090889524348</title>
<path fill="none" stroke="#000000" stroke-opacity="0.494118" d="M1031.11,-438.97C1060.25,-429.07 1093.27,-412.18 1110.69,-384 1146.98,-325.29 1078.59,-252.8 1036.75,-216.31"/>
<polygon fill="#000000" fill-opacity="0.494118" stroke="#000000" stroke-opacity="0.494118" points="1038.91,-213.55 1029.03,-209.72 1034.36,-218.88 1038.91,-213.55"/>
<text text-anchor="middle" x="1125.69" y="-318.8" font-family="Times New Roman,serif" font-size="14.00">69</text>
</g>
<!-- 843508192159561513 -->
<g id="node27" class="node">
<title>843508192159561513</title>
<ellipse fill="none" stroke="black" cx="3388.69" cy="-1149" rx="89.88" ry="18"/>
<text text-anchor="middle" x="3388.69" y="-1145.3" font-family="Times New Roman,serif" font-size="14.00">843508192159561513</text>
</g>
<!-- 519118651281911800&#45;&gt;464726114514519485 -->
<g id="edge28" class="edge">
<title>519118651281911800&#45;&gt;464726114514519485</title>
<path fill="none" stroke="#000000" stroke-opacity="0.627451" d="M507.21,-435.61C526.08,-422.47 552.75,-403.88 573.58,-389.37"/>
<polygon fill="#000000" fill-opacity="0.627451" stroke="#000000" stroke-opacity="0.627451" points="575.62,-392.22 581.83,-383.63 571.62,-386.47 575.62,-392.22"/>
<text text-anchor="middle" x="563.19" y="-405.8" font-family="Times New Roman,serif" font-size="14.00">111</text>
</g>
<!-- 519118651281911800&#45;&gt;952199118435081243 -->
<g id="edge29" class="edge">
<title>519118651281911800&#45;&gt;952199118435081243</title>
<path fill="none" stroke="#000000" stroke-opacity="0.337255" d="M483.47,-434.78C483.58,-413.91 485.04,-377.84 492.69,-348 496.36,-333.7 502.74,-318.6 508.68,-306.27"/>
<polygon fill="#000000" fill-opacity="0.337255" stroke="#000000" stroke-opacity="0.337255" points="511.95,-307.55 513.28,-297.04 505.68,-304.43 511.95,-307.55"/>
<text text-anchor="middle" x="499.69" y="-362.3" font-family="Times New Roman,serif" font-size="14.00">32</text>
</g>
<!-- 576521972789431519 -->
<g id="node30" class="node">
<title>576521972789431519</title>
<ellipse fill="none" stroke="black" cx="2009.69" cy="-1149" rx="89.88" ry="18"/>
<text text-anchor="middle" x="2009.69" y="-1145.3" font-family="Times New Roman,serif" font-size="14.00">576521972789431519</text>
</g>
<!-- 576521972789431519&#45;&gt;727894315191185191 -->
<g id="edge30" class="edge">
<title>576521972789431519&#45;&gt;727894315191185191</title>
<path fill="none" stroke="#000000" stroke-opacity="0.431373" d="M1992.5,-1131.21C1979.52,-1118.52 1961.51,-1100.93 1947.04,-1086.79"/>
<polygon fill="#000000" fill-opacity="0.431373" stroke="#000000" stroke-opacity="0.431373" points="1949.44,-1084.24 1939.84,-1079.76 1944.55,-1089.25 1949.44,-1084.24"/>
<text text-anchor="middle" x="1978.69" y="-1101.8" font-family="Times New Roman,serif" font-size="14.00">52</text>
</g>
<!-- 576521972789431519&#45;&gt;383435081243485611 -->
<g id="edge31" class="edge">
<title>576521972789431519&#45;&gt;383435081243485611</title>
<path fill="none" stroke="#000000" stroke-opacity="0.231373" d="M2013.99,-1130.72C2018.58,-1110.09 2024.81,-1074.56 2021.69,-1044 2020.3,-1030.32 2017.37,-1015.33 2014.55,-1002.92"/>
<polygon fill="#000000" fill-opacity="0.231373" stroke="#000000" stroke-opacity="0.231373" points="2017.95,-1002.1 2012.24,-993.18 2011.14,-1003.72 2017.95,-1002.1"/>
<text text-anchor="middle" x="2029.69" y="-1058.3" font-family="Times New Roman,serif" font-size="14.00">15</text>
</g>
<!-- 015255175191180189 -->
<g id="node32" class="node">
<title>015255175191180189</title>
<ellipse fill="none" stroke="black" cx="3585.69" cy="-1149" rx="89.88" ry="18"/>
<text text-anchor="middle" x="3585.69" y="-1145.3" font-family="Times New Roman,serif" font-size="14.00">015255175191180189</text>
</g>
<!-- 519729219727816705 -->
<g id="node33" class="node">
<title>519729219727816705</title>
<ellipse fill="none" stroke="black" cx="3782.69" cy="-1149" rx="89.88" ry="18"/>
<text text-anchor="middle" x="3782.69" y="-1145.3" font-family="Times New Roman,serif" font-size="14.00">519729219727816705</text>
</g>
<!-- 546003646711800140 -->
<g id="node37" class="node">
<title>546003646711800140</title>
<ellipse fill="none" stroke="black" cx="347.69" cy="-714" rx="89.88" ry="18"/>
<text text-anchor="middle" x="347.69" y="-710.3" font-family="Times New Roman,serif" font-size="14.00">546003646711800140</text>
</g>
<!-- 211911800357576546&#45;&gt;546003646711800140 -->
<g id="edge32" class="edge">
<title>211911800357576546&#45;&gt;546003646711800140</title>
<path fill="none" stroke="#000000" stroke-opacity="0.690196" d="M347.69,-782.8C347.69,-771.16 347.69,-755.55 347.69,-742.24"/>
<polygon fill="#000000" fill-opacity="0.690196" stroke="#000000" stroke-opacity="0.690196" points="351.19,-742.18 347.69,-732.18 344.19,-742.18 351.19,-742.18"/>
<text text-anchor="middle" x="358.19" y="-753.8" font-family="Times New Roman,serif" font-size="14.00">134</text>
</g>
<!-- 180189445229534527 -->
<g id="node39" class="node">
<title>180189445229534527</title>
<ellipse fill="none" stroke="black" cx="188.69" cy="-627" rx="89.88" ry="18"/>
<text text-anchor="middle" x="188.69" y="-623.3" font-family="Times New Roman,serif" font-size="14.00">180189445229534527</text>
</g>
<!-- 211911800357576546&#45;&gt;180189445229534527 -->
<g id="edge33" class="edge">
<title>211911800357576546&#45;&gt;180189445229534527</title>
<path fill="none" stroke="#000000" stroke-opacity="0.611765" d="M306.11,-785.01C280.44,-773.88 248.53,-756.4 227.69,-732 208.88,-709.98 198.71,-677.99 193.53,-655.32"/>
<polygon fill="#000000" fill-opacity="0.611765" stroke="#000000" stroke-opacity="0.611765" points="196.91,-654.39 191.42,-645.32 190.06,-655.83 196.91,-654.39"/>
<text text-anchor="middle" x="238.19" y="-710.3" font-family="Times New Roman,serif" font-size="14.00">105</text>
</g>
<!-- 679757714458316013 -->
<g id="node36" class="node">
<title>679757714458316013</title>
<ellipse fill="none" stroke="black" cx="3979.69" cy="-1149" rx="89.88" ry="18"/>
<text text-anchor="middle" x="3979.69" y="-1145.3" font-family="Times New Roman,serif" font-size="14.00">679757714458316013</text>
</g>
<!-- 546003646711800140&#45;&gt;275857651972788943 -->
<g id="edge34" class="edge">
<title>546003646711800140&#45;&gt;275857651972788943</title>
<path fill="none" stroke="#000000" stroke-opacity="0.662745" d="M355.36,-695.88C368.85,-665.74 396.92,-603.04 412.89,-567.35"/>
<polygon fill="#000000" fill-opacity="0.662745" stroke="#000000" stroke-opacity="0.662745" points="416.17,-568.61 417.06,-558.05 409.78,-565.75 416.17,-568.61"/>
<text text-anchor="middle" x="405.19" y="-623.3" font-family="Times New Roman,serif" font-size="14.00">123</text>
</g>
<!-- 546003646711800140&#45;&gt;585765197278894388 -->
<g id="edge35" class="edge">
<title>546003646711800140&#45;&gt;585765197278894388</title>
<path fill="none" stroke="#000000" stroke-opacity="0.654902" d="M343.22,-695.62C335.33,-667.72 316.68,-612.37 284.69,-576 243.41,-529.07 179.72,-493.92 136.45,-473.69"/>
<polygon fill="#000000" fill-opacity="0.654902" stroke="#000000" stroke-opacity="0.654902" points="137.82,-470.47 127.27,-469.48 134.9,-476.83 137.82,-470.47"/>
<text text-anchor="middle" x="307.19" y="-579.8" font-family="Times New Roman,serif" font-size="14.00">121</text>
</g>
<!-- 546003646711800140&#45;&gt;952196180031145727 -->
<g id="edge36" class="edge">
<title>546003646711800140&#45;&gt;952196180031145727</title>
<path fill="none" stroke="#000000" stroke-opacity="0.580392" d="M430.37,-706.97C569.81,-695.68 836.69,-668.74 836.69,-628 836.69,-628 836.69,-628 836.69,-495.5 836.69,-456.54 814.19,-452.29 797.69,-417 778.48,-375.89 756.69,-368.88 756.69,-323.5 756.69,-323.5 756.69,-323.5 756.69,-104 756.69,-84.41 760.85,-62.72 764.92,-46.15"/>
<polygon fill="#000000" fill-opacity="0.580392" stroke="#000000" stroke-opacity="0.580392" points="768.41,-46.64 767.54,-36.08 761.64,-44.88 768.41,-46.64"/>
<text text-anchor="middle" x="785.69" y="-362.3" font-family="Times New Roman,serif" font-size="14.00">95</text>
</g>
<!-- 546003646711800140&#45;&gt;180189445229534527 -->
<g id="edge37" class="edge">
<title>546003646711800140&#45;&gt;180189445229534527</title>
<path fill="none" stroke="#000000" stroke-opacity="0.925490" d="M311.72,-697.42C298.94,-691.62 284.53,-684.8 271.69,-678 255.32,-669.33 237.67,-658.87 222.87,-649.76"/>
<polygon fill="#000000" fill-opacity="0.925490" stroke="#000000" stroke-opacity="0.925490" points="224.41,-646.59 214.07,-644.29 220.72,-652.54 224.41,-646.59"/>
<text text-anchor="middle" x="282.19" y="-666.8" font-family="Times New Roman,serif" font-size="14.00">239</text>
</g>
<!-- 895219727816705121 -->
<g id="node38" class="node">
<title>895219727816705121</title>
<ellipse fill="none" stroke="black" cx="697.69" cy="-975" rx="89.88" ry="18"/>
<text text-anchor="middle" x="697.69" y="-971.3" font-family="Times New Roman,serif" font-size="14.00">895219727816705121</text>
</g>
<!-- 895219727816705121&#45;&gt;781670512164800658 -->
<g id="edge38" class="edge">
<title>895219727816705121&#45;&gt;781670512164800658</title>
<path fill="none" stroke="#000000" stroke-opacity="0.678431" d="M654.74,-959.1C613.06,-944.64 549.73,-922.67 505.1,-907.18"/>
<polygon fill="#000000" fill-opacity="0.678431" stroke="#000000" stroke-opacity="0.678431" points="506.19,-903.86 495.6,-903.89 503.9,-910.47 506.19,-903.86"/>
<text text-anchor="middle" x="601.19" y="-927.8" font-family="Times New Roman,serif" font-size="14.00">129</text>
</g>
<!-- 895219727816705121&#45;&gt;114312889500362496 -->
<g id="edge39" class="edge">
<title>895219727816705121&#45;&gt;114312889500362496</title>
<path fill="none" stroke="#000000" stroke-opacity="0.627451" d="M691.42,-956.8C687.13,-945.05 681.37,-929.24 676.48,-915.84"/>
<polygon fill="#000000" fill-opacity="0.627451" stroke="#000000" stroke-opacity="0.627451" points="679.67,-914.37 672.96,-906.18 673.09,-916.77 679.67,-914.37"/>
<text text-anchor="middle" x="695.19" y="-927.8" font-family="Times New Roman,serif" font-size="14.00">110</text>
</g>
<!-- 895219727816705121&#45;&gt;236467211911800357 -->
<g id="edge40" class="edge">
<title>895219727816705121&#45;&gt;236467211911800357</title>
<path fill="none" stroke="#000000" stroke-opacity="0.223529" d="M746.16,-959.84C765.21,-953.91 787.16,-946.62 806.69,-939 829.29,-930.18 853.88,-918.93 873.87,-909.34"/>
<polygon fill="#000000" fill-opacity="0.223529" stroke="#000000" stroke-opacity="0.223529" points="875.53,-912.43 883,-904.92 872.48,-906.13 875.53,-912.43"/>
<text text-anchor="middle" x="847.69" y="-927.8" font-family="Times New Roman,serif" font-size="14.00">14</text>
</g>
<!-- 895219727816705121&#45;&gt;965855064996704672 -->
<g id="edge41" class="edge">
<title>895219727816705121&#45;&gt;965855064996704672</title>
<path fill="none" stroke="#000000" stroke-opacity="0.545098" d="M719.45,-957.53C734.56,-944.99 754,-926.43 765.69,-906 779.39,-882.07 786.27,-851.1 789.64,-829.2"/>
<polygon fill="#000000" fill-opacity="0.545098" stroke="#000000" stroke-opacity="0.545098" points="793.11,-829.64 791.03,-819.25 786.18,-828.67 793.11,-829.64"/>
<text text-anchor="middle" x="787.69" y="-884.3" font-family="Times New Roman,serif" font-size="14.00">84</text>
</g>
<!-- 180189445229534527&#45;&gt;275857651972788943 -->
<g id="edge42" class="edge">
<title>180189445229534527&#45;&gt;275857651972788943</title>
<path fill="none" stroke="#000000" stroke-opacity="0.745098" d="M209.13,-609.3C223.57,-598.3 243.81,-584.43 263.69,-576 288.34,-565.55 316.48,-558.06 342.26,-552.77"/>
<polygon fill="#000000" fill-opacity="0.745098" stroke="#000000" stroke-opacity="0.745098" points="343.26,-556.14 352.39,-550.78 341.91,-549.27 343.26,-556.14"/>
<text text-anchor="middle" x="274.19" y="-579.8" font-family="Times New Roman,serif" font-size="14.00">155</text>
</g>
<!-- 180189445229534527&#45;&gt;585765197278894388 -->
<g id="edge43" class="edge">
<title>180189445229534527&#45;&gt;585765197278894388</title>
<path fill="none" stroke="#000000" stroke-opacity="0.737255" d="M178.84,-608.88C161.42,-578.61 125.09,-515.51 104.6,-479.9"/>
<polygon fill="#000000" fill-opacity="0.737255" stroke="#000000" stroke-opacity="0.737255" points="107.53,-477.97 99.51,-471.05 101.46,-481.46 107.53,-477.97"/>
<text text-anchor="middle" x="160.19" y="-536.3" font-family="Times New Roman,serif" font-size="14.00">153</text>
</g>
<!-- 945765128895065128 -->
<g id="node41" class="node">
<title>945765128895065128</title>
<ellipse fill="none" stroke="black" cx="4176.69" cy="-1149" rx="89.88" ry="18"/>
<text text-anchor="middle" x="4176.69" y="-1145.3" font-family="Times New Roman,serif" font-size="14.00">945765128895065128</text>
</g>
<!-- 180036468895219912 -->
<g id="node43" class="node">
<title>180036468895219912</title>
<ellipse fill="none" stroke="black" cx="4373.69" cy="-1149" rx="89.88" ry="18"/>
<text text-anchor="middle" x="4373.69" y="-1145.3" font-family="Times New Roman,serif" font-size="14.00">180036468895219912</text>
</g>
<!-- 857659434421595604 -->
<g id="node44" class="node">
<title>857659434421595604</title>
<ellipse fill="none" stroke="black" cx="1031.69" cy="-540" rx="89.88" ry="18"/>
<text text-anchor="middle" x="1031.69" y="-536.3" font-family="Times New Roman,serif" font-size="14.00">857659434421595604</text>
</g>
<!-- 857659434421595604&#45;&gt;042159561513534780 -->
<g id="edge44" class="edge">
<title>857659434421595604&#45;&gt;042159561513534780</title>
<path fill="none" stroke="#000000" stroke-opacity="0.670588" d="M1051.03,-522.3C1094.36,-482.91 1191.3,-382.41 1136.69,-315 1126.54,-302.47 1094.6,-294.25 1061.49,-288.94"/>
<polygon fill="#000000" fill-opacity="0.670588" stroke="#000000" stroke-opacity="0.670588" points="1061.61,-285.42 1051.2,-287.39 1060.56,-292.34 1061.61,-285.42"/>
<text text-anchor="middle" x="1154.19" y="-405.8" font-family="Times New Roman,serif" font-size="14.00">126</text>
</g>
<!-- 857659434421595604&#45;&gt;978585765197292197 -->
<g id="edge45" class="edge">
<title>857659434421595604&#45;&gt;978585765197292197</title>
<path fill="none" stroke="#000000" stroke-opacity="0.349020" d="M1095.7,-527.29C1122.64,-521.54 1154.07,-513.73 1181.69,-504 1204.1,-496.11 1228.07,-484.8 1247.34,-474.93"/>
<polygon fill="#000000" fill-opacity="0.349020" stroke="#000000" stroke-opacity="0.349020" points="1249.14,-477.94 1256.39,-470.22 1245.91,-471.73 1249.14,-477.94"/>
<text text-anchor="middle" x="1224.69" y="-492.8" font-family="Times New Roman,serif" font-size="14.00">34</text>
</g>
<!-- 857659434421595604&#45;&gt;451904504215956151 -->
<g id="edge46" class="edge">
<title>857659434421595604&#45;&gt;451904504215956151</title>
<path fill="none" stroke="#000000" stroke-opacity="0.690196" d="M1020.16,-521.8C1011.99,-509.62 1000.9,-493.09 991.72,-479.4"/>
<polygon fill="#000000" fill-opacity="0.690196" stroke="#000000" stroke-opacity="0.690196" points="994.49,-477.24 986.02,-470.89 988.68,-481.14 994.49,-477.24"/>
<text text-anchor="middle" x="1017.19" y="-492.8" font-family="Times New Roman,serif" font-size="14.00">133</text>
</g>
<!-- 819537243485625108 -->
<g id="node45" class="node">
<title>819537243485625108</title>
<ellipse fill="none" stroke="black" cx="1285.69" cy="-540" rx="89.88" ry="18"/>
<text text-anchor="middle" x="1285.69" y="-536.3" font-family="Times New Roman,serif" font-size="14.00">819537243485625108</text>
</g>
<!-- 819537243485625108&#45;&gt;978585765197292197 -->
<g id="edge47" class="edge">
<title>819537243485625108&#45;&gt;978585765197292197</title>
<path fill="none" stroke="#000000" stroke-opacity="0.349020" d="M1285.69,-521.8C1285.69,-510.16 1285.69,-494.55 1285.69,-481.24"/>
<polygon fill="#000000" fill-opacity="0.349020" stroke="#000000" stroke-opacity="0.349020" points="1289.19,-481.18 1285.69,-471.18 1282.19,-481.18 1289.19,-481.18"/>
<text text-anchor="middle" x="1292.69" y="-492.8" font-family="Times New Roman,serif" font-size="14.00">34</text>
</g>
<!-- 974648349472783040 -->
<g id="node46" class="node">
<title>974648349472783040</title>
<ellipse fill="none" stroke="black" cx="4570.69" cy="-1149" rx="89.88" ry="18"/>
<text text-anchor="middle" x="4570.69" y="-1145.3" font-family="Times New Roman,serif" font-size="14.00">974648349472783040</text>
</g>
<!-- 460036467118001401 -->
<g id="node47" class="node">
<title>460036467118001401</title>
<ellipse fill="none" stroke="black" cx="680.69" cy="-453" rx="89.88" ry="18"/>
<text text-anchor="middle" x="680.69" y="-449.3" font-family="Times New Roman,serif" font-size="14.00">460036467118001401</text>
</g>
<!-- 460036467118001401&#45;&gt;464726114514519485 -->
<g id="edge48" class="edge">
<title>460036467118001401&#45;&gt;464726114514519485</title>
<path fill="none" stroke="#000000" stroke-opacity="0.529412" d="M665.87,-435.21C654.88,-422.75 639.73,-405.57 627.38,-391.57"/>
<polygon fill="#000000" fill-opacity="0.529412" stroke="#000000" stroke-opacity="0.529412" points="629.72,-388.94 620.48,-383.76 624.47,-393.57 629.72,-388.94"/>
<text text-anchor="middle" x="654.69" y="-405.8" font-family="Times New Roman,serif" font-size="14.00">79</text>
</g>
<!-- 460036467118001401&#45;&gt;756356114519199118 -->
<g id="edge49" class="edge">
<title>460036467118001401&#45;&gt;756356114519199118</title>
<path fill="none" stroke="#000000" stroke-opacity="0.301961" d="M733.51,-438.44C792.15,-423.38 886.75,-399.09 949.08,-383.08"/>
<polygon fill="#000000" fill-opacity="0.301961" stroke="#000000" stroke-opacity="0.301961" points="949.98,-386.46 958.79,-380.58 948.24,-379.68 949.98,-386.46"/>
<text text-anchor="middle" x="873.69" y="-405.8" font-family="Times New Roman,serif" font-size="14.00">26</text>
</g>
<!-- 965855064996704672&#45;&gt;857659434421595604 -->
<g id="edge50" class="edge">
<title>965855064996704672&#45;&gt;857659434421595604</title>
<path fill="none" stroke="#000000" stroke-opacity="0.309804" d="M808.37,-783.01C849.56,-738.37 960.96,-617.65 1009.06,-565.52"/>
<polygon fill="#000000" fill-opacity="0.309804" stroke="#000000" stroke-opacity="0.309804" points="1011.74,-567.78 1015.95,-558.06 1006.6,-563.03 1011.74,-567.78"/>
<text text-anchor="middle" x="925.69" y="-666.8" font-family="Times New Roman,serif" font-size="14.00">27</text>
</g>
<!-- 628477090889524348&#45;&gt;867563561145191991 -->
<g id="edge51" class="edge">
<title>628477090889524348&#45;&gt;867563561145191991</title>
<path fill="none" stroke="#000000" stroke-opacity="0.486275" d="M984.17,-174.61C965.3,-161.47 938.63,-142.88 917.8,-128.37"/>
<polygon fill="#000000" fill-opacity="0.486275" stroke="#000000" stroke-opacity="0.486275" points="919.76,-125.47 909.56,-122.63 915.76,-131.22 919.76,-125.47"/>
<text text-anchor="middle" x="961.69" y="-144.8" font-family="Times New Roman,serif" font-size="14.00">67</text>
</g>
</g>
</svg>
