<?xml version="1.0" encoding="UTF-8" standalone="no"?>
<!DOCTYPE svg PUBLIC "-//W3C//DTD SVG 1.1//EN"
 "http://www.w3.org/Graphics/SVG/1.1/DTD/svg11.dtd">
<!-- Generated by graphviz version 3.0.0 (20220226.1711)
 -->
<!-- Pages: 1 -->
<svg width="4978pt" height="1175pt"
 viewBox="0.00 0.00 4977.70 1175.00" xmlns="http://www.w3.org/2000/svg" xmlns:xlink="http://www.w3.org/1999/xlink">
<g id="graph0" class="graph" transform="scale(1 1) rotate(0) translate(4 1171)">
<polygon fill="white" stroke="transparent" points="-4,4 -4,-1171 4973.7,-1171 4973.7,4 -4,4"/>
<!-- 867563561145191991 -->
<g id="node1" class="node">
<title>867563561145191991</title>
<ellipse fill="none" stroke="black" cx="933.01" cy="-105" rx="89.88" ry="18"/>
<text text-anchor="middle" x="933.01" y="-101.3" font-family="Times New Roman,serif" font-size="14.00">867563561145191991</text>
</g>
<!-- 952196180031145727 -->
<g id="node35" class="node">
<title>952196180031145727</title>
<ellipse fill="none" stroke="black" cx="245.01" cy="-18" rx="89.88" ry="18"/>
<text text-anchor="middle" x="245.01" y="-14.3" font-family="Times New Roman,serif" font-size="14.00">952196180031145727</text>
</g>
<!-- 867563561145191991&#45;&gt;952196180031145727 -->
<g id="edge1" class="edge">
<title>867563561145191991&#45;&gt;952196180031145727</title>
<path fill="none" stroke="#000000" stroke-opacity="0.627451" d="M858.73,-94.82C729.66,-78.88 464.84,-46.16 329.18,-29.4"/>
<polygon fill="#000000" fill-opacity="0.627451" stroke="#000000" stroke-opacity="0.627451" points="329.59,-25.92 319.24,-28.17 328.73,-32.87 329.59,-25.92"/>
<text text-anchor="middle" x="641.51" y="-57.8" font-family="Times New Roman,serif" font-size="14.00">110</text>
</g>
<!-- 781670512164800658 -->
<g id="node2" class="node">
<title>781670512164800658</title>
<ellipse fill="none" stroke="black" cx="829.01" cy="-888" rx="89.88" ry="18"/>
<text text-anchor="middle" x="829.01" y="-884.3" font-family="Times New Roman,serif" font-size="14.00">781670512164800658</text>
</g>
<!-- 211911800357576546 -->
<g id="node34" class="node">
<title>211911800357576546</title>
<ellipse fill="none" stroke="black" cx="190.01" cy="-801" rx="89.88" ry="18"/>
<text text-anchor="middle" x="190.01" y="-797.3" font-family="Times New Roman,serif" font-size="14.00">211911800357576546</text>
</g>
<!-- 781670512164800658&#45;&gt;211911800357576546 -->
<g id="edge2" class="edge">
<title>781670512164800658&#45;&gt;211911800357576546</title>
<path fill="none" stroke="#000000" stroke-opacity="0.258824" d="M756.33,-877.33C636.58,-861.4 398.55,-829.74 272.6,-812.99"/>
<polygon fill="#000000" fill-opacity="0.258824" stroke="#000000" stroke-opacity="0.258824" points="272.99,-809.51 262.62,-811.66 272.07,-816.45 272.99,-809.51"/>
<text text-anchor="middle" x="555.01" y="-840.8" font-family="Times New Roman,serif" font-size="14.00">19</text>
</g>
<!-- 945765599670467261 -->
<g id="node3" class="node">
<title>945765599670467261</title>
<ellipse fill="none" stroke="black" cx="1728.01" cy="-1149" rx="89.88" ry="18"/>
<text text-anchor="middle" x="1728.01" y="-1145.3" font-family="Times New Roman,serif" font-size="14.00">945765599670467261</text>
</g>
<!-- 275857651972788943 -->
<g id="node4" class="node">
<title>275857651972788943</title>
<ellipse fill="none" stroke="black" cx="347.01" cy="-540" rx="89.88" ry="18"/>
<text text-anchor="middle" x="347.01" y="-536.3" font-family="Times New Roman,serif" font-size="14.00">275857651972788943</text>
</g>
<!-- 585765197278894388 -->
<g id="node8" class="node">
<title>585765197278894388</title>
<ellipse fill="none" stroke="black" cx="111.01" cy="-453" rx="89.88" ry="18"/>
<text text-anchor="middle" x="111.01" y="-449.3" font-family="Times New Roman,serif" font-size="14.00">585765197278894388</text>
</g>
<!-- 275857651972788943&#45;&gt;585765197278894388 -->
<g id="edge3" class="edge">
<title>275857651972788943&#45;&gt;585765197278894388</title>
<path fill="none" stroke="#000000" stroke-opacity="0.984314" d="M305.36,-524C265.46,-509.63 205.15,-487.91 162.31,-472.48"/>
<polygon fill="#000000" fill-opacity="0.984314" stroke="#000000" stroke-opacity="0.984314" points="163.23,-469.09 152.64,-468.99 160.86,-475.67 163.23,-469.09"/>
<text text-anchor="middle" x="254.51" y="-492.8" font-family="Times New Roman,serif" font-size="14.00">271</text>
</g>
<!-- 042159561513534780 -->
<g id="node9" class="node">
<title>042159561513534780</title>
<ellipse fill="none" stroke="black" cx="1154.01" cy="-279" rx="89.88" ry="18"/>
<text text-anchor="middle" x="1154.01" y="-275.3" font-family="Times New Roman,serif" font-size="14.00">042159561513534780</text>
</g>
<!-- 275857651972788943&#45;&gt;042159561513534780 -->
<g id="edge4" class="edge">
<title>275857651972788943&#45;&gt;042159561513534780</title>
<path fill="none" stroke="#000000" stroke-opacity="0.525490" d="M436.57,-538.95C651.24,-537.88 1181.26,-529.3 1234.01,-471 1270.68,-430.46 1256.95,-397.62 1234.01,-348 1225.21,-328.98 1208.18,-313.33 1192.09,-301.86"/>
<polygon fill="#000000" fill-opacity="0.525490" stroke="#000000" stroke-opacity="0.525490" points="1194.05,-298.96 1183.81,-296.24 1190.12,-304.75 1194.05,-298.96"/>
<text text-anchor="middle" x="1264.01" y="-405.8" font-family="Times New Roman,serif" font-size="14.00">78</text>
</g>
<!-- 451904504215956151 -->
<g id="node26" class="node">
<title>451904504215956151</title>
<ellipse fill="none" stroke="black" cx="1135.01" cy="-453" rx="89.88" ry="18"/>
<text text-anchor="middle" x="1135.01" y="-449.3" font-family="Times New Roman,serif" font-size="14.00">451904504215956151</text>
</g>
<!-- 275857651972788943&#45;&gt;451904504215956151 -->
<g id="edge5" class="edge">
<title>275857651972788943&#45;&gt;451904504215956151</title>
<path fill="none" stroke="#000000" stroke-opacity="0.549020" d="M429.55,-532.84C559.22,-522.72 818.43,-500.69 1037.01,-471 1044.91,-469.93 1053.16,-468.69 1061.37,-467.37"/>
<polygon fill="#000000" fill-opacity="0.549020" stroke="#000000" stroke-opacity="0.549020" points="1062.02,-470.81 1071.33,-465.75 1060.89,-463.91 1062.02,-470.81"/>
<text text-anchor="middle" x="894.01" y="-492.8" font-family="Times New Roman,serif" font-size="14.00">85</text>
</g>
<!-- 519118651281911800 -->
<g id="node28" class="node">
<title>519118651281911800</title>
<ellipse fill="none" stroke="black" cx="544.01" cy="-453" rx="89.88" ry="18"/>
<text text-anchor="middle" x="544.01" y="-449.3" font-family="Times New Roman,serif" font-size="14.00">519118651281911800</text>
</g>
<!-- 275857651972788943&#45;&gt;519118651281911800 -->
<g id="edge6" class="edge">
<title>275857651972788943&#45;&gt;519118651281911800</title>
<path fill="none" stroke="#000000" stroke-opacity="0.321569" d="M383.14,-523.41C415.53,-509.43 463.2,-488.87 498.25,-473.75"/>
<polygon fill="#000000" fill-opacity="0.321569" stroke="#000000" stroke-opacity="0.321569" points="499.98,-476.81 507.77,-469.64 497.2,-470.38 499.98,-476.81"/>
<text text-anchor="middle" x="465.01" y="-492.8" font-family="Times New Roman,serif" font-size="14.00">29</text>
</g>
<!-- 857744545190450421 -->
<g id="node31" class="node">
<title>857744545190450421</title>
<ellipse fill="none" stroke="black" cx="347.01" cy="-453" rx="89.88" ry="18"/>
<text text-anchor="middle" x="347.01" y="-449.3" font-family="Times New Roman,serif" font-size="14.00">857744545190450421</text>
</g>
<!-- 275857651972788943&#45;&gt;857744545190450421 -->
<g id="edge7" class="edge">
<title>275857651972788943&#45;&gt;857744545190450421</title>
<path fill="none" stroke="#000000" stroke-opacity="0.572549" d="M347.01,-521.8C347.01,-510.16 347.01,-494.55 347.01,-481.24"/>
<polygon fill="#000000" fill-opacity="0.572549" stroke="#000000" stroke-opacity="0.572549" points="350.51,-481.18 347.01,-471.18 343.51,-481.18 350.51,-481.18"/>
<text text-anchor="middle" x="354.01" y="-492.8" font-family="Times New Roman,serif" font-size="14.00">92</text>
</g>
<!-- 304648435345158604 -->
<g id="node5" class="node">
<title>304648435345158604</title>
<ellipse fill="none" stroke="black" cx="1925.01" cy="-1149" rx="89.88" ry="18"/>
<text text-anchor="middle" x="1925.01" y="-1145.3" font-family="Times New Roman,serif" font-size="14.00">304648435345158604</text>
</g>
<!-- 843534515867511216 -->
<g id="node6" class="node">
<title>843534515867511216</title>
<ellipse fill="none" stroke="black" cx="2122.01" cy="-1149" rx="89.88" ry="18"/>
<text text-anchor="middle" x="2122.01" y="-1145.3" font-family="Times New Roman,serif" font-size="14.00">843534515867511216</text>
</g>
<!-- 464726114514519485 -->
<g id="node7" class="node">
<title>464726114514519485</title>
<ellipse fill="none" stroke="black" cx="666.01" cy="-366" rx="89.88" ry="18"/>
<text text-anchor="middle" x="666.01" y="-362.3" font-family="Times New Roman,serif" font-size="14.00">464726114514519485</text>
</g>
<!-- 952199118435081243 -->
<g id="node48" class="node">
<title>952199118435081243</title>
<ellipse fill="none" stroke="black" cx="583.01" cy="-279" rx="89.88" ry="18"/>
<text text-anchor="middle" x="583.01" y="-275.3" font-family="Times New Roman,serif" font-size="14.00">952199118435081243</text>
</g>
<!-- 464726114514519485&#45;&gt;952199118435081243 -->
<g id="edge8" class="edge">
<title>464726114514519485&#45;&gt;952199118435081243</title>
<path fill="none" stroke="#000000" stroke-opacity="0.521569" d="M649.61,-348.21C637.33,-335.63 620.36,-318.25 606.62,-304.18"/>
<polygon fill="#000000" fill-opacity="0.521569" stroke="#000000" stroke-opacity="0.521569" points="608.86,-301.47 599.37,-296.76 603.85,-306.36 608.86,-301.47"/>
<text text-anchor="middle" x="637.01" y="-318.8" font-family="Times New Roman,serif" font-size="14.00">76</text>
</g>
<!-- 042159561513534780&#45;&gt;867563561145191991 -->
<g id="edge9" class="edge">
<title>042159561513534780&#45;&gt;867563561145191991</title>
<path fill="none" stroke="#000000" stroke-opacity="0.376471" d="M1132.82,-261.51C1093.15,-230.64 1007.63,-164.08 962.41,-128.89"/>
<polygon fill="#000000" fill-opacity="0.376471" stroke="#000000" stroke-opacity="0.376471" points="964.5,-126.07 954.46,-122.69 960.2,-131.6 964.5,-126.07"/>
<text text-anchor="middle" x="1073.01" y="-188.3" font-family="Times New Roman,serif" font-size="14.00">40</text>
</g>
<!-- 628477090889524348 -->
<g id="node50" class="node">
<title>628477090889524348</title>
<ellipse fill="none" stroke="black" cx="1266.01" cy="-192" rx="89.88" ry="18"/>
<text text-anchor="middle" x="1266.01" y="-188.3" font-family="Times New Roman,serif" font-size="14.00">628477090889524348</text>
</g>
<!-- 042159561513534780&#45;&gt;628477090889524348 -->
<g id="edge10" class="edge">
<title>042159561513534780&#45;&gt;628477090889524348</title>
<path fill="none" stroke="#000000" stroke-opacity="0.501961" d="M1175.87,-261.41C1193.06,-248.36 1217.19,-230.05 1236.16,-215.65"/>
<polygon fill="#000000" fill-opacity="0.501961" stroke="#000000" stroke-opacity="0.501961" points="1238.35,-218.38 1244.2,-209.55 1234.12,-212.81 1238.35,-218.38"/>
<text text-anchor="middle" x="1224.01" y="-231.8" font-family="Times New Roman,serif" font-size="14.00">71</text>
</g>
<!-- 180036468895219911 -->
<g id="node10" class="node">
<title>180036468895219911</title>
<ellipse fill="none" stroke="black" cx="1334.01" cy="-975" rx="89.88" ry="18"/>
<text text-anchor="middle" x="1334.01" y="-971.3" font-family="Times New Roman,serif" font-size="14.00">180036468895219911</text>
</g>
<!-- 236467211911800357 -->
<g id="node29" class="node">
<title>236467211911800357</title>
<ellipse fill="none" stroke="black" cx="1341.01" cy="-888" rx="89.88" ry="18"/>
<text text-anchor="middle" x="1341.01" y="-884.3" font-family="Times New Roman,serif" font-size="14.00">236467211911800357</text>
</g>
<!-- 180036468895219911&#45;&gt;236467211911800357 -->
<g id="edge11" class="edge">
<title>180036468895219911&#45;&gt;236467211911800357</title>
<path fill="none" stroke="#000000" stroke-opacity="0.631373" d="M1335.42,-956.8C1336.38,-945.16 1337.67,-929.55 1338.76,-916.24"/>
<polygon fill="#000000" fill-opacity="0.631373" stroke="#000000" stroke-opacity="0.631373" points="1342.26,-916.43 1339.59,-906.18 1335.28,-915.85 1342.26,-916.43"/>
<text text-anchor="middle" x="1348.51" y="-927.8" font-family="Times New Roman,serif" font-size="14.00">112</text>
</g>
<!-- 783020311806571918 -->
<g id="node11" class="node">
<title>783020311806571918</title>
<ellipse fill="none" stroke="black" cx="2319.01" cy="-1149" rx="89.88" ry="18"/>
<text text-anchor="middle" x="2319.01" y="-1145.3" font-family="Times New Roman,serif" font-size="14.00">783020311806571918</text>
</g>
<!-- 727894315191185191 -->
<g id="node12" class="node">
<title>727894315191185191</title>
<ellipse fill="none" stroke="black" cx="2429.01" cy="-1062" rx="89.88" ry="18"/>
<text text-anchor="middle" x="2429.01" y="-1058.3" font-family="Times New Roman,serif" font-size="14.00">727894315191185191</text>
</g>
<!-- 383435081243485611 -->
<g id="node13" class="node">
<title>383435081243485611</title>
<ellipse fill="none" stroke="black" cx="2515.01" cy="-975" rx="89.88" ry="18"/>
<text text-anchor="middle" x="2515.01" y="-971.3" font-family="Times New Roman,serif" font-size="14.00">383435081243485611</text>
</g>
<!-- 727894315191185191&#45;&gt;383435081243485611 -->
<g id="edge12" class="edge">
<title>727894315191185191&#45;&gt;383435081243485611</title>
<path fill="none" stroke="#000000" stroke-opacity="0.615686" d="M2446,-1044.21C2458.84,-1031.52 2476.63,-1013.93 2490.94,-999.79"/>
<polygon fill="#000000" fill-opacity="0.615686" stroke="#000000" stroke-opacity="0.615686" points="2493.4,-1002.28 2498.05,-992.76 2488.48,-997.3 2493.4,-1002.28"/>
<text text-anchor="middle" x="2488.51" y="-1014.8" font-family="Times New Roman,serif" font-size="14.00">106</text>
</g>
<!-- 781670574770909612 -->
<g id="node14" class="node">
<title>781670574770909612</title>
<ellipse fill="none" stroke="black" cx="2713.01" cy="-1149" rx="89.88" ry="18"/>
<text text-anchor="middle" x="2713.01" y="-1145.3" font-family="Times New Roman,serif" font-size="14.00">781670574770909612</text>
</g>
<!-- 978585765197292197 -->
<g id="node15" class="node">
<title>978585765197292197</title>
<ellipse fill="none" stroke="black" cx="1447.01" cy="-453" rx="89.88" ry="18"/>
<text text-anchor="middle" x="1447.01" y="-449.3" font-family="Times New Roman,serif" font-size="14.00">978585765197292197</text>
</g>
<!-- 978585765197292197&#45;&gt;628477090889524348 -->
<g id="edge13" class="edge">
<title>978585765197292197&#45;&gt;628477090889524348</title>
<path fill="none" stroke="#000000" stroke-opacity="0.341176" d="M1436.47,-434.96C1412.73,-396.89 1352.7,-302.44 1296.01,-228 1293.39,-224.56 1290.54,-221.02 1287.68,-217.56"/>
<polygon fill="#000000" fill-opacity="0.341176" stroke="#000000" stroke-opacity="0.341176" points="1290.2,-215.13 1281.06,-209.76 1284.86,-219.65 1290.2,-215.13"/>
<text text-anchor="middle" x="1374.01" y="-318.8" font-family="Times New Roman,serif" font-size="14.00">33</text>
</g>
<!-- 756356114519199118 -->
<g id="node16" class="node">
<title>756356114519199118</title>
<ellipse fill="none" stroke="black" cx="1135.01" cy="-366" rx="89.88" ry="18"/>
<text text-anchor="middle" x="1135.01" y="-362.3" font-family="Times New Roman,serif" font-size="14.00">756356114519199118</text>
</g>
<!-- 756356114519199118&#45;&gt;042159561513534780 -->
<g id="edge14" class="edge">
<title>756356114519199118&#45;&gt;042159561513534780</title>
<path fill="none" stroke="#000000" stroke-opacity="0.368627" d="M1138.85,-347.8C1141.45,-336.16 1144.94,-320.55 1147.92,-307.24"/>
<polygon fill="#000000" fill-opacity="0.368627" stroke="#000000" stroke-opacity="0.368627" points="1151.4,-307.7 1150.17,-297.18 1144.57,-306.17 1151.4,-307.7"/>
<text text-anchor="middle" x="1153.01" y="-318.8" font-family="Times New Roman,serif" font-size="14.00">38</text>
</g>
<!-- 756356114519199118&#45;&gt;451904504215956151 -->
<g id="edge15" class="edge">
<title>756356114519199118&#45;&gt;451904504215956151</title>
<path fill="none" stroke="#000000" stroke-opacity="0.400000" d="M1123.44,-384.3C1118.46,-393.8 1114.32,-405.88 1117.01,-417 1117.7,-419.86 1118.67,-422.76 1119.81,-425.59"/>
<polygon fill="#000000" fill-opacity="0.400000" stroke="#000000" stroke-opacity="0.400000" points="1116.72,-427.26 1124.13,-434.83 1123.07,-424.29 1116.72,-427.26"/>
<text text-anchor="middle" x="1124.01" y="-405.8" font-family="Times New Roman,serif" font-size="14.00">45</text>
</g>
<!-- 017464834943435282 -->
<g id="node17" class="node">
<title>017464834943435282</title>
<ellipse fill="none" stroke="black" cx="2910.01" cy="-1149" rx="89.88" ry="18"/>
<text text-anchor="middle" x="2910.01" y="-1145.3" font-family="Times New Roman,serif" font-size="14.00">017464834943435282</text>
</g>
<!-- 435282177830457651 -->
<g id="node40" class="node">
<title>435282177830457651</title>
<ellipse fill="none" stroke="black" cx="2910.01" cy="-1062" rx="89.88" ry="18"/>
<text text-anchor="middle" x="2910.01" y="-1058.3" font-family="Times New Roman,serif" font-size="14.00">435282177830457651</text>
</g>
<!-- 017464834943435282&#45;&gt;435282177830457651 -->
<g id="edge16" class="edge">
<title>017464834943435282&#45;&gt;435282177830457651</title>
<path fill="none" stroke="#000000" stroke-opacity="0.427451" d="M2910.01,-1130.8C2910.01,-1119.16 2910.01,-1103.55 2910.01,-1090.24"/>
<polygon fill="#000000" fill-opacity="0.427451" stroke="#000000" stroke-opacity="0.427451" points="2913.51,-1090.18 2910.01,-1080.18 2906.51,-1090.18 2913.51,-1090.18"/>
<text text-anchor="middle" x="2917.01" y="-1101.8" font-family="Times New Roman,serif" font-size="14.00">51</text>
</g>
<!-- 508434856114572785 -->
<g id="node18" class="node">
<title>508434856114572785</title>
<ellipse fill="none" stroke="black" cx="1531.01" cy="-1062" rx="89.88" ry="18"/>
<text text-anchor="middle" x="1531.01" y="-1058.3" font-family="Times New Roman,serif" font-size="14.00">508434856114572785</text>
</g>
<!-- 508434856114572785&#45;&gt;180036468895219911 -->
<g id="edge17" class="edge">
<title>508434856114572785&#45;&gt;180036468895219911</title>
<path fill="none" stroke="#000000" stroke-opacity="0.454902" d="M1494.88,-1045.41C1462.49,-1031.43 1414.81,-1010.87 1379.77,-995.75"/>
<polygon fill="#000000" fill-opacity="0.454902" stroke="#000000" stroke-opacity="0.454902" points="1380.81,-992.38 1370.24,-991.64 1378.04,-998.81 1380.81,-992.38"/>
<text text-anchor="middle" x="1452.01" y="-1014.8" font-family="Times New Roman,serif" font-size="14.00">58</text>
</g>
<!-- 508434856114572785&#45;&gt;236467211911800357 -->
<g id="edge18" class="edge">
<title>508434856114572785&#45;&gt;236467211911800357</title>
<path fill="none" stroke="#000000" stroke-opacity="0.321569" d="M1565.26,-1045.27C1603.41,-1025.59 1656.47,-990.42 1630.01,-957 1605.31,-925.82 1505.37,-907.52 1429.88,-897.91"/>
<polygon fill="#000000" fill-opacity="0.321569" stroke="#000000" stroke-opacity="0.321569" points="1430.22,-894.42 1419.87,-896.66 1429.36,-901.37 1430.22,-894.42"/>
<text text-anchor="middle" x="1645.01" y="-971.3" font-family="Times New Roman,serif" font-size="14.00">29</text>
</g>
<!-- 651288952364672119 -->
<g id="node42" class="node">
<title>651288952364672119</title>
<ellipse fill="none" stroke="black" cx="1531.01" cy="-975" rx="89.88" ry="18"/>
<text text-anchor="middle" x="1531.01" y="-971.3" font-family="Times New Roman,serif" font-size="14.00">651288952364672119</text>
</g>
<!-- 508434856114572785&#45;&gt;651288952364672119 -->
<g id="edge19" class="edge">
<title>508434856114572785&#45;&gt;651288952364672119</title>
<path fill="none" stroke="#000000" stroke-opacity="0.360784" d="M1531.01,-1043.8C1531.01,-1032.16 1531.01,-1016.55 1531.01,-1003.24"/>
<polygon fill="#000000" fill-opacity="0.360784" stroke="#000000" stroke-opacity="0.360784" points="1534.51,-1003.18 1531.01,-993.18 1527.51,-1003.18 1534.51,-1003.18"/>
<text text-anchor="middle" x="1538.01" y="-1014.8" font-family="Times New Roman,serif" font-size="14.00">37</text>
</g>
<!-- 219605796366125275 -->
<g id="node19" class="node">
<title>219605796366125275</title>
<ellipse fill="none" stroke="black" cx="3107.01" cy="-1149" rx="89.88" ry="18"/>
<text text-anchor="middle" x="3107.01" y="-1145.3" font-family="Times New Roman,serif" font-size="14.00">219605796366125275</text>
</g>
<!-- 572785726118576436 -->
<g id="node20" class="node">
<title>572785726118576436</title>
<ellipse fill="none" stroke="black" cx="1531.01" cy="-1149" rx="89.88" ry="18"/>
<text text-anchor="middle" x="1531.01" y="-1145.3" font-family="Times New Roman,serif" font-size="14.00">572785726118576436</text>
</g>
<!-- 572785726118576436&#45;&gt;508434856114572785 -->
<g id="edge20" class="edge">
<title>572785726118576436&#45;&gt;508434856114572785</title>
<path fill="none" stroke="#000000" stroke-opacity="0.203922" d="M1531.01,-1130.8C1531.01,-1119.16 1531.01,-1103.55 1531.01,-1090.24"/>
<polygon fill="#000000" fill-opacity="0.203922" stroke="#000000" stroke-opacity="0.203922" points="1534.51,-1090.18 1531.01,-1080.18 1527.51,-1090.18 1534.51,-1090.18"/>
<text text-anchor="middle" x="1538.01" y="-1101.8" font-family="Times New Roman,serif" font-size="14.00">12</text>
</g>
<!-- 404215857651216151 -->
<g id="node21" class="node">
<title>404215857651216151</title>
<ellipse fill="none" stroke="black" cx="1334.01" cy="-1149" rx="89.88" ry="18"/>
<text text-anchor="middle" x="1334.01" y="-1145.3" font-family="Times New Roman,serif" font-size="14.00">404215857651216151</text>
</g>
<!-- 404215857651216151&#45;&gt;180036468895219911 -->
<g id="edge21" class="edge">
<title>404215857651216151&#45;&gt;180036468895219911</title>
<path fill="none" stroke="#000000" stroke-opacity="0.301961" d="M1334.01,-1130.88C1334.01,-1101 1334.01,-1039.11 1334.01,-1003.27"/>
<polygon fill="#000000" fill-opacity="0.301961" stroke="#000000" stroke-opacity="0.301961" points="1337.51,-1003.05 1334.01,-993.05 1330.51,-1003.05 1337.51,-1003.05"/>
<text text-anchor="middle" x="1341.01" y="-1058.3" font-family="Times New Roman,serif" font-size="14.00">26</text>
</g>
<!-- 404215857651216151&#45;&gt;508434856114572785 -->
<g id="edge22" class="edge">
<title>404215857651216151&#45;&gt;508434856114572785</title>
<path fill="none" stroke="#000000" stroke-opacity="0.717647" d="M1370.14,-1132.41C1402.53,-1118.43 1450.2,-1097.87 1485.25,-1082.75"/>
<polygon fill="#000000" fill-opacity="0.717647" stroke="#000000" stroke-opacity="0.717647" points="1486.98,-1085.81 1494.77,-1078.64 1484.2,-1079.38 1486.98,-1085.81"/>
<text text-anchor="middle" x="1455.51" y="-1101.8" font-family="Times New Roman,serif" font-size="14.00">144</text>
</g>
<!-- 114312889500362496 -->
<g id="node22" class="node">
<title>114312889500362496</title>
<ellipse fill="none" stroke="black" cx="1093.01" cy="-888" rx="89.88" ry="18"/>
<text text-anchor="middle" x="1093.01" y="-884.3" font-family="Times New Roman,serif" font-size="14.00">114312889500362496</text>
</g>
<!-- 965855064996704672 -->
<g id="node49" class="node">
<title>965855064996704672</title>
<ellipse fill="none" stroke="black" cx="1219.01" cy="-801" rx="89.88" ry="18"/>
<text text-anchor="middle" x="1219.01" y="-797.3" font-family="Times New Roman,serif" font-size="14.00">965855064996704672</text>
</g>
<!-- 114312889500362496&#45;&gt;965855064996704672 -->
<g id="edge23" class="edge">
<title>114312889500362496&#45;&gt;965855064996704672</title>
<path fill="none" stroke="#000000" stroke-opacity="0.666667" d="M1117.3,-870.61C1136.91,-857.38 1164.69,-838.64 1186.26,-824.09"/>
<polygon fill="#000000" fill-opacity="0.666667" stroke="#000000" stroke-opacity="0.666667" points="1188.46,-826.83 1194.79,-818.34 1184.54,-821.03 1188.46,-826.83"/>
<text text-anchor="middle" x="1174.51" y="-840.8" font-family="Times New Roman,serif" font-size="14.00">125</text>
</g>
<!-- 094343508434856118 -->
<g id="node23" class="node">
<title>094343508434856118</title>
<ellipse fill="none" stroke="black" cx="3304.01" cy="-1149" rx="89.88" ry="18"/>
<text text-anchor="middle" x="3304.01" y="-1145.3" font-family="Times New Roman,serif" font-size="14.00">094343508434856118</text>
</g>
<!-- 534527446190830457 -->
<g id="node24" class="node">
<title>534527446190830457</title>
<ellipse fill="none" stroke="black" cx="938.01" cy="-453" rx="89.88" ry="18"/>
<text text-anchor="middle" x="938.01" y="-449.3" font-family="Times New Roman,serif" font-size="14.00">534527446190830457</text>
</g>
<!-- 534527446190830457&#45;&gt;867563561145191991 -->
<g id="edge24" class="edge">
<title>534527446190830457&#45;&gt;867563561145191991</title>
<path fill="none" stroke="#000000" stroke-opacity="0.231373" d="M918.77,-435.16C902.91,-419.33 883.01,-394.07 883.01,-367 883.01,-367 883.01,-367 883.01,-191 883.01,-168.4 896.3,-146.51 909.18,-130.6"/>
<polygon fill="#000000" fill-opacity="0.231373" stroke="#000000" stroke-opacity="0.231373" points="911.96,-132.73 915.8,-122.86 906.64,-128.18 911.96,-132.73"/>
<text text-anchor="middle" x="890.01" y="-275.3" font-family="Times New Roman,serif" font-size="14.00">15</text>
</g>
<!-- 534527446190830457&#45;&gt;756356114519199118 -->
<g id="edge25" class="edge">
<title>534527446190830457&#45;&gt;756356114519199118</title>
<path fill="none" stroke="#000000" stroke-opacity="0.215686" d="M974.14,-436.41C1006.53,-422.43 1054.2,-401.87 1089.25,-386.75"/>
<polygon fill="#000000" fill-opacity="0.215686" stroke="#000000" stroke-opacity="0.215686" points="1090.98,-389.81 1098.77,-382.64 1088.2,-383.38 1090.98,-389.81"/>
<text text-anchor="middle" x="1056.01" y="-405.8" font-family="Times New Roman,serif" font-size="14.00">13</text>
</g>
<!-- 467252197752364672 -->
<g id="node25" class="node">
<title>467252197752364672</title>
<ellipse fill="none" stroke="black" cx="3501.01" cy="-1149" rx="89.88" ry="18"/>
<text text-anchor="middle" x="3501.01" y="-1145.3" font-family="Times New Roman,serif" font-size="14.00">467252197752364672</text>
</g>
<!-- 451904504215956151&#45;&gt;867563561145191991 -->
<g id="edge26" class="edge">
<title>451904504215956151&#45;&gt;867563561145191991</title>
<path fill="none" stroke="#000000" stroke-opacity="0.368627" d="M1069.6,-440.65C1016.26,-431.27 949.35,-419.15 947.01,-417 929.98,-401.42 933.01,-390.08 933.01,-367 933.01,-367 933.01,-367 933.01,-191 933.01,-171.75 933.01,-150.05 933.01,-133.4"/>
<polygon fill="#000000" fill-opacity="0.368627" stroke="#000000" stroke-opacity="0.368627" points="936.51,-133.26 933.01,-123.26 929.51,-133.26 936.51,-133.26"/>
<text text-anchor="middle" x="940.01" y="-275.3" font-family="Times New Roman,serif" font-size="14.00">38</text>
</g>
<!-- 451904504215956151&#45;&gt;042159561513534780 -->
<g id="edge27" class="edge">
<title>451904504215956151&#45;&gt;042159561513534780</title>
<path fill="none" stroke="#000000" d="M1092.35,-437.03C1048.78,-419.22 990.71,-386.94 1015.01,-348 1030.91,-322.52 1059.44,-306.32 1086.53,-296.16"/>
<polygon fill="#000000" stroke="#000000" points="1087.76,-299.44 1096.03,-292.82 1085.44,-292.84 1087.76,-299.44"/>
<text text-anchor="middle" x="1025.51" y="-362.3" font-family="Times New Roman,serif" font-size="14.00">279</text>
</g>
<!-- 451904504215956151&#45;&gt;756356114519199118 -->
<g id="edge28" class="edge">
<title>451904504215956151&#45;&gt;756356114519199118</title>
<path fill="none" stroke="#000000" stroke-opacity="0.356863" d="M1135.01,-434.8C1135.01,-423.16 1135.01,-407.55 1135.01,-394.24"/>
<polygon fill="#000000" fill-opacity="0.356863" stroke="#000000" stroke-opacity="0.356863" points="1138.51,-394.18 1135.01,-384.18 1131.51,-394.18 1138.51,-394.18"/>
<text text-anchor="middle" x="1142.01" y="-405.8" font-family="Times New Roman,serif" font-size="14.00">36</text>
</g>
<!-- 451904504215956151&#45;&gt;628477090889524348 -->
<g id="edge29" class="edge">
<title>451904504215956151&#45;&gt;628477090889524348</title>
<path fill="none" stroke="#000000" stroke-opacity="0.494118" d="M1205.89,-441.85C1234.35,-436.2 1262.46,-428.03 1271.01,-417 1315.88,-359.12 1292.05,-265.23 1276.3,-219.59"/>
<polygon fill="#000000" fill-opacity="0.494118" stroke="#000000" stroke-opacity="0.494118" points="1279.56,-218.34 1272.9,-210.1 1272.97,-220.7 1279.56,-218.34"/>
<text text-anchor="middle" x="1304.01" y="-318.8" font-family="Times New Roman,serif" font-size="14.00">69</text>
</g>
<!-- 843508192159561513 -->
<g id="node27" class="node">
<title>843508192159561513</title>
<ellipse fill="none" stroke="black" cx="3698.01" cy="-1149" rx="89.88" ry="18"/>
<text text-anchor="middle" x="3698.01" y="-1145.3" font-family="Times New Roman,serif" font-size="14.00">843508192159561513</text>
</g>
<!-- 519118651281911800&#45;&gt;464726114514519485 -->
<g id="edge30" class="edge">
<title>519118651281911800&#45;&gt;464726114514519485</title>
<path fill="none" stroke="#000000" stroke-opacity="0.627451" d="M567.53,-435.61C586.4,-422.47 613.07,-403.88 633.9,-389.37"/>
<polygon fill="#000000" fill-opacity="0.627451" stroke="#000000" stroke-opacity="0.627451" points="635.94,-392.22 642.14,-383.63 631.94,-386.47 635.94,-392.22"/>
<text text-anchor="middle" x="623.51" y="-405.8" font-family="Times New Roman,serif" font-size="14.00">111</text>
</g>
<!-- 519118651281911800&#45;&gt;952199118435081243 -->
<g id="edge31" class="edge">
<title>519118651281911800&#45;&gt;952199118435081243</title>
<path fill="none" stroke="#000000" stroke-opacity="0.337255" d="M543.78,-434.78C543.9,-413.91 545.36,-377.84 553.01,-348 556.67,-333.7 563.05,-318.6 568.99,-306.27"/>
<polygon fill="#000000" fill-opacity="0.337255" stroke="#000000" stroke-opacity="0.337255" points="572.26,-307.55 573.6,-297.04 566,-304.43 572.26,-307.55"/>
<text text-anchor="middle" x="560.01" y="-362.3" font-family="Times New Roman,serif" font-size="14.00">32</text>
</g>
<!-- 576521972789431519 -->
<g id="node30" class="node">
<title>576521972789431519</title>
<ellipse fill="none" stroke="black" cx="2516.01" cy="-1149" rx="89.88" ry="18"/>
<text text-anchor="middle" x="2516.01" y="-1145.3" font-family="Times New Roman,serif" font-size="14.00">576521972789431519</text>
</g>
<!-- 576521972789431519&#45;&gt;727894315191185191 -->
<g id="edge32" class="edge">
<title>576521972789431519&#45;&gt;727894315191185191</title>
<path fill="none" stroke="#000000" stroke-opacity="0.431373" d="M2498.82,-1131.21C2485.83,-1118.52 2467.83,-1100.93 2453.36,-1086.79"/>
<polygon fill="#000000" fill-opacity="0.431373" stroke="#000000" stroke-opacity="0.431373" points="2455.76,-1084.24 2446.16,-1079.76 2450.87,-1089.25 2455.76,-1084.24"/>
<text text-anchor="middle" x="2485.01" y="-1101.8" font-family="Times New Roman,serif" font-size="14.00">52</text>
</g>
<!-- 576521972789431519&#45;&gt;383435081243485611 -->
<g id="edge33" class="edge">
<title>576521972789431519&#45;&gt;383435081243485611</title>
<path fill="none" stroke="#000000" stroke-opacity="0.231373" d="M2519.9,-1130.78C2522.79,-1117.1 2526.48,-1097.44 2528.01,-1080 2529.4,-1064.06 2529.52,-1059.93 2528.01,-1044 2526.73,-1030.49 2524.05,-1015.67 2521.45,-1003.32"/>
<polygon fill="#000000" fill-opacity="0.231373" stroke="#000000" stroke-opacity="0.231373" points="2524.79,-1002.22 2519.23,-993.2 2517.96,-1003.72 2524.79,-1002.22"/>
<text text-anchor="middle" x="2537.01" y="-1058.3" font-family="Times New Roman,serif" font-size="14.00">15</text>
</g>
<!-- 015255175191180189 -->
<g id="node32" class="node">
<title>015255175191180189</title>
<ellipse fill="none" stroke="black" cx="3895.01" cy="-1149" rx="89.88" ry="18"/>
<text text-anchor="middle" x="3895.01" y="-1145.3" font-family="Times New Roman,serif" font-size="14.00">015255175191180189</text>
</g>
<!-- 519729219727816705 -->
<g id="node33" class="node">
<title>519729219727816705</title>
<ellipse fill="none" stroke="black" cx="4092.01" cy="-1149" rx="89.88" ry="18"/>
<text text-anchor="middle" x="4092.01" y="-1145.3" font-family="Times New Roman,serif" font-size="14.00">519729219727816705</text>
</g>
<!-- 546003646711800140 -->
<g id="node37" class="node">
<title>546003646711800140</title>
<ellipse fill="none" stroke="black" cx="190.01" cy="-714" rx="89.88" ry="18"/>
<text text-anchor="middle" x="190.01" y="-710.3" font-family="Times New Roman,serif" font-size="14.00">546003646711800140</text>
</g>
<!-- 211911800357576546&#45;&gt;546003646711800140 -->
<g id="edge34" class="edge">
<title>211911800357576546&#45;&gt;546003646711800140</title>
<path fill="none" stroke="#000000" stroke-opacity="0.690196" d="M190.01,-782.8C190.01,-771.16 190.01,-755.55 190.01,-742.24"/>
<polygon fill="#000000" fill-opacity="0.690196" stroke="#000000" stroke-opacity="0.690196" points="193.51,-742.18 190.01,-732.18 186.51,-742.18 193.51,-742.18"/>
<text text-anchor="middle" x="200.51" y="-753.8" font-family="Times New Roman,serif" font-size="14.00">134</text>
</g>
<!-- 180189445229534527 -->
<g id="node39" class="node">
<title>180189445229534527</title>
<ellipse fill="none" stroke="black" cx="111.01" cy="-627" rx="89.88" ry="18"/>
<text text-anchor="middle" x="111.01" y="-623.3" font-family="Times New Roman,serif" font-size="14.00">180189445229534527</text>
</g>
<!-- 211911800357576546&#45;&gt;180189445229534527 -->
<g id="edge35" class="edge">
<title>211911800357576546&#45;&gt;180189445229534527</title>
<path fill="none" stroke="#000000" stroke-opacity="0.611765" d="M141.28,-785.74C115.21,-775.35 85.38,-758.38 70.01,-732 55.17,-706.54 72.36,-674.69 88.8,-652.99"/>
<polygon fill="#000000" fill-opacity="0.611765" stroke="#000000" stroke-opacity="0.611765" points="91.74,-654.93 95.23,-644.93 86.26,-650.56 91.74,-654.93"/>
<text text-anchor="middle" x="80.51" y="-710.3" font-family="Times New Roman,serif" font-size="14.00">105</text>
</g>
<!-- 679757714458316013 -->
<g id="node36" class="node">
<title>679757714458316013</title>
<ellipse fill="none" stroke="black" cx="4289.01" cy="-1149" rx="89.88" ry="18"/>
<text text-anchor="middle" x="4289.01" y="-1145.3" font-family="Times New Roman,serif" font-size="14.00">679757714458316013</text>
</g>
<!-- 546003646711800140&#45;&gt;275857651972788943 -->
<g id="edge36" class="edge">
<title>546003646711800140&#45;&gt;275857651972788943</title>
<path fill="none" stroke="#000000" stroke-opacity="0.662745" d="M218.28,-696.85C226.68,-691.4 235.6,-684.93 243.01,-678 279.39,-643.93 312.55,-596.04 331.21,-566.84"/>
<polygon fill="#000000" fill-opacity="0.662745" stroke="#000000" stroke-opacity="0.662745" points="334.38,-568.38 336.75,-558.06 328.46,-564.65 334.38,-568.38"/>
<text text-anchor="middle" x="313.51" y="-623.3" font-family="Times New Roman,serif" font-size="14.00">123</text>
</g>
<!-- 546003646711800140&#45;&gt;585765197278894388 -->
<g id="edge37" class="edge">
<title>546003646711800140&#45;&gt;585765197278894388</title>
<path fill="none" stroke="#000000" stroke-opacity="0.654902" d="M135.99,-699.58C89.13,-686.72 26.59,-666.19 12.01,-645 -26.99,-588.35 41.33,-514.38 82.76,-477.31"/>
<polygon fill="#000000" fill-opacity="0.654902" stroke="#000000" stroke-opacity="0.654902" points="85.19,-479.84 90.4,-470.62 80.57,-474.58 85.19,-479.84"/>
<text text-anchor="middle" x="17.51" y="-579.8" font-family="Times New Roman,serif" font-size="14.00">121</text>
</g>
<!-- 546003646711800140&#45;&gt;952196180031145727 -->
<g id="edge38" class="edge">
<title>546003646711800140&#45;&gt;952196180031145727</title>
<path fill="none" stroke="#000000" stroke-opacity="0.580392" d="M202.99,-696.13C214.34,-679.69 229.01,-653.49 229.01,-628 229.01,-628 229.01,-628 229.01,-104 229.01,-84.41 233.16,-62.72 237.24,-46.15"/>
<polygon fill="#000000" fill-opacity="0.580392" stroke="#000000" stroke-opacity="0.580392" points="240.73,-46.64 239.86,-36.08 233.95,-44.88 240.73,-46.64"/>
<text text-anchor="middle" x="236.01" y="-362.3" font-family="Times New Roman,serif" font-size="14.00">95</text>
</g>
<!-- 546003646711800140&#45;&gt;180189445229534527 -->
<g id="edge39" class="edge">
<title>546003646711800140&#45;&gt;180189445229534527</title>
<path fill="none" stroke="#000000" stroke-opacity="0.925490" d="M174.4,-696.21C162.71,-683.63 146.56,-666.25 133.48,-652.18"/>
<polygon fill="#000000" fill-opacity="0.925490" stroke="#000000" stroke-opacity="0.925490" points="135.95,-649.7 126.58,-644.76 130.83,-654.47 135.95,-649.7"/>
<text text-anchor="middle" x="166.51" y="-666.8" font-family="Times New Roman,serif" font-size="14.00">239</text>
</g>
<!-- 895219727816705121 -->
<g id="node38" class="node">
<title>895219727816705121</title>
<ellipse fill="none" stroke="black" cx="1124.01" cy="-975" rx="89.88" ry="18"/>
<text text-anchor="middle" x="1124.01" y="-971.3" font-family="Times New Roman,serif" font-size="14.00">895219727816705121</text>
</g>
<!-- 895219727816705121&#45;&gt;781670512164800658 -->
<g id="edge40" class="edge">
<title>895219727816705121&#45;&gt;781670512164800658</title>
<path fill="none" stroke="#000000" stroke-opacity="0.678431" d="M1074.96,-959.87C1023.6,-945.07 942.93,-921.83 888.09,-906.03"/>
<polygon fill="#000000" fill-opacity="0.678431" stroke="#000000" stroke-opacity="0.678431" points="888.75,-902.57 878.17,-903.17 886.81,-909.3 888.75,-902.57"/>
<text text-anchor="middle" x="1005.51" y="-927.8" font-family="Times New Roman,serif" font-size="14.00">129</text>
</g>
<!-- 895219727816705121&#45;&gt;114312889500362496 -->
<g id="edge41" class="edge">
<title>895219727816705121&#45;&gt;114312889500362496</title>
<path fill="none" stroke="#000000" stroke-opacity="0.627451" d="M1117.73,-956.8C1113.45,-945.05 1107.68,-929.24 1102.8,-915.84"/>
<polygon fill="#000000" fill-opacity="0.627451" stroke="#000000" stroke-opacity="0.627451" points="1105.99,-914.37 1099.27,-906.18 1099.41,-916.77 1105.99,-914.37"/>
<text text-anchor="middle" x="1121.51" y="-927.8" font-family="Times New Roman,serif" font-size="14.00">110</text>
</g>
<!-- 895219727816705121&#45;&gt;236467211911800357 -->
<g id="edge42" class="edge">
<title>895219727816705121&#45;&gt;236467211911800357</title>
<path fill="none" stroke="#000000" stroke-opacity="0.223529" d="M1172.48,-959.84C1191.53,-953.91 1213.47,-946.62 1233.01,-939 1255.61,-930.18 1280.19,-918.93 1300.19,-909.34"/>
<polygon fill="#000000" fill-opacity="0.223529" stroke="#000000" stroke-opacity="0.223529" points="1301.84,-912.43 1309.32,-904.92 1298.79,-906.13 1301.84,-912.43"/>
<text text-anchor="middle" x="1274.01" y="-927.8" font-family="Times New Roman,serif" font-size="14.00">14</text>
</g>
<!-- 895219727816705121&#45;&gt;965855064996704672 -->
<g id="edge43" class="edge">
<title>895219727816705121&#45;&gt;965855064996704672</title>
<path fill="none" stroke="#000000" stroke-opacity="0.545098" d="M1145.77,-957.53C1160.88,-944.99 1180.32,-926.43 1192.01,-906 1205.7,-882.07 1212.58,-851.1 1215.95,-829.2"/>
<polygon fill="#000000" fill-opacity="0.545098" stroke="#000000" stroke-opacity="0.545098" points="1219.43,-829.64 1217.34,-819.25 1212.49,-828.67 1219.43,-829.64"/>
<text text-anchor="middle" x="1214.01" y="-884.3" font-family="Times New Roman,serif" font-size="14.00">84</text>
</g>
<!-- 180189445229534527&#45;&gt;275857651972788943 -->
<g id="edge44" class="edge">
<title>180189445229534527&#45;&gt;275857651972788943</title>
<path fill="none" stroke="#000000" stroke-opacity="0.745098" d="M152.66,-611C192.55,-596.63 252.86,-574.91 295.7,-559.48"/>
<polygon fill="#000000" fill-opacity="0.745098" stroke="#000000" stroke-opacity="0.745098" points="297.16,-562.67 305.38,-555.99 294.78,-556.09 297.16,-562.67"/>
<text text-anchor="middle" x="254.51" y="-579.8" font-family="Times New Roman,serif" font-size="14.00">155</text>
</g>
<!-- 180189445229534527&#45;&gt;585765197278894388 -->
<g id="edge45" class="edge">
<title>180189445229534527&#45;&gt;585765197278894388</title>
<path fill="none" stroke="#000000" stroke-opacity="0.737255" d="M111.01,-608.88C111.01,-579 111.01,-517.11 111.01,-481.27"/>
<polygon fill="#000000" fill-opacity="0.737255" stroke="#000000" stroke-opacity="0.737255" points="114.51,-481.05 111.01,-471.05 107.51,-481.05 114.51,-481.05"/>
<text text-anchor="middle" x="121.51" y="-536.3" font-family="Times New Roman,serif" font-size="14.00">153</text>
</g>
<!-- 945765128895065128 -->
<g id="node41" class="node">
<title>945765128895065128</title>
<ellipse fill="none" stroke="black" cx="4486.01" cy="-1149" rx="89.88" ry="18"/>
<text text-anchor="middle" x="4486.01" y="-1145.3" font-family="Times New Roman,serif" font-size="14.00">945765128895065128</text>
</g>
<!-- 180036468895219912 -->
<g id="node43" class="node">
<title>180036468895219912</title>
<ellipse fill="none" stroke="black" cx="4683.01" cy="-1149" rx="89.88" ry="18"/>
<text text-anchor="middle" x="4683.01" y="-1145.3" font-family="Times New Roman,serif" font-size="14.00">180036468895219912</text>
</g>
<!-- 857659434421595604 -->
<g id="node44" class="node">
<title>857659434421595604</title>
<ellipse fill="none" stroke="black" cx="1286.01" cy="-540" rx="89.88" ry="18"/>
<text text-anchor="middle" x="1286.01" y="-536.3" font-family="Times New Roman,serif" font-size="14.00">857659434421595604</text>
</g>
<!-- 857659434421595604&#45;&gt;042159561513534780 -->
<g id="edge46" class="edge">
<title>857659434421595604&#45;&gt;042159561513534780</title>
<path fill="none" stroke="#000000" stroke-opacity="0.670588" d="M1295.81,-521.84C1317.69,-481 1364.84,-376.83 1315.01,-315 1305.21,-302.84 1274.47,-294.68 1242.44,-289.33"/>
<polygon fill="#000000" fill-opacity="0.670588" stroke="#000000" stroke-opacity="0.670588" points="1242.91,-285.86 1232.49,-287.76 1241.82,-292.78 1242.91,-285.86"/>
<text text-anchor="middle" x="1347.51" y="-405.8" font-family="Times New Roman,serif" font-size="14.00">126</text>
</g>
<!-- 857659434421595604&#45;&gt;978585765197292197 -->
<g id="edge47" class="edge">
<title>857659434421595604&#45;&gt;978585765197292197</title>
<path fill="none" stroke="#000000" stroke-opacity="0.349020" d="M1316.29,-523.01C1342.07,-509.4 1379.29,-489.75 1407.42,-474.9"/>
<polygon fill="#000000" fill-opacity="0.349020" stroke="#000000" stroke-opacity="0.349020" points="1409.38,-477.82 1416.59,-470.06 1406.11,-471.63 1409.38,-477.82"/>
<text text-anchor="middle" x="1384.01" y="-492.8" font-family="Times New Roman,serif" font-size="14.00">34</text>
</g>
<!-- 857659434421595604&#45;&gt;451904504215956151 -->
<g id="edge48" class="edge">
<title>857659434421595604&#45;&gt;451904504215956151</title>
<path fill="none" stroke="#000000" stroke-opacity="0.690196" d="M1257.25,-522.81C1233.22,-509.28 1198.76,-489.89 1172.55,-475.14"/>
<polygon fill="#000000" fill-opacity="0.690196" stroke="#000000" stroke-opacity="0.690196" points="1174.09,-471.98 1163.66,-470.13 1170.66,-478.08 1174.09,-471.98"/>
<text text-anchor="middle" x="1230.51" y="-492.8" font-family="Times New Roman,serif" font-size="14.00">133</text>
</g>
<!-- 819537243485625108 -->
<g id="node45" class="node">
<title>819537243485625108</title>
<ellipse fill="none" stroke="black" cx="1483.01" cy="-540" rx="89.88" ry="18"/>
<text text-anchor="middle" x="1483.01" y="-536.3" font-family="Times New Roman,serif" font-size="14.00">819537243485625108</text>
</g>
<!-- 819537243485625108&#45;&gt;978585765197292197 -->
<g id="edge49" class="edge">
<title>819537243485625108&#45;&gt;978585765197292197</title>
<path fill="none" stroke="#000000" stroke-opacity="0.349020" d="M1475.72,-521.8C1470.7,-509.93 1463.92,-493.93 1458.21,-480.45"/>
<polygon fill="#000000" fill-opacity="0.349020" stroke="#000000" stroke-opacity="0.349020" points="1461.41,-479.02 1454.28,-471.18 1454.96,-481.75 1461.41,-479.02"/>
<text text-anchor="middle" x="1475.01" y="-492.8" font-family="Times New Roman,serif" font-size="14.00">34</text>
</g>
<!-- 974648349472783040 -->
<g id="node46" class="node">
<title>974648349472783040</title>
<ellipse fill="none" stroke="black" cx="4880.01" cy="-1149" rx="89.88" ry="18"/>
<text text-anchor="middle" x="4880.01" y="-1145.3" font-family="Times New Roman,serif" font-size="14.00">974648349472783040</text>
</g>
<!-- 460036467118001401 -->
<g id="node47" class="node">
<title>460036467118001401</title>
<ellipse fill="none" stroke="black" cx="741.01" cy="-453" rx="89.88" ry="18"/>
<text text-anchor="middle" x="741.01" y="-449.3" font-family="Times New Roman,serif" font-size="14.00">460036467118001401</text>
</g>
<!-- 460036467118001401&#45;&gt;464726114514519485 -->
<g id="edge50" class="edge">
<title>460036467118001401&#45;&gt;464726114514519485</title>
<path fill="none" stroke="#000000" stroke-opacity="0.529412" d="M726.19,-435.21C715.2,-422.75 700.04,-405.57 687.69,-391.57"/>
<polygon fill="#000000" fill-opacity="0.529412" stroke="#000000" stroke-opacity="0.529412" points="690.04,-388.94 680.79,-383.76 684.79,-393.57 690.04,-388.94"/>
<text text-anchor="middle" x="715.01" y="-405.8" font-family="Times New Roman,serif" font-size="14.00">79</text>
</g>
<!-- 460036467118001401&#45;&gt;756356114519199118 -->
<g id="edge51" class="edge">
<title>460036467118001401&#45;&gt;756356114519199118</title>
<path fill="none" stroke="#000000" stroke-opacity="0.301961" d="M799.99,-439.27C871.28,-423.89 991.04,-398.06 1066.39,-381.8"/>
<polygon fill="#000000" fill-opacity="0.301961" stroke="#000000" stroke-opacity="0.301961" points="1067.23,-385.2 1076.26,-379.67 1065.75,-378.36 1067.23,-385.2"/>
<text text-anchor="middle" x="969.01" y="-405.8" font-family="Times New Roman,serif" font-size="14.00">26</text>
</g>
<!-- 965855064996704672&#45;&gt;857659434421595604 -->
<g id="edge52" class="edge">
<title>965855064996704672&#45;&gt;857659434421595604</title>
<path fill="none" stroke="#000000" stroke-opacity="0.309804" d="M1223.4,-783.01C1234.79,-739.01 1265.28,-621.11 1279.07,-567.81"/>
<polygon fill="#000000" fill-opacity="0.309804" stroke="#000000" stroke-opacity="0.309804" points="1282.48,-568.61 1281.6,-558.06 1275.7,-566.86 1282.48,-568.61"/>
<text text-anchor="middle" x="1262.01" y="-666.8" font-family="Times New Roman,serif" font-size="14.00">27</text>
</g>
<!-- 628477090889524348&#45;&gt;867563561145191991 -->
<g id="edge53" class="edge">
<title>628477090889524348&#45;&gt;867563561145191991</title>
<path fill="none" stroke="#000000" stroke-opacity="0.486275" d="M1212.87,-177.44C1153.87,-162.38 1058.71,-138.09 996,-122.08"/>
<polygon fill="#000000" fill-opacity="0.486275" stroke="#000000" stroke-opacity="0.486275" points="996.78,-118.67 986.23,-119.58 995.05,-125.45 996.78,-118.67"/>
<text text-anchor="middle" x="1127.01" y="-144.8" font-family="Times New Roman,serif" font-size="14.00">67</text>
</g>
</g>
</svg>
