<?xml version="1.0" encoding="UTF-8" standalone="no"?>
<!DOCTYPE svg PUBLIC "-//W3C//DTD SVG 1.1//EN"
 "http://www.w3.org/Graphics/SVG/1.1/DTD/svg11.dtd">
<!-- Generated by graphviz version 3.0.0 (20220226.1711)
 -->
<!-- Pages: 1 -->
<svg width="4556pt" height="1001pt"
 viewBox="0.00 0.00 4556.38 1001.00" xmlns="http://www.w3.org/2000/svg" xmlns:xlink="http://www.w3.org/1999/xlink">
<g id="graph0" class="graph" transform="scale(1 1) rotate(0) translate(4 997)">
<polygon fill="white" stroke="transparent" points="-4,4 -4,-997 4552.38,-997 4552.38,4 -4,4"/>
<!-- 867563561145191991 -->
<g id="node1" class="node">
<title>867563561145191991</title>
<ellipse fill="none" stroke="black" cx="885.69" cy="-105" rx="89.88" ry="18"/>
<text text-anchor="middle" x="885.69" y="-101.3" font-family="Times New Roman,serif" font-size="14.00">867563561145191991</text>
</g>
<!-- 952196180031145727 -->
<g id="node35" class="node">
<title>952196180031145727</title>
<ellipse fill="none" stroke="black" cx="772.69" cy="-18" rx="89.88" ry="18"/>
<text text-anchor="middle" x="772.69" y="-14.3" font-family="Times New Roman,serif" font-size="14.00">952196180031145727</text>
</g>
<!-- 867563561145191991&#45;&gt;952196180031145727 -->
<g id="edge1" class="edge">
<title>867563561145191991&#45;&gt;952196180031145727</title>
<path fill="none" stroke="#000000" stroke-opacity="0.627451" d="M863.64,-87.41C846.29,-74.36 821.95,-56.05 802.81,-41.65"/>
<polygon fill="#000000" fill-opacity="0.627451" stroke="#000000" stroke-opacity="0.627451" points="804.79,-38.76 794.69,-35.55 800.58,-44.36 804.79,-38.76"/>
<text text-anchor="middle" x="847.19" y="-57.8" font-family="Times New Roman,serif" font-size="14.00">110</text>
</g>
<!-- 781670512164800658 -->
<g id="node2" class="node">
<title>781670512164800658</title>
<ellipse fill="none" stroke="black" cx="556.69" cy="-888" rx="89.88" ry="18"/>
<text text-anchor="middle" x="556.69" y="-884.3" font-family="Times New Roman,serif" font-size="14.00">781670512164800658</text>
</g>
<!-- 211911800357576546 -->
<g id="node34" class="node">
<title>211911800357576546</title>
<ellipse fill="none" stroke="black" cx="358.69" cy="-801" rx="89.88" ry="18"/>
<text text-anchor="middle" x="358.69" y="-797.3" font-family="Times New Roman,serif" font-size="14.00">211911800357576546</text>
</g>
<!-- 781670512164800658&#45;&gt;211911800357576546 -->
<g id="edge2" class="edge">
<title>781670512164800658&#45;&gt;211911800357576546</title>
<path fill="none" stroke="#000000" stroke-opacity="0.258824" d="M520.38,-871.41C487.72,-857.39 439.61,-836.74 404.36,-821.6"/>
<polygon fill="#000000" fill-opacity="0.258824" stroke="#000000" stroke-opacity="0.258824" points="405.35,-818.22 394.78,-817.49 402.59,-824.65 405.35,-818.22"/>
<text text-anchor="middle" x="476.69" y="-840.8" font-family="Times New Roman,serif" font-size="14.00">19</text>
</g>
<!-- 945765599670467261 -->
<g id="node3" class="node">
<title>945765599670467261</title>
<ellipse fill="none" stroke="black" cx="912.69" cy="-975" rx="89.88" ry="18"/>
<text text-anchor="middle" x="912.69" y="-971.3" font-family="Times New Roman,serif" font-size="14.00">945765599670467261</text>
</g>
<!-- 275857651972788943 -->
<g id="node4" class="node">
<title>275857651972788943</title>
<ellipse fill="none" stroke="black" cx="424.69" cy="-540" rx="89.88" ry="18"/>
<text text-anchor="middle" x="424.69" y="-536.3" font-family="Times New Roman,serif" font-size="14.00">275857651972788943</text>
</g>
<!-- 585765197278894388 -->
<g id="node8" class="node">
<title>585765197278894388</title>
<ellipse fill="none" stroke="black" cx="89.69" cy="-453" rx="89.88" ry="18"/>
<text text-anchor="middle" x="89.69" y="-449.3" font-family="Times New Roman,serif" font-size="14.00">585765197278894388</text>
</g>
<!-- 275857651972788943&#45;&gt;585765197278894388 -->
<g id="edge3" class="edge">
<title>275857651972788943&#45;&gt;585765197278894388</title>
<path fill="none" stroke="#000000" stroke-opacity="0.984314" d="M380.56,-524.32C366.16,-518.78 350.36,-511.89 336.69,-504 327.37,-498.62 327.59,-493.22 317.69,-489 264.03,-466.13 245.32,-479.99 187.69,-471 180.07,-469.81 172.13,-468.52 164.21,-467.2"/>
<polygon fill="#000000" fill-opacity="0.984314" stroke="#000000" stroke-opacity="0.984314" points="164.66,-463.73 154.22,-465.52 163.5,-470.63 164.66,-463.73"/>
<text text-anchor="middle" x="347.19" y="-492.8" font-family="Times New Roman,serif" font-size="14.00">271</text>
</g>
<!-- 042159561513534780 -->
<g id="node9" class="node">
<title>042159561513534780</title>
<ellipse fill="none" stroke="black" cx="971.69" cy="-279" rx="89.88" ry="18"/>
<text text-anchor="middle" x="971.69" y="-275.3" font-family="Times New Roman,serif" font-size="14.00">042159561513534780</text>
</g>
<!-- 275857651972788943&#45;&gt;042159561513534780 -->
<g id="edge4" class="edge">
<title>275857651972788943&#45;&gt;042159561513534780</title>
<path fill="none" stroke="#000000" stroke-opacity="0.525490" d="M505.96,-532.31C597.4,-523.27 738.56,-504.34 779.69,-471 805.54,-450.05 789.83,-429.4 808.69,-402 840.42,-355.91 853.76,-346.95 899.69,-315 907.57,-309.52 916.43,-304.45 925.18,-299.97"/>
<polygon fill="#000000" fill-opacity="0.525490" stroke="#000000" stroke-opacity="0.525490" points="926.78,-303.08 934.2,-295.52 923.68,-296.81 926.78,-303.08"/>
<text text-anchor="middle" x="815.69" y="-405.8" font-family="Times New Roman,serif" font-size="14.00">78</text>
</g>
<!-- 451904504215956151 -->
<g id="node26" class="node">
<title>451904504215956151</title>
<ellipse fill="none" stroke="black" cx="974.69" cy="-453" rx="89.88" ry="18"/>
<text text-anchor="middle" x="974.69" y="-449.3" font-family="Times New Roman,serif" font-size="14.00">451904504215956151</text>
</g>
<!-- 275857651972788943&#45;&gt;451904504215956151 -->
<g id="edge5" class="edge">
<title>275857651972788943&#45;&gt;451904504215956151</title>
<path fill="none" stroke="#000000" stroke-opacity="0.549020" d="M510.57,-534.6C584.05,-529.9 692.42,-520.75 785.69,-504 831.08,-495.85 881.52,-482.27 918.87,-471.32"/>
<polygon fill="#000000" fill-opacity="0.549020" stroke="#000000" stroke-opacity="0.549020" points="919.96,-474.64 928.56,-468.45 917.98,-467.93 919.96,-474.64"/>
<text text-anchor="middle" x="861.69" y="-492.8" font-family="Times New Roman,serif" font-size="14.00">85</text>
</g>
<!-- 519118651281911800 -->
<g id="node28" class="node">
<title>519118651281911800</title>
<ellipse fill="none" stroke="black" cx="483.69" cy="-453" rx="89.88" ry="18"/>
<text text-anchor="middle" x="483.69" y="-449.3" font-family="Times New Roman,serif" font-size="14.00">519118651281911800</text>
</g>
<!-- 275857651972788943&#45;&gt;519118651281911800 -->
<g id="edge6" class="edge">
<title>275857651972788943&#45;&gt;519118651281911800</title>
<path fill="none" stroke="#000000" stroke-opacity="0.321569" d="M436.63,-521.8C445.08,-509.62 456.56,-493.09 466.06,-479.4"/>
<polygon fill="#000000" fill-opacity="0.321569" stroke="#000000" stroke-opacity="0.321569" points="469.14,-481.1 471.97,-470.89 463.39,-477.1 469.14,-481.1"/>
<text text-anchor="middle" x="465.69" y="-492.8" font-family="Times New Roman,serif" font-size="14.00">29</text>
</g>
<!-- 857744545190450421 -->
<g id="node31" class="node">
<title>857744545190450421</title>
<ellipse fill="none" stroke="black" cx="286.69" cy="-453" rx="89.88" ry="18"/>
<text text-anchor="middle" x="286.69" y="-449.3" font-family="Times New Roman,serif" font-size="14.00">857744545190450421</text>
</g>
<!-- 275857651972788943&#45;&gt;857744545190450421 -->
<g id="edge7" class="edge">
<title>275857651972788943&#45;&gt;857744545190450421</title>
<path fill="none" stroke="#000000" stroke-opacity="0.572549" d="M405.98,-522.23C393.88,-511.88 377.49,-498.77 361.69,-489 352.8,-483.5 342.91,-478.3 333.3,-473.68"/>
<polygon fill="#000000" fill-opacity="0.572549" stroke="#000000" stroke-opacity="0.572549" points="334.75,-470.49 324.21,-469.43 331.79,-476.83 334.75,-470.49"/>
<text text-anchor="middle" x="389.69" y="-492.8" font-family="Times New Roman,serif" font-size="14.00">92</text>
</g>
<!-- 304648435345158604 -->
<g id="node5" class="node">
<title>304648435345158604</title>
<ellipse fill="none" stroke="black" cx="1109.69" cy="-975" rx="89.88" ry="18"/>
<text text-anchor="middle" x="1109.69" y="-971.3" font-family="Times New Roman,serif" font-size="14.00">304648435345158604</text>
</g>
<!-- 843534515867511216 -->
<g id="node6" class="node">
<title>843534515867511216</title>
<ellipse fill="none" stroke="black" cx="1306.69" cy="-975" rx="89.88" ry="18"/>
<text text-anchor="middle" x="1306.69" y="-971.3" font-family="Times New Roman,serif" font-size="14.00">843534515867511216</text>
</g>
<!-- 464726114514519485 -->
<g id="node7" class="node">
<title>464726114514519485</title>
<ellipse fill="none" stroke="black" cx="605.69" cy="-366" rx="89.88" ry="18"/>
<text text-anchor="middle" x="605.69" y="-362.3" font-family="Times New Roman,serif" font-size="14.00">464726114514519485</text>
</g>
<!-- 952199118435081243 -->
<g id="node48" class="node">
<title>952199118435081243</title>
<ellipse fill="none" stroke="black" cx="522.69" cy="-279" rx="89.88" ry="18"/>
<text text-anchor="middle" x="522.69" y="-275.3" font-family="Times New Roman,serif" font-size="14.00">952199118435081243</text>
</g>
<!-- 464726114514519485&#45;&gt;952199118435081243 -->
<g id="edge8" class="edge">
<title>464726114514519485&#45;&gt;952199118435081243</title>
<path fill="none" stroke="#000000" stroke-opacity="0.521569" d="M589.29,-348.21C577.02,-335.63 560.04,-318.25 546.31,-304.18"/>
<polygon fill="#000000" fill-opacity="0.521569" stroke="#000000" stroke-opacity="0.521569" points="548.55,-301.47 539.06,-296.76 543.54,-306.36 548.55,-301.47"/>
<text text-anchor="middle" x="576.69" y="-318.8" font-family="Times New Roman,serif" font-size="14.00">76</text>
</g>
<!-- 042159561513534780&#45;&gt;867563561145191991 -->
<g id="edge9" class="edge">
<title>042159561513534780&#45;&gt;867563561145191991</title>
<path fill="none" stroke="#000000" stroke-opacity="0.376471" d="M944.37,-261.72C926.97,-249.76 905.69,-231.82 894.69,-210 882.69,-186.19 881.51,-155.39 882.68,-133.51"/>
<polygon fill="#000000" fill-opacity="0.376471" stroke="#000000" stroke-opacity="0.376471" points="886.19,-133.48 883.43,-123.25 879.21,-132.97 886.19,-133.48"/>
<text text-anchor="middle" x="901.69" y="-188.3" font-family="Times New Roman,serif" font-size="14.00">40</text>
</g>
<!-- 628477090889524348 -->
<g id="node50" class="node">
<title>628477090889524348</title>
<ellipse fill="none" stroke="black" cx="1007.69" cy="-192" rx="89.88" ry="18"/>
<text text-anchor="middle" x="1007.69" y="-188.3" font-family="Times New Roman,serif" font-size="14.00">628477090889524348</text>
</g>
<!-- 042159561513534780&#45;&gt;628477090889524348 -->
<g id="edge10" class="edge">
<title>042159561513534780&#45;&gt;628477090889524348</title>
<path fill="none" stroke="#000000" stroke-opacity="0.501961" d="M978.98,-260.8C984,-248.93 990.78,-232.93 996.49,-219.45"/>
<polygon fill="#000000" fill-opacity="0.501961" stroke="#000000" stroke-opacity="0.501961" points="999.74,-220.75 1000.42,-210.18 993.29,-218.02 999.74,-220.75"/>
<text text-anchor="middle" x="999.69" y="-231.8" font-family="Times New Roman,serif" font-size="14.00">71</text>
</g>
<!-- 180036468895219911 -->
<g id="node10" class="node">
<title>180036468895219911</title>
<ellipse fill="none" stroke="black" cx="1464.69" cy="-801" rx="89.88" ry="18"/>
<text text-anchor="middle" x="1464.69" y="-797.3" font-family="Times New Roman,serif" font-size="14.00">180036468895219911</text>
</g>
<!-- 236467211911800357 -->
<g id="node29" class="node">
<title>236467211911800357</title>
<ellipse fill="none" stroke="black" cx="1550.69" cy="-714" rx="89.88" ry="18"/>
<text text-anchor="middle" x="1550.69" y="-710.3" font-family="Times New Roman,serif" font-size="14.00">236467211911800357</text>
</g>
<!-- 180036468895219911&#45;&gt;236467211911800357 -->
<g id="edge11" class="edge">
<title>180036468895219911&#45;&gt;236467211911800357</title>
<path fill="none" stroke="#000000" stroke-opacity="0.631373" d="M1481.68,-783.21C1494.52,-770.52 1512.32,-752.93 1526.62,-738.79"/>
<polygon fill="#000000" fill-opacity="0.631373" stroke="#000000" stroke-opacity="0.631373" points="1529.08,-741.28 1533.74,-731.76 1524.16,-736.3 1529.08,-741.28"/>
<text text-anchor="middle" x="1524.19" y="-753.8" font-family="Times New Roman,serif" font-size="14.00">112</text>
</g>
<!-- 783020311806571918 -->
<g id="node11" class="node">
<title>783020311806571918</title>
<ellipse fill="none" stroke="black" cx="1700.69" cy="-975" rx="89.88" ry="18"/>
<text text-anchor="middle" x="1700.69" y="-971.3" font-family="Times New Roman,serif" font-size="14.00">783020311806571918</text>
</g>
<!-- 727894315191185191 -->
<g id="node12" class="node">
<title>727894315191185191</title>
<ellipse fill="none" stroke="black" cx="1842.69" cy="-888" rx="89.88" ry="18"/>
<text text-anchor="middle" x="1842.69" y="-884.3" font-family="Times New Roman,serif" font-size="14.00">727894315191185191</text>
</g>
<!-- 383435081243485611 -->
<g id="node13" class="node">
<title>383435081243485611</title>
<ellipse fill="none" stroke="black" cx="1928.69" cy="-801" rx="89.88" ry="18"/>
<text text-anchor="middle" x="1928.69" y="-797.3" font-family="Times New Roman,serif" font-size="14.00">383435081243485611</text>
</g>
<!-- 727894315191185191&#45;&gt;383435081243485611 -->
<g id="edge12" class="edge">
<title>727894315191185191&#45;&gt;383435081243485611</title>
<path fill="none" stroke="#000000" stroke-opacity="0.615686" d="M1859.68,-870.21C1872.52,-857.52 1890.32,-839.93 1904.62,-825.79"/>
<polygon fill="#000000" fill-opacity="0.615686" stroke="#000000" stroke-opacity="0.615686" points="1907.08,-828.28 1911.74,-818.76 1902.16,-823.3 1907.08,-828.28"/>
<text text-anchor="middle" x="1902.19" y="-840.8" font-family="Times New Roman,serif" font-size="14.00">106</text>
</g>
<!-- 781670574770909612 -->
<g id="node14" class="node">
<title>781670574770909612</title>
<ellipse fill="none" stroke="black" cx="2094.69" cy="-975" rx="89.88" ry="18"/>
<text text-anchor="middle" x="2094.69" y="-971.3" font-family="Times New Roman,serif" font-size="14.00">781670574770909612</text>
</g>
<!-- 978585765197292197 -->
<g id="node15" class="node">
<title>978585765197292197</title>
<ellipse fill="none" stroke="black" cx="1285.69" cy="-453" rx="89.88" ry="18"/>
<text text-anchor="middle" x="1285.69" y="-449.3" font-family="Times New Roman,serif" font-size="14.00">978585765197292197</text>
</g>
<!-- 978585765197292197&#45;&gt;628477090889524348 -->
<g id="edge13" class="edge">
<title>978585765197292197&#45;&gt;628477090889524348</title>
<path fill="none" stroke="#000000" stroke-opacity="0.341176" d="M1273.22,-435.07C1242.8,-394.73 1160.82,-291.58 1072.69,-228 1065.67,-222.93 1057.83,-218.1 1050.08,-213.74"/>
<polygon fill="#000000" fill-opacity="0.341176" stroke="#000000" stroke-opacity="0.341176" points="1051.55,-210.55 1041.1,-208.84 1048.2,-216.7 1051.55,-210.55"/>
<text text-anchor="middle" x="1190.69" y="-318.8" font-family="Times New Roman,serif" font-size="14.00">33</text>
</g>
<!-- 756356114519199118 -->
<g id="node16" class="node">
<title>756356114519199118</title>
<ellipse fill="none" stroke="black" cx="1011.69" cy="-366" rx="89.88" ry="18"/>
<text text-anchor="middle" x="1011.69" y="-362.3" font-family="Times New Roman,serif" font-size="14.00">756356114519199118</text>
</g>
<!-- 756356114519199118&#45;&gt;042159561513534780 -->
<g id="edge14" class="edge">
<title>756356114519199118&#45;&gt;042159561513534780</title>
<path fill="none" stroke="#000000" stroke-opacity="0.368627" d="M1003.6,-347.8C998.01,-335.93 990.48,-319.93 984.14,-306.45"/>
<polygon fill="#000000" fill-opacity="0.368627" stroke="#000000" stroke-opacity="0.368627" points="987.2,-304.73 979.77,-297.18 980.87,-307.71 987.2,-304.73"/>
<text text-anchor="middle" x="1001.69" y="-318.8" font-family="Times New Roman,serif" font-size="14.00">38</text>
</g>
<!-- 756356114519199118&#45;&gt;451904504215956151 -->
<g id="edge15" class="edge">
<title>756356114519199118&#45;&gt;451904504215956151</title>
<path fill="none" stroke="#000000" stroke-opacity="0.400000" d="M989.1,-383.71C983.72,-388.92 978.68,-395.12 975.69,-402 972.68,-408.93 971.6,-416.92 971.49,-424.46"/>
<polygon fill="#000000" fill-opacity="0.400000" stroke="#000000" stroke-opacity="0.400000" points="968,-424.78 971.87,-434.65 974.99,-424.52 968,-424.78"/>
<text text-anchor="middle" x="982.69" y="-405.8" font-family="Times New Roman,serif" font-size="14.00">45</text>
</g>
<!-- 017464834943435282 -->
<g id="node17" class="node">
<title>017464834943435282</title>
<ellipse fill="none" stroke="black" cx="2291.69" cy="-975" rx="89.88" ry="18"/>
<text text-anchor="middle" x="2291.69" y="-971.3" font-family="Times New Roman,serif" font-size="14.00">017464834943435282</text>
</g>
<!-- 435282177830457651 -->
<g id="node40" class="node">
<title>435282177830457651</title>
<ellipse fill="none" stroke="black" cx="2291.69" cy="-888" rx="89.88" ry="18"/>
<text text-anchor="middle" x="2291.69" y="-884.3" font-family="Times New Roman,serif" font-size="14.00">435282177830457651</text>
</g>
<!-- 017464834943435282&#45;&gt;435282177830457651 -->
<g id="edge16" class="edge">
<title>017464834943435282&#45;&gt;435282177830457651</title>
<path fill="none" stroke="#000000" stroke-opacity="0.427451" d="M2291.69,-956.8C2291.69,-945.16 2291.69,-929.55 2291.69,-916.24"/>
<polygon fill="#000000" fill-opacity="0.427451" stroke="#000000" stroke-opacity="0.427451" points="2295.19,-916.18 2291.69,-906.18 2288.19,-916.18 2295.19,-916.18"/>
<text text-anchor="middle" x="2298.69" y="-927.8" font-family="Times New Roman,serif" font-size="14.00">51</text>
</g>
<!-- 508434856114572785 -->
<g id="node18" class="node">
<title>508434856114572785</title>
<ellipse fill="none" stroke="black" cx="1588.69" cy="-888" rx="89.88" ry="18"/>
<text text-anchor="middle" x="1588.69" y="-884.3" font-family="Times New Roman,serif" font-size="14.00">508434856114572785</text>
</g>
<!-- 508434856114572785&#45;&gt;180036468895219911 -->
<g id="edge17" class="edge">
<title>508434856114572785&#45;&gt;180036468895219911</title>
<path fill="none" stroke="#000000" stroke-opacity="0.454902" d="M1564.78,-870.61C1545.61,-857.47 1518.5,-838.88 1497.33,-824.37"/>
<polygon fill="#000000" fill-opacity="0.454902" stroke="#000000" stroke-opacity="0.454902" points="1499.18,-821.4 1488.95,-818.63 1495.22,-827.17 1499.18,-821.4"/>
<text text-anchor="middle" x="1541.69" y="-840.8" font-family="Times New Roman,serif" font-size="14.00">58</text>
</g>
<!-- 508434856114572785&#45;&gt;236467211911800357 -->
<g id="edge18" class="edge">
<title>508434856114572785&#45;&gt;236467211911800357</title>
<path fill="none" stroke="#000000" stroke-opacity="0.321569" d="M1584.91,-869.88C1578.31,-840 1564.64,-778.11 1556.72,-742.27"/>
<polygon fill="#000000" fill-opacity="0.321569" stroke="#000000" stroke-opacity="0.321569" points="1560.03,-741.06 1554.46,-732.05 1553.2,-742.57 1560.03,-741.06"/>
<text text-anchor="middle" x="1580.69" y="-797.3" font-family="Times New Roman,serif" font-size="14.00">29</text>
</g>
<!-- 651288952364672119 -->
<g id="node42" class="node">
<title>651288952364672119</title>
<ellipse fill="none" stroke="black" cx="1712.69" cy="-801" rx="89.88" ry="18"/>
<text text-anchor="middle" x="1712.69" y="-797.3" font-family="Times New Roman,serif" font-size="14.00">651288952364672119</text>
</g>
<!-- 508434856114572785&#45;&gt;651288952364672119 -->
<g id="edge19" class="edge">
<title>508434856114572785&#45;&gt;651288952364672119</title>
<path fill="none" stroke="#000000" stroke-opacity="0.360784" d="M1612.6,-870.61C1631.78,-857.47 1658.89,-838.88 1680.06,-824.37"/>
<polygon fill="#000000" fill-opacity="0.360784" stroke="#000000" stroke-opacity="0.360784" points="1682.16,-827.17 1688.43,-818.63 1678.21,-821.4 1682.16,-827.17"/>
<text text-anchor="middle" x="1665.69" y="-840.8" font-family="Times New Roman,serif" font-size="14.00">37</text>
</g>
<!-- 219605796366125275 -->
<g id="node19" class="node">
<title>219605796366125275</title>
<ellipse fill="none" stroke="black" cx="2488.69" cy="-975" rx="89.88" ry="18"/>
<text text-anchor="middle" x="2488.69" y="-971.3" font-family="Times New Roman,serif" font-size="14.00">219605796366125275</text>
</g>
<!-- 572785726118576436 -->
<g id="node20" class="node">
<title>572785726118576436</title>
<ellipse fill="none" stroke="black" cx="2685.69" cy="-975" rx="89.88" ry="18"/>
<text text-anchor="middle" x="2685.69" y="-971.3" font-family="Times New Roman,serif" font-size="14.00">572785726118576436</text>
</g>
<!-- 404215857651216151 -->
<g id="node21" class="node">
<title>404215857651216151</title>
<ellipse fill="none" stroke="black" cx="1503.69" cy="-975" rx="89.88" ry="18"/>
<text text-anchor="middle" x="1503.69" y="-971.3" font-family="Times New Roman,serif" font-size="14.00">404215857651216151</text>
</g>
<!-- 404215857651216151&#45;&gt;180036468895219911 -->
<g id="edge20" class="edge">
<title>404215857651216151&#45;&gt;180036468895219911</title>
<path fill="none" stroke="#000000" stroke-opacity="0.301961" d="M1495.03,-956.86C1488.62,-943.38 1480.24,-923.95 1475.69,-906 1469.24,-880.52 1466.57,-850.6 1465.46,-829.41"/>
<polygon fill="#000000" fill-opacity="0.301961" stroke="#000000" stroke-opacity="0.301961" points="1468.95,-829.03 1465.02,-819.19 1461.96,-829.34 1468.95,-829.03"/>
<text text-anchor="middle" x="1482.69" y="-884.3" font-family="Times New Roman,serif" font-size="14.00">26</text>
</g>
<!-- 404215857651216151&#45;&gt;508434856114572785 -->
<g id="edge21" class="edge">
<title>404215857651216151&#45;&gt;508434856114572785</title>
<path fill="none" stroke="#000000" stroke-opacity="0.717647" d="M1520.49,-957.21C1533.06,-944.63 1550.44,-927.25 1564.51,-913.18"/>
<polygon fill="#000000" fill-opacity="0.717647" stroke="#000000" stroke-opacity="0.717647" points="1567.34,-915.3 1571.93,-905.76 1562.39,-910.35 1567.34,-915.3"/>
<text text-anchor="middle" x="1562.19" y="-927.8" font-family="Times New Roman,serif" font-size="14.00">144</text>
</g>
<!-- 114312889500362496 -->
<g id="node22" class="node">
<title>114312889500362496</title>
<ellipse fill="none" stroke="black" cx="837.69" cy="-888" rx="89.88" ry="18"/>
<text text-anchor="middle" x="837.69" y="-884.3" font-family="Times New Roman,serif" font-size="14.00">114312889500362496</text>
</g>
<!-- 965855064996704672 -->
<g id="node49" class="node">
<title>965855064996704672</title>
<ellipse fill="none" stroke="black" cx="837.69" cy="-801" rx="89.88" ry="18"/>
<text text-anchor="middle" x="837.69" y="-797.3" font-family="Times New Roman,serif" font-size="14.00">965855064996704672</text>
</g>
<!-- 114312889500362496&#45;&gt;965855064996704672 -->
<g id="edge22" class="edge">
<title>114312889500362496&#45;&gt;965855064996704672</title>
<path fill="none" stroke="#000000" stroke-opacity="0.666667" d="M837.69,-869.8C837.69,-858.16 837.69,-842.55 837.69,-829.24"/>
<polygon fill="#000000" fill-opacity="0.666667" stroke="#000000" stroke-opacity="0.666667" points="841.19,-829.18 837.69,-819.18 834.19,-829.18 841.19,-829.18"/>
<text text-anchor="middle" x="848.19" y="-840.8" font-family="Times New Roman,serif" font-size="14.00">125</text>
</g>
<!-- 094343508434856118 -->
<g id="node23" class="node">
<title>094343508434856118</title>
<ellipse fill="none" stroke="black" cx="2882.69" cy="-975" rx="89.88" ry="18"/>
<text text-anchor="middle" x="2882.69" y="-971.3" font-family="Times New Roman,serif" font-size="14.00">094343508434856118</text>
</g>
<!-- 534527446190830457 -->
<g id="node24" class="node">
<title>534527446190830457</title>
<ellipse fill="none" stroke="black" cx="1204.69" cy="-192" rx="89.88" ry="18"/>
<text text-anchor="middle" x="1204.69" y="-188.3" font-family="Times New Roman,serif" font-size="14.00">534527446190830457</text>
</g>
<!-- 534527446190830457&#45;&gt;867563561145191991 -->
<g id="edge23" class="edge">
<title>534527446190830457&#45;&gt;867563561145191991</title>
<path fill="none" stroke="#000000" stroke-opacity="0.231373" d="M1153.08,-177.25C1096.88,-162.27 1007.02,-138.33 947.19,-122.39"/>
<polygon fill="#000000" fill-opacity="0.231373" stroke="#000000" stroke-opacity="0.231373" points="948.05,-118.99 937.49,-119.8 946.25,-125.76 948.05,-118.99"/>
<text text-anchor="middle" x="1071.69" y="-144.8" font-family="Times New Roman,serif" font-size="14.00">15</text>
</g>
<!-- 467252197752364672 -->
<g id="node25" class="node">
<title>467252197752364672</title>
<ellipse fill="none" stroke="black" cx="3079.69" cy="-975" rx="89.88" ry="18"/>
<text text-anchor="middle" x="3079.69" y="-971.3" font-family="Times New Roman,serif" font-size="14.00">467252197752364672</text>
</g>
<!-- 451904504215956151&#45;&gt;867563561145191991 -->
<g id="edge24" class="edge">
<title>451904504215956151&#45;&gt;867563561145191991</title>
<path fill="none" stroke="#000000" stroke-opacity="0.368627" d="M898.34,-443.37C880.82,-438.14 863.57,-429.9 850.69,-417 834.39,-400.67 836.69,-390.08 836.69,-367 836.69,-367 836.69,-367 836.69,-191 836.69,-168.52 849.72,-146.62 862.34,-130.69"/>
<polygon fill="#000000" fill-opacity="0.368627" stroke="#000000" stroke-opacity="0.368627" points="865.1,-132.84 868.83,-122.92 859.73,-128.35 865.1,-132.84"/>
<text text-anchor="middle" x="843.69" y="-275.3" font-family="Times New Roman,serif" font-size="14.00">38</text>
</g>
<!-- 451904504215956151&#45;&gt;042159561513534780 -->
<g id="edge25" class="edge">
<title>451904504215956151&#45;&gt;042159561513534780</title>
<path fill="none" stroke="#000000" d="M943.81,-436.02C924.95,-424.4 902.45,-406.73 891.69,-384 884.85,-369.54 884.98,-362.52 891.69,-348 900.49,-328.98 917.52,-313.33 933.61,-301.86"/>
<polygon fill="#000000" stroke="#000000" points="935.58,-304.75 941.89,-296.24 931.65,-298.96 935.58,-304.75"/>
<text text-anchor="middle" x="902.19" y="-362.3" font-family="Times New Roman,serif" font-size="14.00">279</text>
</g>
<!-- 451904504215956151&#45;&gt;756356114519199118 -->
<g id="edge26" class="edge">
<title>451904504215956151&#45;&gt;756356114519199118</title>
<path fill="none" stroke="#000000" stroke-opacity="0.356863" d="M982.18,-434.8C987.35,-422.93 994.31,-406.93 1000.18,-393.45"/>
<polygon fill="#000000" fill-opacity="0.356863" stroke="#000000" stroke-opacity="0.356863" points="1003.43,-394.74 1004.22,-384.18 997.02,-391.95 1003.43,-394.74"/>
<text text-anchor="middle" x="1002.69" y="-405.8" font-family="Times New Roman,serif" font-size="14.00">36</text>
</g>
<!-- 451904504215956151&#45;&gt;628477090889524348 -->
<g id="edge27" class="edge">
<title>451904504215956151&#45;&gt;628477090889524348</title>
<path fill="none" stroke="#000000" stroke-opacity="0.494118" d="M1031.11,-438.97C1060.25,-429.07 1093.27,-412.18 1110.69,-384 1146.98,-325.29 1078.59,-252.8 1036.75,-216.31"/>
<polygon fill="#000000" fill-opacity="0.494118" stroke="#000000" stroke-opacity="0.494118" points="1038.91,-213.55 1029.03,-209.72 1034.36,-218.88 1038.91,-213.55"/>
<text text-anchor="middle" x="1125.69" y="-318.8" font-family="Times New Roman,serif" font-size="14.00">69</text>
</g>
<!-- 843508192159561513 -->
<g id="node27" class="node">
<title>843508192159561513</title>
<ellipse fill="none" stroke="black" cx="3276.69" cy="-975" rx="89.88" ry="18"/>
<text text-anchor="middle" x="3276.69" y="-971.3" font-family="Times New Roman,serif" font-size="14.00">843508192159561513</text>
</g>
<!-- 519118651281911800&#45;&gt;464726114514519485 -->
<g id="edge28" class="edge">
<title>519118651281911800&#45;&gt;464726114514519485</title>
<path fill="none" stroke="#000000" stroke-opacity="0.627451" d="M507.21,-435.61C526.08,-422.47 552.75,-403.88 573.58,-389.37"/>
<polygon fill="#000000" fill-opacity="0.627451" stroke="#000000" stroke-opacity="0.627451" points="575.62,-392.22 581.83,-383.63 571.62,-386.47 575.62,-392.22"/>
<text text-anchor="middle" x="563.19" y="-405.8" font-family="Times New Roman,serif" font-size="14.00">111</text>
</g>
<!-- 519118651281911800&#45;&gt;952199118435081243 -->
<g id="edge29" class="edge">
<title>519118651281911800&#45;&gt;952199118435081243</title>
<path fill="none" stroke="#000000" stroke-opacity="0.337255" d="M483.47,-434.78C483.58,-413.91 485.04,-377.84 492.69,-348 496.36,-333.7 502.74,-318.6 508.68,-306.27"/>
<polygon fill="#000000" fill-opacity="0.337255" stroke="#000000" stroke-opacity="0.337255" points="511.95,-307.55 513.28,-297.04 505.68,-304.43 511.95,-307.55"/>
<text text-anchor="middle" x="499.69" y="-362.3" font-family="Times New Roman,serif" font-size="14.00">32</text>
</g>
<!-- 576521972789431519 -->
<g id="node30" class="node">
<title>576521972789431519</title>
<ellipse fill="none" stroke="black" cx="1897.69" cy="-975" rx="89.88" ry="18"/>
<text text-anchor="middle" x="1897.69" y="-971.3" font-family="Times New Roman,serif" font-size="14.00">576521972789431519</text>
</g>
<!-- 576521972789431519&#45;&gt;727894315191185191 -->
<g id="edge30" class="edge">
<title>576521972789431519&#45;&gt;727894315191185191</title>
<path fill="none" stroke="#000000" stroke-opacity="0.431373" d="M1886.56,-956.8C1878.68,-944.62 1867.98,-928.09 1859.13,-914.4"/>
<polygon fill="#000000" fill-opacity="0.431373" stroke="#000000" stroke-opacity="0.431373" points="1861.99,-912.38 1853.62,-905.89 1856.11,-916.18 1861.99,-912.38"/>
<text text-anchor="middle" x="1880.69" y="-927.8" font-family="Times New Roman,serif" font-size="14.00">52</text>
</g>
<!-- 576521972789431519&#45;&gt;383435081243485611 -->
<g id="edge31" class="edge">
<title>576521972789431519&#45;&gt;383435081243485611</title>
<path fill="none" stroke="#000000" stroke-opacity="0.231373" d="M1912.51,-957.22C1922.94,-944.24 1936,-925.28 1941.69,-906 1949.22,-880.51 1943.92,-850.24 1937.99,-828.95"/>
<polygon fill="#000000" fill-opacity="0.231373" stroke="#000000" stroke-opacity="0.231373" points="1941.31,-827.85 1935.07,-819.28 1934.61,-829.87 1941.31,-827.85"/>
<text text-anchor="middle" x="1952.69" y="-884.3" font-family="Times New Roman,serif" font-size="14.00">15</text>
</g>
<!-- 015255175191180189 -->
<g id="node32" class="node">
<title>015255175191180189</title>
<ellipse fill="none" stroke="black" cx="3473.69" cy="-975" rx="89.88" ry="18"/>
<text text-anchor="middle" x="3473.69" y="-971.3" font-family="Times New Roman,serif" font-size="14.00">015255175191180189</text>
</g>
<!-- 519729219727816705 -->
<g id="node33" class="node">
<title>519729219727816705</title>
<ellipse fill="none" stroke="black" cx="3670.69" cy="-975" rx="89.88" ry="18"/>
<text text-anchor="middle" x="3670.69" y="-971.3" font-family="Times New Roman,serif" font-size="14.00">519729219727816705</text>
</g>
<!-- 546003646711800140 -->
<g id="node37" class="node">
<title>546003646711800140</title>
<ellipse fill="none" stroke="black" cx="358.69" cy="-714" rx="89.88" ry="18"/>
<text text-anchor="middle" x="358.69" y="-710.3" font-family="Times New Roman,serif" font-size="14.00">546003646711800140</text>
</g>
<!-- 211911800357576546&#45;&gt;546003646711800140 -->
<g id="edge32" class="edge">
<title>211911800357576546&#45;&gt;546003646711800140</title>
<path fill="none" stroke="#000000" stroke-opacity="0.690196" d="M358.69,-782.8C358.69,-771.16 358.69,-755.55 358.69,-742.24"/>
<polygon fill="#000000" fill-opacity="0.690196" stroke="#000000" stroke-opacity="0.690196" points="362.19,-742.18 358.69,-732.18 355.19,-742.18 362.19,-742.18"/>
<text text-anchor="middle" x="369.19" y="-753.8" font-family="Times New Roman,serif" font-size="14.00">134</text>
</g>
<!-- 180189445229534527 -->
<g id="node39" class="node">
<title>180189445229534527</title>
<ellipse fill="none" stroke="black" cx="188.69" cy="-627" rx="89.88" ry="18"/>
<text text-anchor="middle" x="188.69" y="-623.3" font-family="Times New Roman,serif" font-size="14.00">180189445229534527</text>
</g>
<!-- 211911800357576546&#45;&gt;180189445229534527 -->
<g id="edge33" class="edge">
<title>211911800357576546&#45;&gt;180189445229534527</title>
<path fill="none" stroke="#000000" stroke-opacity="0.611765" d="M318.69,-784.74C293.17,-773.36 260.85,-755.7 238.69,-732 218.05,-709.92 204.37,-677.74 196.62,-655.03"/>
<polygon fill="#000000" fill-opacity="0.611765" stroke="#000000" stroke-opacity="0.611765" points="199.89,-653.77 193.47,-645.34 193.23,-655.93 199.89,-653.77"/>
<text text-anchor="middle" x="249.19" y="-710.3" font-family="Times New Roman,serif" font-size="14.00">105</text>
</g>
<!-- 679757714458316013 -->
<g id="node36" class="node">
<title>679757714458316013</title>
<ellipse fill="none" stroke="black" cx="3867.69" cy="-975" rx="89.88" ry="18"/>
<text text-anchor="middle" x="3867.69" y="-971.3" font-family="Times New Roman,serif" font-size="14.00">679757714458316013</text>
</g>
<!-- 546003646711800140&#45;&gt;275857651972788943 -->
<g id="edge34" class="edge">
<title>546003646711800140&#45;&gt;275857651972788943</title>
<path fill="none" stroke="#000000" stroke-opacity="0.662745" d="M365.26,-695.88C376.78,-665.87 400.68,-603.58 414.4,-567.81"/>
<polygon fill="#000000" fill-opacity="0.662745" stroke="#000000" stroke-opacity="0.662745" points="417.83,-568.64 418.15,-558.05 411.3,-566.13 417.83,-568.64"/>
<text text-anchor="middle" x="409.19" y="-623.3" font-family="Times New Roman,serif" font-size="14.00">123</text>
</g>
<!-- 546003646711800140&#45;&gt;585765197278894388 -->
<g id="edge35" class="edge">
<title>546003646711800140&#45;&gt;585765197278894388</title>
<path fill="none" stroke="#000000" stroke-opacity="0.654902" d="M352.67,-695.65C342.32,-667.78 318.91,-612.47 284.69,-576 241.67,-530.15 177.81,-494.55 135.01,-473.93"/>
<polygon fill="#000000" fill-opacity="0.654902" stroke="#000000" stroke-opacity="0.654902" points="136.49,-470.76 125.95,-469.64 133.49,-477.08 136.49,-470.76"/>
<text text-anchor="middle" x="308.19" y="-579.8" font-family="Times New Roman,serif" font-size="14.00">121</text>
</g>
<!-- 546003646711800140&#45;&gt;952196180031145727 -->
<g id="edge36" class="edge">
<title>546003646711800140&#45;&gt;952196180031145727</title>
<path fill="none" stroke="#000000" stroke-opacity="0.580392" d="M440.86,-706.67C577.53,-695.03 836.69,-667.72 836.69,-628 836.69,-628 836.69,-628 836.69,-495.5 836.69,-456.54 814.19,-452.29 797.69,-417 778.48,-375.89 756.69,-368.88 756.69,-323.5 756.69,-323.5 756.69,-323.5 756.69,-104 756.69,-84.41 760.85,-62.72 764.92,-46.15"/>
<polygon fill="#000000" fill-opacity="0.580392" stroke="#000000" stroke-opacity="0.580392" points="768.41,-46.64 767.54,-36.08 761.64,-44.88 768.41,-46.64"/>
<text text-anchor="middle" x="785.69" y="-362.3" font-family="Times New Roman,serif" font-size="14.00">95</text>
</g>
<!-- 546003646711800140&#45;&gt;180189445229534527 -->
<g id="edge37" class="edge">
<title>546003646711800140&#45;&gt;180189445229534527</title>
<path fill="none" stroke="#000000" stroke-opacity="0.925490" d="M317.38,-697.94C302.73,-692.19 286.26,-685.26 271.69,-678 254.98,-669.67 237.17,-659.17 222.34,-649.94"/>
<polygon fill="#000000" fill-opacity="0.925490" stroke="#000000" stroke-opacity="0.925490" points="223.86,-646.76 213.53,-644.39 220.12,-652.68 223.86,-646.76"/>
<text text-anchor="middle" x="282.19" y="-666.8" font-family="Times New Roman,serif" font-size="14.00">239</text>
</g>
<!-- 895219727816705121 -->
<g id="node38" class="node">
<title>895219727816705121</title>
<ellipse fill="none" stroke="black" cx="715.69" cy="-975" rx="89.88" ry="18"/>
<text text-anchor="middle" x="715.69" y="-971.3" font-family="Times New Roman,serif" font-size="14.00">895219727816705121</text>
</g>
<!-- 895219727816705121&#45;&gt;781670512164800658 -->
<g id="edge38" class="edge">
<title>895219727816705121&#45;&gt;781670512164800658</title>
<path fill="none" stroke="#000000" stroke-opacity="0.678431" d="M685.79,-958.01C660.33,-944.4 623.57,-924.75 595.78,-909.9"/>
<polygon fill="#000000" fill-opacity="0.678431" stroke="#000000" stroke-opacity="0.678431" points="597.2,-906.69 586.73,-905.06 593.9,-912.86 597.2,-906.69"/>
<text text-anchor="middle" x="657.19" y="-927.8" font-family="Times New Roman,serif" font-size="14.00">129</text>
</g>
<!-- 895219727816705121&#45;&gt;114312889500362496 -->
<g id="edge39" class="edge">
<title>895219727816705121&#45;&gt;114312889500362496</title>
<path fill="none" stroke="#000000" stroke-opacity="0.627451" d="M739.21,-957.61C758.08,-944.47 784.75,-925.88 805.58,-911.37"/>
<polygon fill="#000000" fill-opacity="0.627451" stroke="#000000" stroke-opacity="0.627451" points="807.62,-914.22 813.83,-905.63 803.62,-908.47 807.62,-914.22"/>
<text text-anchor="middle" x="795.19" y="-927.8" font-family="Times New Roman,serif" font-size="14.00">110</text>
</g>
<!-- 895219727816705121&#45;&gt;965855064996704672 -->
<g id="edge40" class="edge">
<title>895219727816705121&#45;&gt;965855064996704672</title>
<path fill="none" stroke="#000000" stroke-opacity="0.545098" d="M712.68,-956.68C709.82,-934.74 708.1,-896.6 724.69,-870 738.54,-847.8 762.53,-831.87 784.86,-821.04"/>
<polygon fill="#000000" fill-opacity="0.545098" stroke="#000000" stroke-opacity="0.545098" points="786.34,-824.21 793.96,-816.85 783.42,-817.85 786.34,-824.21"/>
<text text-anchor="middle" x="731.69" y="-884.3" font-family="Times New Roman,serif" font-size="14.00">84</text>
</g>
<!-- 180189445229534527&#45;&gt;275857651972788943 -->
<g id="edge41" class="edge">
<title>180189445229534527&#45;&gt;275857651972788943</title>
<path fill="none" stroke="#000000" stroke-opacity="0.745098" d="M209.13,-609.3C223.57,-598.3 243.81,-584.43 263.69,-576 288.34,-565.55 316.48,-558.06 342.26,-552.77"/>
<polygon fill="#000000" fill-opacity="0.745098" stroke="#000000" stroke-opacity="0.745098" points="343.26,-556.14 352.39,-550.78 341.91,-549.27 343.26,-556.14"/>
<text text-anchor="middle" x="274.19" y="-579.8" font-family="Times New Roman,serif" font-size="14.00">155</text>
</g>
<!-- 180189445229534527&#45;&gt;585765197278894388 -->
<g id="edge42" class="edge">
<title>180189445229534527&#45;&gt;585765197278894388</title>
<path fill="none" stroke="#000000" stroke-opacity="0.737255" d="M178.84,-608.88C161.42,-578.61 125.09,-515.51 104.6,-479.9"/>
<polygon fill="#000000" fill-opacity="0.737255" stroke="#000000" stroke-opacity="0.737255" points="107.53,-477.97 99.51,-471.05 101.46,-481.46 107.53,-477.97"/>
<text text-anchor="middle" x="160.19" y="-536.3" font-family="Times New Roman,serif" font-size="14.00">153</text>
</g>
<!-- 945765128895065128 -->
<g id="node41" class="node">
<title>945765128895065128</title>
<ellipse fill="none" stroke="black" cx="4064.69" cy="-975" rx="89.88" ry="18"/>
<text text-anchor="middle" x="4064.69" y="-971.3" font-family="Times New Roman,serif" font-size="14.00">945765128895065128</text>
</g>
<!-- 180036468895219912 -->
<g id="node43" class="node">
<title>180036468895219912</title>
<ellipse fill="none" stroke="black" cx="4261.69" cy="-975" rx="89.88" ry="18"/>
<text text-anchor="middle" x="4261.69" y="-971.3" font-family="Times New Roman,serif" font-size="14.00">180036468895219912</text>
</g>
<!-- 857659434421595604 -->
<g id="node44" class="node">
<title>857659434421595604</title>
<ellipse fill="none" stroke="black" cx="1031.69" cy="-540" rx="89.88" ry="18"/>
<text text-anchor="middle" x="1031.69" y="-536.3" font-family="Times New Roman,serif" font-size="14.00">857659434421595604</text>
</g>
<!-- 857659434421595604&#45;&gt;042159561513534780 -->
<g id="edge43" class="edge">
<title>857659434421595604&#45;&gt;042159561513534780</title>
<path fill="none" stroke="#000000" stroke-opacity="0.670588" d="M1051.03,-522.3C1094.36,-482.91 1191.3,-382.41 1136.69,-315 1126.54,-302.47 1094.6,-294.25 1061.49,-288.94"/>
<polygon fill="#000000" fill-opacity="0.670588" stroke="#000000" stroke-opacity="0.670588" points="1061.61,-285.42 1051.2,-287.39 1060.56,-292.34 1061.61,-285.42"/>
<text text-anchor="middle" x="1154.19" y="-405.8" font-family="Times New Roman,serif" font-size="14.00">126</text>
</g>
<!-- 857659434421595604&#45;&gt;978585765197292197 -->
<g id="edge44" class="edge">
<title>857659434421595604&#45;&gt;978585765197292197</title>
<path fill="none" stroke="#000000" stroke-opacity="0.349020" d="M1095.7,-527.29C1122.64,-521.54 1154.07,-513.73 1181.69,-504 1204.1,-496.11 1228.07,-484.8 1247.34,-474.93"/>
<polygon fill="#000000" fill-opacity="0.349020" stroke="#000000" stroke-opacity="0.349020" points="1249.14,-477.94 1256.39,-470.22 1245.91,-471.73 1249.14,-477.94"/>
<text text-anchor="middle" x="1224.69" y="-492.8" font-family="Times New Roman,serif" font-size="14.00">34</text>
</g>
<!-- 857659434421595604&#45;&gt;451904504215956151 -->
<g id="edge45" class="edge">
<title>857659434421595604&#45;&gt;451904504215956151</title>
<path fill="none" stroke="#000000" stroke-opacity="0.690196" d="M1020.16,-521.8C1011.99,-509.62 1000.9,-493.09 991.72,-479.4"/>
<polygon fill="#000000" fill-opacity="0.690196" stroke="#000000" stroke-opacity="0.690196" points="994.49,-477.24 986.02,-470.89 988.68,-481.14 994.49,-477.24"/>
<text text-anchor="middle" x="1017.19" y="-492.8" font-family="Times New Roman,serif" font-size="14.00">133</text>
</g>
<!-- 819537243485625108 -->
<g id="node45" class="node">
<title>819537243485625108</title>
<ellipse fill="none" stroke="black" cx="1285.69" cy="-540" rx="89.88" ry="18"/>
<text text-anchor="middle" x="1285.69" y="-536.3" font-family="Times New Roman,serif" font-size="14.00">819537243485625108</text>
</g>
<!-- 819537243485625108&#45;&gt;978585765197292197 -->
<g id="edge46" class="edge">
<title>819537243485625108&#45;&gt;978585765197292197</title>
<path fill="none" stroke="#000000" stroke-opacity="0.349020" d="M1285.69,-521.8C1285.69,-510.16 1285.69,-494.55 1285.69,-481.24"/>
<polygon fill="#000000" fill-opacity="0.349020" stroke="#000000" stroke-opacity="0.349020" points="1289.19,-481.18 1285.69,-471.18 1282.19,-481.18 1289.19,-481.18"/>
<text text-anchor="middle" x="1292.69" y="-492.8" font-family="Times New Roman,serif" font-size="14.00">34</text>
</g>
<!-- 974648349472783040 -->
<g id="node46" class="node">
<title>974648349472783040</title>
<ellipse fill="none" stroke="black" cx="4458.69" cy="-975" rx="89.88" ry="18"/>
<text text-anchor="middle" x="4458.69" y="-971.3" font-family="Times New Roman,serif" font-size="14.00">974648349472783040</text>
</g>
<!-- 460036467118001401 -->
<g id="node47" class="node">
<title>460036467118001401</title>
<ellipse fill="none" stroke="black" cx="680.69" cy="-453" rx="89.88" ry="18"/>
<text text-anchor="middle" x="680.69" y="-449.3" font-family="Times New Roman,serif" font-size="14.00">460036467118001401</text>
</g>
<!-- 460036467118001401&#45;&gt;464726114514519485 -->
<g id="edge47" class="edge">
<title>460036467118001401&#45;&gt;464726114514519485</title>
<path fill="none" stroke="#000000" stroke-opacity="0.529412" d="M665.87,-435.21C654.88,-422.75 639.73,-405.57 627.38,-391.57"/>
<polygon fill="#000000" fill-opacity="0.529412" stroke="#000000" stroke-opacity="0.529412" points="629.72,-388.94 620.48,-383.76 624.47,-393.57 629.72,-388.94"/>
<text text-anchor="middle" x="654.69" y="-405.8" font-family="Times New Roman,serif" font-size="14.00">79</text>
</g>
<!-- 460036467118001401&#45;&gt;756356114519199118 -->
<g id="edge48" class="edge">
<title>460036467118001401&#45;&gt;756356114519199118</title>
<path fill="none" stroke="#000000" stroke-opacity="0.301961" d="M733.51,-438.44C792.15,-423.38 886.75,-399.09 949.08,-383.08"/>
<polygon fill="#000000" fill-opacity="0.301961" stroke="#000000" stroke-opacity="0.301961" points="949.98,-386.46 958.79,-380.58 948.24,-379.68 949.98,-386.46"/>
<text text-anchor="middle" x="873.69" y="-405.8" font-family="Times New Roman,serif" font-size="14.00">26</text>
</g>
<!-- 965855064996704672&#45;&gt;857659434421595604 -->
<g id="edge49" class="edge">
<title>965855064996704672&#45;&gt;857659434421595604</title>
<path fill="none" stroke="#000000" stroke-opacity="0.309804" d="M850.42,-783.01C883.72,-738.55 973.53,-618.64 1012.84,-566.17"/>
<polygon fill="#000000" fill-opacity="0.309804" stroke="#000000" stroke-opacity="0.309804" points="1015.72,-568.16 1018.92,-558.06 1010.12,-563.96 1015.72,-568.16"/>
<text text-anchor="middle" x="946.69" y="-666.8" font-family="Times New Roman,serif" font-size="14.00">27</text>
</g>
<!-- 628477090889524348&#45;&gt;867563561145191991 -->
<g id="edge50" class="edge">
<title>628477090889524348&#45;&gt;867563561145191991</title>
<path fill="none" stroke="#000000" stroke-opacity="0.486275" d="M984.17,-174.61C965.3,-161.47 938.63,-142.88 917.8,-128.37"/>
<polygon fill="#000000" fill-opacity="0.486275" stroke="#000000" stroke-opacity="0.486275" points="919.76,-125.47 909.56,-122.63 915.76,-131.22 919.76,-125.47"/>
<text text-anchor="middle" x="961.69" y="-144.8" font-family="Times New Roman,serif" font-size="14.00">67</text>
</g>
</g>
</svg>
